<svg id="svg" version="1.1" xmlns="http://www.w3.org/2000/svg" xmlns:xlink="http://www.w3.org/1999/xlink" width="400" height="644.122383252818" viewBox="0, 0, 400,644.122383252818"><g id="svgg"><path id="path0" d="M0.000 322.000 L 0.000 644.000 200.000 644.000 L 400.000 644.000 400.000 493.000 L 400.000 342.000 399.000 342.000 C 398.346 342.000,398.000 341.776,398.000 341.353 C 398.000 340.884,398.267 340.758,398.971 340.892 C 399.901 341.070,399.943 340.987,399.943 338.963 C 399.943 337.293,399.822 336.893,399.371 337.066 C 398.695 337.326,398.653 337.778,399.209 338.816 C 399.550 339.455,399.458 339.620,398.649 339.823 C 396.932 340.254,395.797 339.891,395.830 338.920 C 395.846 338.436,395.711 338.131,395.530 338.243 C 395.348 338.356,395.200 338.250,395.200 338.010 C 395.200 337.703,394.971 337.694,394.440 337.979 C 393.859 338.289,393.624 338.240,393.443 337.767 C 393.312 337.427,393.024 337.261,392.803 337.398 C 392.581 337.535,392.400 337.446,392.400 337.200 C 392.400 336.954,392.208 336.872,391.973 337.017 C 391.738 337.162,391.451 336.916,391.334 336.471 C 391.200 335.957,390.860 335.711,390.403 335.799 C 390.008 335.876,389.313 335.592,388.859 335.169 C 388.405 334.746,387.778 334.400,387.466 334.400 C 387.153 334.400,386.674 334.130,386.400 333.800 C 386.126 333.470,385.485 333.200,384.975 333.200 C 384.465 333.200,383.936 333.020,383.800 332.800 C 383.658 332.570,381.537 332.400,378.800 332.400 C 376.063 332.400,373.942 332.230,373.800 332.000 C 373.664 331.780,373.135 331.600,372.625 331.600 C 372.115 331.600,371.474 331.330,371.200 331.000 C 370.926 330.670,370.364 330.400,369.951 330.400 C 369.538 330.400,369.200 330.220,369.200 330.000 C 369.200 329.780,368.688 329.600,368.062 329.600 C 367.432 329.600,366.601 329.243,366.200 328.800 C 365.802 328.360,365.275 328.000,365.029 328.000 C 364.783 328.000,363.150 326.560,361.400 324.800 C 359.650 323.040,357.978 321.600,357.683 321.600 C 357.388 321.600,356.484 320.972,355.673 320.203 C 354.863 319.435,354.012 318.805,353.781 318.803 C 353.256 318.799,350.400 315.904,350.400 315.376 C 350.400 314.858,342.387 306.886,341.160 306.184 C 340.632 305.882,339.833 305.465,339.384 305.259 C 338.935 305.052,338.327 304.595,338.035 304.242 C 337.742 303.889,337.282 303.600,337.013 303.600 C 336.744 303.600,336.198 303.240,335.800 302.800 C 335.402 302.360,334.782 302.000,334.423 302.000 C 329.705 302.000,325.355 286.788,325.100 269.400 C 324.951 259.236,326.014 257.926,331.867 261.067 C 335.959 263.263,338.655 264.555,342.411 266.120 C 344.275 266.896,348.260 268.775,351.266 270.294 C 356.381 272.879,359.565 274.053,370.000 277.201 C 374.622 278.595,378.916 280.344,386.200 283.799 C 392.587 286.829,392.609 286.837,395.600 287.220 C 397.030 287.403,398.605 287.674,399.100 287.823 L 400.000 288.093 400.000 144.047 L 400.000 0.000 337.592 -0.000 L 275.185 -0.000 275.435 0.996 C 275.620 1.733,275.499 2.064,274.973 2.266 C 274.581 2.416,273.932 2.868,273.531 3.269 C 272.154 4.646,269.200 3.046,269.200 0.925 L 269.200 0.000 262.590 -0.000 L 255.979 -0.000 256.620 1.239 C 256.973 1.921,257.318 2.776,257.389 3.141 C 257.459 3.505,257.716 4.545,257.960 5.452 C 258.709 8.232,258.719 9.495,258.004 11.092 C 256.521 14.405,254.951 14.782,251.717 12.605 C 250.578 11.837,248.420 10.832,246.923 10.370 C 245.425 9.908,243.887 9.366,243.505 9.165 C 243.123 8.964,242.572 8.800,242.280 8.800 C 240.526 8.800,238.545 4.835,238.433 1.100 L 238.400 0.000 224.080 0.000 C 213.476 0.000,209.635 0.125,209.280 0.480 C 208.907 0.853,208.800 0.853,208.800 0.480 C 208.800 -0.211,198.949 -0.192,198.206 0.500 C 197.911 0.775,197.105 1.432,196.415 1.961 C 195.725 2.489,195.248 3.147,195.353 3.423 C 195.459 3.699,195.210 4.229,194.800 4.600 C 193.837 5.471,191.593 5.059,191.305 3.958 C 191.196 3.541,190.864 3.200,190.567 3.200 C 189.663 3.200,189.120 1.764,189.808 1.193 C 191.098 0.122,189.990 0.000,179.000 0.000 L 167.600 0.000 167.600 1.000 C 167.600 2.289,166.729 2.289,165.761 1.000 L 165.010 0.000 82.505 0.000 L 0.000 0.000 0.000 322.000 M287.100 6.437 C 288.747 6.975,288.730 7.241,286.936 8.983 C 284.076 11.761,281.922 12.246,279.761 10.598 C 278.011 9.263,278.457 6.800,280.449 6.800 C 280.862 6.800,281.201 6.665,281.202 6.500 C 281.204 6.019,285.676 5.972,287.100 6.437 M132.995 14.467 C 136.478 17.207,135.250 23.429,131.071 24.213 C 129.015 24.599,127.828 24.204,125.955 22.512 C 122.160 19.083,128.969 11.301,132.995 14.467 M373.590 17.190 C 376.179 19.779,374.734 24.800,371.400 24.800 C 369.021 24.800,368.200 23.784,368.200 20.840 C 368.200 16.815,371.190 14.790,373.590 17.190 M95.406 18.035 C 100.035 20.461,98.852 22.934,92.857 23.366 C 88.512 23.679,87.200 23.195,87.200 21.280 C 87.200 17.945,91.778 16.134,95.406 18.035 M356.957 18.633 C 357.710 20.595,357.103 24.400,356.037 24.400 C 354.459 24.400,353.797 21.362,354.864 19.019 C 355.382 17.882,356.584 17.660,356.957 18.633 M288.060 29.396 C 289.427 30.032,290.923 30.395,292.200 30.400 C 293.300 30.405,295.084 30.677,296.164 31.004 C 298.445 31.697,301.793 31.770,304.825 31.195 C 310.433 30.132,312.005 32.717,312.802 44.318 C 313.406 53.099,312.400 56.000,308.749 56.000 C 307.923 56.000,307.136 56.180,307.000 56.400 C 306.864 56.620,306.147 56.800,305.406 56.800 C 303.763 56.800,302.800 58.366,302.800 61.038 C 302.800 61.981,302.646 62.848,302.459 62.964 C 301.339 63.656,301.594 72.561,302.746 72.954 C 303.106 73.076,303.726 73.407,304.123 73.688 C 304.722 74.112,304.929 74.096,305.323 73.596 C 305.857 72.920,310.631 71.200,311.972 71.200 C 316.930 71.200,318.894 81.456,315.753 90.938 C 314.625 94.341,314.886 100.823,316.406 107.195 C 317.204 110.542,317.274 111.511,316.994 115.395 C 316.820 117.818,316.659 122.140,316.636 125.000 C 316.591 130.558,315.509 134.126,313.075 136.740 C 312.153 137.729,307.105 140.400,306.156 140.400 C 305.850 140.400,305.600 140.670,305.600 141.000 C 305.600 141.330,305.302 141.600,304.938 141.600 C 304.322 141.600,304.322 141.651,304.938 142.331 C 305.420 142.865,305.600 143.818,305.600 145.844 C 305.600 149.632,306.332 152.156,308.255 155.000 C 311.426 159.689,311.702 160.938,311.168 168.200 C 310.709 174.441,310.114 176.413,307.704 179.688 C 302.701 186.483,301.154 192.220,300.824 205.200 C 300.497 218.033,299.944 219.197,291.800 224.193 C 285.187 228.250,283.494 230.334,282.976 235.056 C 282.249 241.686,284.622 243.916,297.572 248.768 C 311.516 253.992,311.944 254.567,311.196 267.070 C 310.528 278.236,308.386 279.365,303.633 271.057 C 302.045 268.282,299.044 265.553,296.530 264.599 C 293.542 263.466,292.042 262.306,288.244 258.191 C 280.818 250.147,275.805 251.281,274.775 261.236 C 273.893 269.768,270.627 271.063,249.557 271.235 C 239.413 271.318,237.600 270.527,237.600 266.018 C 237.600 261.559,239.191 260.748,248.720 260.351 C 258.155 259.959,260.970 258.691,259.787 255.368 C 258.827 252.672,255.649 252.084,241.720 252.026 C 232.518 251.987,229.426 253.080,228.412 256.733 C 227.787 258.982,227.978 260.051,228.628 257.941 C 230.012 253.446,231.652 253.009,245.106 253.546 C 256.083 253.985,257.400 254.314,257.400 256.622 C 257.400 258.615,255.501 259.222,248.085 259.603 C 239.152 260.062,237.200 261.259,237.200 266.280 C 237.200 270.754,239.236 272.229,246.249 272.836 C 251.476 273.288,253.144 273.928,253.775 275.722 C 254.579 278.008,251.818 279.908,247.600 279.973 C 239.389 280.097,236.513 282.094,236.098 287.957 C 235.564 295.508,237.685 297.230,248.000 297.619 C 257.276 297.968,260.173 299.246,258.271 302.148 C 257.079 303.968,255.473 304.195,243.800 304.198 C 227.419 304.201,229.113 307.451,228.056 274.000 C 227.885 268.610,227.713 264.809,227.673 265.554 C 227.544 267.937,226.697 270.007,225.377 271.167 C 222.300 273.868,215.115 272.877,213.870 269.580 C 213.159 267.697,212.801 268.196,212.782 271.100 C 212.756 274.793,212.525 279.232,212.036 285.400 C 211.809 288.260,211.618 292.598,211.612 295.041 C 211.598 300.332,210.832 302.098,208.450 302.328 C 205.417 302.622,204.746 300.865,204.431 291.800 C 204.035 280.403,203.411 279.897,189.669 279.838 C 177.362 279.784,176.402 280.384,176.401 288.123 C 176.399 298.729,173.592 304.511,169.868 301.582 C 168.207 300.276,167.971 298.541,167.610 285.000 C 167.330 274.503,166.771 267.152,166.203 266.487 C 166.150 266.424,165.485 266.995,164.725 267.755 C 161.445 271.035,153.926 269.919,152.580 265.951 L 152.122 264.600 151.115 266.600 C 150.561 267.700,149.524 270.490,148.811 272.799 C 148.098 275.109,147.195 277.629,146.804 278.399 C 145.983 280.016,143.403 287.840,141.618 294.126 C 139.249 302.469,136.138 305.548,132.165 303.482 C 129.376 302.031,129.117 301.458,124.622 286.800 C 121.013 275.031,120.325 273.749,117.916 274.297 C 116.482 274.623,112.592 284.291,109.987 294.000 C 108.141 300.882,106.623 303.037,103.315 303.470 C 99.677 303.947,97.954 301.267,94.636 289.970 C 93.435 285.884,90.891 277.874,88.983 272.170 C 85.181 260.811,84.516 257.419,85.807 255.993 C 88.318 253.218,92.649 259.990,96.256 272.331 C 101.373 289.840,104.522 290.346,108.606 274.314 C 109.574 270.511,110.891 266.133,111.532 264.585 C 112.173 263.036,112.901 260.822,113.149 259.665 C 113.700 257.095,114.605 255.227,115.743 254.309 C 116.214 253.929,116.409 253.614,116.175 253.609 C 115.556 253.596,113.910 255.475,112.302 258.031 C 109.798 262.011,106.499 262.542,99.698 260.059 C 95.432 258.503,93.095 256.861,92.040 254.682 C 90.228 250.939,91.039 250.016,99.908 245.721 C 107.886 241.857,110.756 239.504,114.447 233.800 C 126.089 215.808,128.511 207.371,123.574 202.000 C 120.976 199.174,119.216 192.770,118.021 181.800 C 117.476 176.790,116.847 174.870,114.615 171.402 C 109.275 163.100,111.620 155.265,121.200 149.405 C 123.290 148.127,127.520 144.975,130.600 142.401 C 140.628 134.020,150.304 127.142,155.586 124.639 C 158.627 123.198,162.484 123.011,170.800 123.904 C 178.428 124.722,186.191 124.544,193.658 123.380 C 197.256 122.818,203.980 122.107,208.600 121.798 C 231.705 120.256,232.915 120.102,238.200 118.016 C 241.888 116.561,245.531 116.499,248.800 117.835 C 253.167 119.620,259.199 118.308,263.126 114.719 C 263.716 114.178,265.370 113.183,266.800 112.506 C 268.230 111.829,269.996 110.718,270.725 110.038 C 271.453 109.357,272.218 108.800,272.425 108.800 C 273.277 108.800,272.768 106.521,271.700 105.556 C 270.492 104.464,269.526 103.988,265.221 102.359 C 263.589 101.742,261.598 99.767,258.623 95.814 C 257.430 94.229,255.796 92.407,254.991 91.766 C 252.429 89.724,249.744 85.686,249.029 82.800 C 248.675 81.370,248.097 79.240,247.745 78.067 C 246.030 72.353,248.153 69.298,254.462 68.402 C 258.860 67.777,260.148 67.334,263.749 65.207 C 265.558 64.139,268.680 62.441,270.688 61.435 C 278.271 57.633,278.079 57.087,265.169 45.693 C 253.265 35.187,252.873 31.643,263.491 30.487 L 269.138 29.872 271.869 31.485 C 276.688 34.331,278.476 34.169,282.038 30.562 C 284.480 28.089,285.025 27.983,288.060 29.396 M162.199 104.459 C 162.639 104.543,163.301 105.252,163.670 106.037 C 164.040 106.822,165.885 108.869,167.771 110.585 C 173.977 116.234,172.367 117.265,160.325 115.353 C 157.243 114.863,156.594 108.997,159.297 106.068 C 159.839 105.481,160.409 104.645,160.563 104.211 C 160.740 103.713,160.946 103.586,161.122 103.865 C 161.275 104.108,161.760 104.376,162.199 104.459 M153.864 116.623 C 154.293 117.741,151.865 120.122,146.945 123.407 C 139.885 128.120,132.745 134.038,129.675 137.724 C 124.199 144.295,123.807 144.642,120.692 145.661 C 118.593 146.347,116.965 147.273,114.645 149.100 C 110.074 152.699,109.654 152.343,108.645 144.000 C 108.285 141.030,107.814 137.610,107.596 136.400 C 106.691 131.362,107.992 129.076,112.241 128.239 C 115.911 127.516,116.752 127.146,118.853 125.328 C 120.945 123.517,127.336 120.272,130.430 119.450 C 131.624 119.133,133.674 118.376,134.986 117.768 C 138.706 116.044,153.302 115.159,153.864 116.623 M272.000 122.010 C 270.570 122.455,268.590 123.064,267.600 123.364 C 262.998 124.756,266.243 128.070,277.800 133.779 C 280.440 135.083,283.627 136.813,284.881 137.623 C 289.098 140.345,296.223 141.766,299.200 140.478 C 299.970 140.145,300.780 139.856,301.000 139.836 C 302.303 139.718,300.679 137.079,297.362 133.926 C 295.669 132.317,292.752 129.473,290.880 127.606 C 289.008 125.739,287.168 124.029,286.792 123.806 C 282.992 121.550,282.646 121.445,278.600 121.322 C 275.457 121.227,274.043 121.375,272.000 122.010 M251.600 158.002 C 250.610 158.171,248.180 158.941,246.200 159.712 C 238.818 162.587,235.325 163.394,232.391 162.901 C 228.456 162.240,225.964 162.539,223.400 163.980 C 215.135 168.626,214.756 168.648,207.184 164.883 C 197.468 160.054,181.650 158.063,174.400 160.758 L 172.200 161.576 174.600 161.288 C 185.659 159.961,200.210 162.756,207.600 167.627 C 208.810 168.425,210.700 169.570,211.800 170.173 C 214.910 171.877,215.053 172.097,214.077 173.667 C 211.359 178.039,208.014 179.639,204.906 178.054 C 198.014 174.538,192.630 178.990,196.154 185.291 C 196.949 186.713,197.600 188.274,197.600 188.758 C 197.600 191.613,191.881 196.697,189.400 196.048 C 189.133 195.978,189.133 196.079,189.400 196.351 C 191.030 198.016,197.774 193.733,201.604 188.600 C 202.837 186.947,203.539 186.434,205.648 185.647 C 208.652 184.524,209.916 183.635,213.292 180.274 C 218.523 175.065,220.518 174.373,225.803 175.935 C 227.341 176.389,230.400 177.060,232.600 177.425 C 236.087 178.005,237.215 178.414,241.400 180.620 C 249.337 184.803,254.033 185.849,258.237 184.368 C 259.537 183.910,262.619 183.279,265.086 182.965 C 274.615 181.753,278.622 179.500,281.475 173.751 C 285.742 165.152,281.805 159.760,272.568 161.551 C 270.647 161.924,269.699 161.631,267.686 160.043 C 264.793 157.760,258.031 156.902,251.600 158.002 M267.649 165.445 C 270.229 167.780,262.484 171.305,258.875 169.439 C 256.998 168.468,257.336 167.364,259.919 166.027 C 261.974 164.964,266.722 164.606,267.649 165.445 M237.502 168.900 C 237.236 169.711,234.303 171.186,232.944 171.193 C 231.620 171.200,229.584 169.885,230.107 169.360 C 230.936 168.529,237.764 168.104,237.502 168.900 M274.567 173.043 C 276.413 173.751,274.184 176.766,270.883 178.027 C 268.060 179.105,252.907 179.998,250.363 179.236 C 247.164 178.278,245.702 175.816,247.697 174.748 C 248.301 174.425,251.596 174.233,257.797 174.160 C 263.709 174.091,268.073 173.846,270.000 173.476 C 273.768 172.753,273.804 172.750,274.567 173.043 M332.800 176.360 C 333.570 176.778,334.785 177.428,335.500 177.805 C 337.452 178.835,337.113 179.072,333.600 179.139 C 330.884 179.191,330.279 179.079,329.600 178.400 C 327.427 176.227,329.784 174.725,332.800 176.360 M79.039 179.802 C 79.781 180.928,79.169 181.779,77.854 181.449 C 76.748 181.172,75.799 179.849,76.219 179.169 C 76.626 178.510,78.458 178.922,79.039 179.802 M201.467 182.631 C 201.912 183.790,200.667 184.558,199.834 183.638 C 199.442 183.205,199.240 182.659,199.384 182.425 C 199.784 181.779,201.194 181.918,201.467 182.631 M98.496 194.419 C 99.364 195.491,99.387 196.355,98.577 197.511 C 97.435 199.142,94.103 198.158,92.503 195.717 C 91.107 193.585,96.819 192.348,98.496 194.419 M348.361 209.706 C 352.127 211.643,347.663 215.750,343.699 213.996 C 340.267 212.478,339.454 210.939,341.500 209.829 C 342.844 209.100,347.036 209.025,348.361 209.706 M334.757 210.240 C 335.684 211.068,332.453 211.852,327.009 212.121 C 325.176 212.212,324.531 211.082,325.857 210.105 C 326.526 209.611,334.183 209.728,334.757 210.240 M319.449 254.983 C 319.572 255.304,319.720 262.549,319.778 271.083 C 319.836 279.617,320.013 289.300,320.172 292.600 C 320.442 298.230,320.410 298.680,319.642 299.889 C 317.281 303.613,313.749 301.597,308.277 293.400 C 302.970 285.450,292.777 273.520,289.355 271.253 C 283.580 267.428,281.621 272.924,281.602 293.000 C 281.596 299.706,281.038 301.600,279.068 301.600 C 277.031 301.600,276.608 300.419,276.513 294.459 C 276.465 291.457,276.221 285.387,275.972 280.972 C 275.545 273.429,275.806 265.180,276.650 259.486 C 277.375 254.601,281.976 254.285,285.719 258.863 C 291.148 265.505,294.803 270.268,296.722 273.200 C 306.492 288.132,312.461 292.213,315.553 286.074 C 316.826 283.545,317.299 278.428,317.352 266.600 C 317.380 260.440,317.548 255.175,317.725 254.900 C 318.163 254.220,319.175 254.269,319.449 254.983 M125.406 262.800 C 125.549 264.010,126.273 266.800,127.014 269.000 C 127.754 271.200,128.743 274.530,129.210 276.400 C 132.150 288.161,136.250 288.243,139.170 276.600 C 139.612 274.840,140.418 272.097,140.961 270.504 C 141.505 268.911,142.066 266.751,142.209 265.704 C 142.351 264.657,142.549 263.440,142.648 263.000 C 142.754 262.533,142.553 262.699,142.165 263.400 C 138.972 269.164,129.189 268.509,126.023 262.319 L 125.144 260.600 125.406 262.800 M178.000 268.918 C 178.000 271.205,181.099 272.000,189.997 271.998 C 197.765 271.995,199.824 271.700,200.983 270.419 C 201.657 269.674,201.623 269.676,200.143 270.457 C 197.333 271.939,181.553 270.984,179.100 269.183 C 178.305 268.600,178.000 268.526,178.000 268.918 M188.873 358.123 C 192.447 359.738,192.343 363.954,188.686 365.640 C 188.639 365.662,185.090 365.808,180.800 365.965 C 170.795 366.330,168.806 367.305,168.801 371.841 C 168.798 375.813,171.056 377.228,178.014 377.615 C 184.797 377.993,186.400 378.854,186.400 382.120 C 186.400 385.195,184.259 386.264,177.557 386.536 C 170.374 386.827,168.501 388.579,168.890 394.643 C 169.253 400.298,170.194 400.861,179.955 401.259 C 189.477 401.648,192.000 402.658,192.000 406.085 C 192.000 409.719,189.083 410.495,175.200 410.554 C 157.450 410.628,158.555 412.501,159.051 383.200 C 159.526 355.147,158.132 357.177,176.800 357.355 C 185.680 357.440,187.639 357.565,188.873 358.123 M230.330 358.682 C 232.762 360.485,235.007 365.513,246.248 394.342 C 250.277 404.676,250.513 407.319,247.516 408.579 C 244.802 409.720,242.777 408.491,240.307 404.202 C 236.946 398.367,236.064 397.885,228.366 397.675 C 218.662 397.411,216.574 398.267,213.730 403.681 C 211.244 408.410,208.612 410.201,205.846 409.045 C 201.877 407.385,202.447 404.448,210.209 386.600 C 211.357 383.960,213.777 378.290,215.587 374.000 C 221.367 360.299,221.864 359.377,224.087 358.243 C 225.773 357.383,228.872 357.601,230.330 358.682 M284.335 358.383 C 291.696 359.000,292.918 364.105,285.917 364.987 C 276.954 366.116,276.800 366.498,276.800 387.600 C 276.800 396.641,276.633 403.140,276.369 404.371 C 275.647 407.735,272.686 409.424,270.547 407.691 C 268.621 406.131,268.612 406.040,268.400 387.329 C 268.158 365.916,268.293 366.298,260.725 365.743 C 253.946 365.246,251.600 361.957,255.760 358.780 C 257.103 357.755,274.037 357.520,284.335 358.383 M76.693 358.632 C 85.814 360.516,90.187 366.755,88.025 374.800 C 86.618 380.037,86.808 381.003,90.004 384.844 C 97.628 394.004,93.965 405.597,82.382 408.964 C 80.751 409.439,78.024 409.625,71.599 409.700 C 61.586 409.817,60.921 409.634,59.267 406.313 L 58.334 404.439 58.354 384.319 C 58.377 360.780,58.425 360.458,62.131 358.775 C 64.314 357.784,72.213 357.707,76.693 358.632 M128.348 358.581 C 139.598 361.575,143.768 372.106,137.527 381.761 C 134.238 386.850,134.366 387.527,140.191 395.798 C 145.745 403.684,146.696 406.273,144.789 408.320 C 141.577 411.767,137.747 409.175,130.542 398.678 C 124.182 389.414,122.448 387.927,119.673 389.362 C 117.931 390.263,117.527 391.872,117.249 399.000 C 116.926 407.295,115.761 409.530,112.222 408.641 C 108.759 407.772,108.714 407.426,108.871 383.000 C 109.019 360.078,108.937 360.639,112.385 358.900 C 114.597 357.784,124.603 357.584,128.348 358.581 M310.671 361.300 C 311.899 362.664,312.064 363.383,312.416 368.862 C 313.003 378.024,313.918 378.664,327.000 379.060 C 340.159 379.459,341.591 378.487,342.381 368.617 C 342.763 363.837,343.356 362.253,344.824 362.081 C 347.691 361.746,348.183 366.102,347.799 388.400 C 347.511 405.109,347.392 405.800,344.805 405.800 C 342.619 405.800,342.252 404.627,341.992 396.800 C 341.613 385.378,340.562 384.548,327.062 385.012 C 313.322 385.484,312.899 385.848,312.420 397.626 C 312.111 405.241,311.889 406.068,309.792 407.442 C 308.313 408.411,306.526 407.562,305.558 405.430 C 304.230 402.506,304.731 365.222,306.135 362.520 C 307.299 360.279,309.273 359.748,310.671 361.300 M69.276 366.410 C 65.862 368.492,65.936 375.167,69.398 377.435 C 71.745 378.973,76.794 377.859,78.752 375.371 C 82.833 370.182,75.093 362.864,69.276 366.410 M120.119 366.757 C 117.630 368.327,116.737 372.869,118.301 376.000 C 120.886 381.175,130.400 378.425,130.400 372.503 C 130.400 367.797,124.075 364.263,120.119 366.757 M225.354 376.177 C 223.172 377.705,221.295 384.665,222.549 386.578 C 223.820 388.518,228.516 388.869,230.349 387.162 C 233.699 384.041,228.970 373.644,225.354 376.177 M70.696 386.945 C 65.647 388.836,65.044 398.365,69.800 401.112 C 74.245 403.679,82.701 401.104,84.375 396.674 C 86.781 390.306,78.138 384.159,70.696 386.945 M207.589 462.419 C 232.592 469.388,235.159 502.519,211.536 513.367 C 196.185 520.416,178.059 512.899,172.971 497.372 C 166.057 476.278,185.798 456.346,207.589 462.419 M151.141 462.794 C 157.375 464.556,160.520 467.591,159.565 470.923 C 158.659 474.080,156.577 474.530,151.000 472.775 C 136.991 468.367,125.853 474.198,123.959 486.931 C 121.878 500.924,135.113 510.376,150.386 505.804 C 156.283 504.039,159.200 504.729,159.200 507.890 C 159.200 512.902,152.444 516.085,141.800 516.087 C 108.953 516.095,103.486 470.488,135.357 462.329 C 139.152 461.358,146.862 461.585,151.141 462.794 M41.400 463.806 C 49.844 466.016,53.450 472.426,51.179 481.189 C 50.134 485.220,50.439 486.462,53.363 490.083 C 60.733 499.209,57.184 510.819,45.899 514.499 C 42.864 515.489,28.998 516.011,26.152 515.242 C 21.122 513.884,21.195 514.262,21.132 489.285 C 21.072 465.989,21.050 466.216,23.607 464.395 C 25.912 462.754,36.092 462.416,41.400 463.806 M101.034 463.788 C 102.923 464.578,103.910 466.648,103.148 468.225 C 102.040 470.518,100.658 470.904,92.450 471.211 C 82.540 471.583,81.190 472.225,80.903 476.705 C 80.610 481.281,82.534 482.707,89.774 483.277 C 95.015 483.690,96.840 484.292,97.545 485.838 C 99.172 489.410,96.780 491.042,89.136 491.573 C 82.016 492.067,80.400 493.461,80.400 499.107 C 80.400 505.822,82.432 507.192,92.400 507.200 C 100.312 507.206,103.200 508.216,103.200 510.976 C 103.200 514.438,100.433 515.131,86.156 515.245 C 70.269 515.371,71.400 517.367,71.400 489.200 C 71.400 460.600,69.929 462.816,88.738 463.072 C 97.001 463.185,100.008 463.360,101.034 463.788 M248.542 463.233 C 250.808 463.862,253.194 466.279,258.196 473.015 C 266.406 484.069,268.115 484.284,275.231 475.159 C 276.644 473.348,278.846 470.535,280.124 468.909 C 284.886 462.849,289.960 461.753,292.251 466.287 C 293.304 468.370,294.142 506.128,293.212 509.563 C 292.487 512.242,290.772 513.755,288.765 513.486 C 284.902 512.968,284.646 511.987,284.621 497.600 C 284.589 479.533,283.181 478.252,274.808 488.669 C 268.695 496.275,266.181 496.493,260.404 489.922 C 251.653 479.968,250.854 480.577,250.197 497.699 C 249.654 511.865,249.260 513.156,245.469 513.187 C 241.130 513.223,240.809 511.491,240.693 487.400 L 240.600 468.200 241.600 466.200 C 243.091 463.218,245.217 462.309,248.542 463.233 M329.200 463.587 C 335.781 463.965,337.763 464.410,338.431 465.657 C 339.753 468.129,337.392 469.132,329.144 469.603 C 319.824 470.135,317.601 471.483,317.601 476.600 C 317.601 481.161,319.887 482.897,326.800 483.586 C 331.590 484.063,332.924 484.724,333.124 486.715 C 333.313 488.608,332.038 489.196,326.395 489.816 C 318.879 490.643,317.226 492.219,317.209 498.574 C 317.190 505.464,318.869 506.696,329.244 507.403 C 336.749 507.915,338.400 508.379,338.400 509.977 C 338.400 512.900,337.239 513.231,325.396 513.685 C 307.659 514.364,308.577 515.778,308.961 488.368 C 309.346 460.814,308.073 462.372,329.200 463.587 M377.238 465.318 C 383.434 468.312,382.018 472.377,375.677 469.800 C 366.171 465.937,359.124 474.044,366.386 480.489 C 367.446 481.430,370.358 483.262,372.857 484.559 C 384.562 490.637,387.920 496.581,384.230 504.694 C 379.879 514.263,364.466 516.474,357.239 508.567 C 352.577 503.466,355.225 499.910,360.612 504.038 C 367.819 509.563,374.979 509.385,377.900 503.610 C 380.540 498.390,377.771 494.539,367.715 489.445 C 357.162 484.100,353.824 478.271,357.202 471.086 C 360.181 464.748,370.130 461.883,377.238 465.318 M194.600 471.762 C 177.610 477.158,177.506 500.773,194.450 506.046 C 208.425 510.396,221.417 495.921,216.000 482.037 C 212.889 474.062,202.724 469.182,194.600 471.762 M32.705 472.626 C 29.718 474.247,29.583 480.142,32.487 482.176 C 34.355 483.484,38.477 482.830,40.495 480.904 C 44.825 476.774,38.144 469.675,32.705 472.626 M35.000 492.649 C 28.381 494.272,28.285 505.237,34.875 506.818 C 43.387 508.860,50.655 500.681,45.106 495.303 C 43.112 493.370,37.775 491.968,35.000 492.649 M173.073 537.845 C 176.195 538.682,175.595 545.600,172.400 545.600 C 169.739 545.600,168.469 540.695,170.582 538.582 C 171.639 537.524,171.752 537.491,173.073 537.845 M93.673 539.100 C 93.825 541.383,93.558 542.506,92.693 543.228 C 90.850 544.766,89.654 543.735,90.213 541.091 C 90.778 538.423,93.523 536.843,93.673 539.100 M233.102 540.100 C 234.489 542.719,234.327 543.872,232.500 544.379 C 228.571 545.470,227.557 544.442,229.248 541.084 C 230.912 537.781,231.759 537.565,233.102 540.100 M307.631 539.437 C 308.897 540.963,307.961 544.000,306.226 544.000 C 305.212 544.000,303.200 542.068,303.200 541.094 C 303.200 539.312,306.502 538.077,307.631 539.437 M197.673 542.886 C 198.242 544.784,198.105 544.912,195.291 545.116 C 192.034 545.352,191.157 544.436,192.367 542.064 C 194.125 538.618,196.505 538.986,197.673 542.886 M112.368 541.584 C 113.547 543.988,113.204 544.630,110.523 545.032 C 107.719 545.453,107.278 543.756,109.451 540.900 C 110.779 539.156,111.228 539.261,112.368 541.584 M245.959 567.486 C 256.673 570.168,260.358 581.255,253.808 591.104 C 250.605 595.922,250.794 597.098,256.082 605.200 C 260.945 612.651,261.585 614.494,260.006 616.501 C 257.466 619.731,253.886 617.407,246.608 607.800 C 238.224 596.733,235.240 596.747,234.643 607.857 C 234.160 616.851,231.612 620.516,227.508 618.119 C 224.517 616.372,224.596 617.029,224.630 594.200 C 224.665 570.551,224.816 569.518,228.515 567.539 C 230.829 566.300,241.097 566.269,245.959 567.486 M168.198 568.799 C 170.928 570.121,171.496 571.259,182.465 597.400 C 184.219 601.580,186.392 606.620,187.295 608.600 C 190.116 614.787,189.477 618.582,185.615 618.582 C 183.567 618.582,182.141 617.514,180.522 614.767 C 175.972 607.047,175.881 607.000,165.600 607.000 C 156.554 607.000,155.634 607.334,153.000 611.578 C 149.074 617.902,145.531 619.427,144.016 615.443 C 143.262 613.459,145.396 607.460,154.370 586.347 C 161.415 569.772,161.677 569.318,164.765 568.382 C 166.297 567.918,166.405 567.931,168.198 568.799 M207.987 569.925 C 209.824 571.763,209.984 573.665,210.097 595.000 C 210.211 616.777,210.179 617.061,207.413 618.321 C 203.596 620.060,200.982 617.540,200.540 611.695 C 200.221 607.476,201.131 574.155,201.614 572.354 C 202.528 568.947,205.773 567.711,207.987 569.925 M236.560 578.160 C 234.191 580.529,234.918 585.206,237.874 586.608 C 241.266 588.218,246.000 585.579,246.000 582.078 C 246.000 577.626,239.706 575.014,236.560 578.160 M163.847 585.342 C 158.516 591.075,159.598 598.200,165.800 598.200 C 171.297 598.200,172.636 594.831,169.706 588.369 C 167.748 584.052,165.923 583.109,163.847 585.342 " stroke="none" fill="#7488b7" fill-rule="evenodd"></path><path id="path1" d="M128.903 14.087 C 127.702 14.666,124.839 18.507,124.557 19.917 C 123.843 23.486,130.876 25.716,133.612 22.788 C 137.257 18.885,133.469 11.884,128.903 14.087 M368.909 17.482 C 367.905 19.016,367.936 22.824,368.962 23.958 C 371.625 26.901,375.723 23.332,374.639 19.014 C 373.961 16.313,370.314 15.338,368.909 17.482 M89.751 17.775 C 87.232 18.871,86.335 21.815,88.157 23.008 C 89.405 23.826,96.208 23.437,97.300 22.486 C 100.292 19.879,93.975 15.936,89.751 17.775 M354.864 19.019 C 353.797 21.362,354.459 24.400,356.037 24.400 C 356.909 24.400,357.200 23.598,357.200 21.200 C 357.200 17.962,355.899 16.747,354.864 19.019 M160.563 104.211 C 160.409 104.645,159.839 105.481,159.297 106.068 C 156.594 108.997,157.243 114.863,160.325 115.353 C 172.367 117.265,173.977 116.234,167.771 110.585 C 165.885 108.869,164.040 106.822,163.670 106.037 C 163.301 105.252,162.639 104.543,162.199 104.459 C 161.760 104.376,161.275 104.108,161.122 103.865 C 160.946 103.586,160.740 103.713,160.563 104.211 M139.786 116.386 C 138.459 116.538,136.299 117.160,134.986 117.768 C 133.674 118.376,131.624 119.133,130.430 119.450 C 127.336 120.272,120.945 123.517,118.853 125.328 C 116.752 127.146,115.911 127.516,112.241 128.239 C 107.992 129.076,106.691 131.362,107.596 136.400 C 107.814 137.610,108.285 141.030,108.645 144.000 C 109.654 152.343,110.074 152.699,114.645 149.100 C 116.965 147.273,118.593 146.347,120.692 145.661 C 123.807 144.642,124.199 144.295,129.675 137.724 C 132.745 134.038,139.885 128.120,146.945 123.407 C 151.865 120.122,154.293 117.741,153.864 116.623 C 153.604 115.946,144.902 115.800,139.786 116.386 M177.200 160.912 C 176.996 161.125,175.444 161.306,168.000 161.987 C 148.452 163.776,131.200 176.690,131.200 189.535 C 131.200 192.141,132.124 191.923,136.797 188.213 C 145.799 181.067,152.643 178.164,165.663 175.970 C 177.528 173.970,179.450 174.963,178.114 182.403 C 176.270 192.663,187.203 200.195,194.464 193.666 C 198.016 190.473,198.291 189.112,196.154 185.291 C 192.630 178.990,198.014 174.538,204.906 178.054 C 208.014 179.639,211.359 178.039,214.077 173.667 C 215.053 172.097,214.910 171.877,211.800 170.173 C 210.700 169.570,208.810 168.425,207.600 167.627 C 203.159 164.700,198.910 163.216,191.408 161.972 C 186.655 161.184,177.587 160.508,177.200 160.912 M232.107 168.776 C 229.896 169.136,229.595 169.503,230.744 170.434 C 231.991 171.445,233.838 171.393,235.769 170.293 C 238.813 168.560,237.295 167.931,232.107 168.776 M270.000 173.476 C 268.073 173.846,263.709 174.091,257.797 174.160 C 247.923 174.276,246.800 174.483,246.800 176.185 C 246.800 179.027,249.960 179.758,260.209 179.286 C 270.904 178.793,275.200 177.282,275.200 174.012 C 275.200 172.691,274.480 172.617,270.000 173.476 M329.300 175.865 C 328.543 176.170,328.701 177.501,329.600 178.400 C 330.279 179.079,330.884 179.191,333.600 179.139 C 337.113 179.072,337.452 178.835,335.500 177.805 C 334.785 177.428,333.570 176.778,332.800 176.360 C 331.432 175.618,330.306 175.459,329.300 175.865 M76.219 179.169 C 75.799 179.849,76.748 181.172,77.854 181.449 C 79.169 181.779,79.781 180.928,79.039 179.802 C 78.458 178.922,76.626 178.510,76.219 179.169 M93.262 193.996 C 92.010 194.781,91.962 194.890,92.503 195.717 C 94.103 198.158,97.435 199.142,98.577 197.511 C 100.590 194.637,96.528 191.950,93.262 193.996 M341.500 209.829 C 339.454 210.939,340.267 212.478,343.699 213.996 C 347.663 215.750,352.127 211.643,348.361 209.706 C 347.036 209.025,342.844 209.100,341.500 209.829 M325.857 210.105 C 324.531 211.082,325.176 212.212,327.009 212.121 C 332.453 211.852,335.684 211.068,334.757 210.240 C 334.183 209.728,326.526 209.611,325.857 210.105 M168.875 253.399 C 166.528 255.373,165.473 263.503,166.773 269.600 C 167.030 270.810,167.401 277.650,167.597 284.800 C 167.973 298.548,168.207 300.275,169.868 301.582 C 173.592 304.511,176.399 298.729,176.401 288.123 C 176.402 280.384,177.362 279.784,189.669 279.838 C 203.411 279.897,204.035 280.403,204.431 291.800 C 204.746 300.865,205.417 302.622,208.450 302.328 C 210.832 302.098,211.598 300.332,211.612 295.041 C 211.618 292.598,211.808 288.260,212.034 285.400 C 213.694 264.371,213.174 256.206,210.041 254.109 C 206.205 251.543,203.731 254.494,203.178 262.299 C 202.540 271.298,201.990 271.751,191.484 271.932 C 178.017 272.165,177.491 271.784,176.823 261.321 C 176.322 253.461,172.878 250.030,168.875 253.399 M147.457 253.559 C 145.262 255.006,143.165 259.585,142.402 264.600 C 142.167 266.140,141.449 269.020,140.807 271.000 C 140.164 272.980,139.351 275.770,139.001 277.200 C 136.240 288.481,132.104 287.895,129.045 275.789 C 128.487 273.583,127.584 270.591,127.038 269.139 C 126.491 267.687,125.776 264.963,125.448 263.085 C 123.397 251.335,114.950 249.309,113.029 260.106 C 112.882 260.934,112.223 262.914,111.564 264.506 C 110.906 266.098,109.574 270.511,108.606 274.314 C 104.522 290.346,101.373 289.840,96.256 272.331 C 92.649 259.990,88.318 253.218,85.807 255.993 C 84.516 257.419,85.181 260.811,88.983 272.170 C 90.891 277.874,93.435 285.884,94.636 289.970 C 97.954 301.267,99.677 303.947,103.315 303.470 C 106.623 303.037,108.141 300.882,109.987 294.000 C 112.592 284.291,116.482 274.623,117.916 274.297 C 120.325 273.749,121.013 275.031,124.622 286.800 C 129.117 301.458,129.376 302.031,132.165 303.482 C 136.138 305.548,139.249 302.469,141.618 294.126 C 143.400 287.851,145.982 280.018,146.802 278.400 C 147.193 277.630,148.162 274.930,148.956 272.400 C 149.750 269.870,150.859 267.001,151.420 266.025 C 156.024 258.006,153.371 249.660,147.457 253.559 M232.642 253.598 C 230.844 254.163,229.240 255.972,228.577 258.184 C 227.872 260.533,227.758 277.485,228.402 284.000 C 228.609 286.090,228.787 290.410,228.798 293.600 C 228.834 304.170,228.877 304.201,243.800 304.198 C 255.473 304.195,257.079 303.968,258.271 302.148 C 260.173 299.246,257.276 297.968,248.000 297.619 C 237.685 297.230,235.564 295.508,236.098 287.957 C 236.513 282.094,239.389 280.097,247.600 279.973 C 251.818 279.908,254.579 278.008,253.775 275.722 C 253.144 273.928,251.476 273.288,246.249 272.836 C 239.236 272.229,237.200 270.754,237.200 266.280 C 237.200 261.259,239.152 260.062,248.085 259.603 C 255.303 259.233,257.306 258.619,257.526 256.710 C 257.717 255.050,255.868 254.116,251.846 253.841 C 245.269 253.390,233.766 253.245,232.642 253.598 M317.725 254.900 C 317.548 255.175,317.380 260.440,317.352 266.600 C 317.299 278.428,316.826 283.545,315.553 286.074 C 312.461 292.213,306.492 288.132,296.722 273.200 C 294.803 270.268,291.148 265.505,285.719 258.863 C 281.976 254.285,277.375 254.601,276.650 259.486 C 275.806 265.180,275.545 273.429,275.972 280.972 C 276.221 285.387,276.465 291.457,276.513 294.459 C 276.608 300.419,277.031 301.600,279.068 301.600 C 281.038 301.600,281.596 299.706,281.602 293.000 C 281.621 272.924,283.580 267.428,289.355 271.253 C 292.777 273.520,302.970 285.450,308.277 293.400 C 313.749 301.597,317.281 303.613,319.642 299.889 C 320.410 298.680,320.442 298.230,320.172 292.600 C 320.013 289.300,319.836 279.617,319.778 271.083 C 319.720 262.549,319.572 255.304,319.449 254.983 C 319.175 254.269,318.163 254.220,317.725 254.900 M164.674 357.568 C 159.512 358.631,159.463 358.853,159.051 383.200 C 158.555 412.501,157.450 410.628,175.200 410.554 C 189.083 410.495,192.000 409.719,192.000 406.085 C 192.000 402.658,189.477 401.648,179.955 401.259 C 170.194 400.861,169.253 400.298,168.890 394.643 C 168.501 388.579,170.374 386.827,177.557 386.536 C 184.259 386.264,186.400 385.195,186.400 382.120 C 186.400 378.854,184.797 377.993,178.014 377.615 C 171.056 377.228,168.798 375.813,168.801 371.841 C 168.806 367.305,170.795 366.330,180.800 365.965 C 185.090 365.808,188.639 365.662,188.686 365.640 C 192.343 363.954,192.447 359.738,188.873 358.123 C 187.242 357.385,167.735 356.938,164.674 357.568 M224.087 358.243 C 221.864 359.377,221.367 360.299,215.587 374.000 C 213.777 378.290,211.357 383.960,210.209 386.600 C 202.447 404.448,201.877 407.385,205.846 409.045 C 208.612 410.201,211.244 408.410,213.730 403.681 C 216.574 398.267,218.662 397.411,228.366 397.675 C 236.064 397.885,236.946 398.367,240.307 404.202 C 242.777 408.491,244.802 409.720,247.516 408.579 C 250.513 407.319,250.277 404.676,246.248 394.342 C 235.007 365.513,232.762 360.485,230.330 358.682 C 228.872 357.601,225.773 357.383,224.087 358.243 M263.360 357.973 C 258.279 358.142,256.325 358.349,255.760 358.780 C 251.600 361.957,253.946 365.246,260.725 365.743 C 268.293 366.298,268.158 365.916,268.400 387.329 C 268.612 406.040,268.621 406.131,270.547 407.691 C 272.686 409.424,275.647 407.735,276.369 404.371 C 276.633 403.140,276.800 396.641,276.800 387.600 C 276.800 366.498,276.954 366.116,285.917 364.987 C 289.984 364.475,291.761 361.439,289.135 359.488 C 287.416 358.210,276.155 357.548,263.360 357.973 M62.131 358.775 C 58.425 360.458,58.377 360.780,58.354 384.319 L 58.334 404.439 59.267 406.313 C 60.921 409.634,61.586 409.817,71.599 409.700 C 78.024 409.625,80.751 409.439,82.382 408.964 C 93.965 405.597,97.628 394.004,90.004 384.844 C 86.808 381.003,86.618 380.037,88.025 374.800 C 90.187 366.755,85.814 360.516,76.693 358.632 C 72.213 357.707,64.314 357.784,62.131 358.775 M112.385 358.900 C 108.937 360.639,109.019 360.078,108.871 383.000 C 108.714 407.426,108.759 407.772,112.222 408.641 C 115.761 409.530,116.926 407.295,117.249 399.000 C 117.527 391.872,117.931 390.263,119.673 389.362 C 122.448 387.927,124.182 389.414,130.542 398.678 C 137.747 409.175,141.577 411.767,144.789 408.320 C 146.696 406.273,145.745 403.684,140.191 395.798 C 134.366 387.527,134.238 386.850,137.527 381.761 C 143.768 372.106,139.598 361.575,128.348 358.581 C 124.603 357.584,114.597 357.784,112.385 358.900 M307.500 360.832 C 305.362 362.077,304.871 367.860,304.835 392.200 C 304.819 402.658,304.890 403.961,305.558 405.430 C 306.526 407.562,308.313 408.411,309.792 407.442 C 311.889 406.068,312.111 405.241,312.420 397.626 C 312.899 385.848,313.322 385.484,327.062 385.012 C 340.562 384.548,341.613 385.378,341.992 396.800 C 342.252 404.627,342.619 405.800,344.805 405.800 C 347.392 405.800,347.511 405.109,347.799 388.400 C 348.183 366.102,347.691 361.746,344.824 362.081 C 343.356 362.253,342.763 363.837,342.381 368.617 C 341.591 378.487,340.159 379.459,327.000 379.060 C 313.918 378.664,313.003 378.024,312.416 368.862 C 311.941 361.450,310.495 359.088,307.500 360.832 M75.474 366.025 C 80.893 368.068,81.358 374.671,76.266 377.268 C 71.443 379.729,66.805 377.189,66.801 372.087 C 66.798 366.932,70.681 364.217,75.474 366.025 M127.536 367.355 C 132.874 371.055,130.578 377.899,123.751 378.636 C 119.871 379.055,117.602 376.710,117.601 372.280 C 117.599 366.646,122.795 364.070,127.536 367.355 M228.439 376.439 C 230.198 378.198,231.940 383.393,231.439 385.386 C 230.183 390.393,221.586 388.838,222.082 383.693 C 222.610 378.207,226.158 374.158,228.439 376.439 M79.594 387.387 C 88.888 390.723,85.483 401.473,75.000 401.892 C 68.894 402.136,66.802 400.188,66.801 394.260 C 66.799 387.243,71.763 384.576,79.594 387.387 M194.800 461.768 C 177.782 464.827,167.696 481.278,172.971 497.372 C 181.630 523.794,221.845 521.240,227.376 493.917 C 231.192 475.065,214.187 458.283,194.800 461.768 M135.357 462.329 C 107.500 469.461,106.763 507.902,134.343 515.271 C 143.423 517.697,156.149 515.104,158.638 510.320 C 161.058 505.668,157.445 503.691,150.386 505.804 C 135.113 510.376,121.878 500.924,123.959 486.931 C 125.853 474.198,136.991 468.367,151.000 472.775 C 156.577 474.530,158.659 474.080,159.565 470.923 C 161.336 464.747,146.494 459.478,135.357 462.329 M26.858 463.221 C 20.978 464.277,21.067 463.874,21.132 489.285 C 21.195 514.262,21.122 513.884,26.152 515.242 C 28.998 516.011,42.864 515.489,45.899 514.499 C 57.184 510.819,60.733 499.209,53.363 490.083 C 50.439 486.462,50.134 485.220,51.179 481.189 C 54.491 468.412,43.434 460.244,26.858 463.221 M76.449 463.222 C 71.386 464.339,71.400 464.266,71.400 489.200 C 71.400 517.367,70.269 515.371,86.156 515.245 C 100.433 515.131,103.200 514.438,103.200 510.976 C 103.200 508.216,100.312 507.206,92.400 507.200 C 82.432 507.192,80.400 505.822,80.400 499.107 C 80.400 493.461,82.016 492.067,89.136 491.573 C 96.780 491.042,99.172 489.410,97.545 485.838 C 96.840 484.292,95.015 483.690,89.774 483.277 C 82.534 482.707,80.610 481.281,80.903 476.705 C 81.190 472.225,82.540 471.583,92.450 471.211 C 100.658 470.904,102.040 470.518,103.148 468.225 C 103.910 466.648,102.923 464.578,101.034 463.788 C 99.510 463.152,78.916 462.677,76.449 463.222 M244.000 463.501 C 243.040 463.980,242.286 464.828,241.600 466.200 L 240.600 468.200 240.693 487.400 C 240.809 511.491,241.130 513.223,245.469 513.187 C 249.260 513.156,249.654 511.865,250.197 497.699 C 250.854 480.577,251.653 479.968,260.404 489.922 C 266.181 496.493,268.695 496.275,274.808 488.669 C 283.181 478.252,284.589 479.533,284.621 497.600 C 284.646 511.987,284.902 512.968,288.765 513.486 C 290.772 513.755,292.487 512.242,293.212 509.563 C 294.142 506.128,293.304 468.370,292.251 466.287 C 289.960 461.753,284.886 462.849,280.124 468.909 C 278.846 470.535,276.644 473.348,275.231 475.159 C 268.115 484.284,266.406 484.069,258.196 473.015 C 251.078 463.430,248.116 461.445,244.000 463.501 M313.000 463.765 C 309.373 465.377,309.274 465.979,308.961 488.368 C 308.577 515.778,307.659 514.364,325.396 513.685 C 337.239 513.231,338.400 512.900,338.400 509.977 C 338.400 508.379,336.749 507.915,329.244 507.403 C 318.869 506.696,317.190 505.464,317.209 498.574 C 317.226 492.219,318.879 490.643,326.395 489.816 C 332.038 489.196,333.313 488.608,333.124 486.715 C 332.924 484.724,331.590 484.063,326.800 483.586 C 319.887 482.897,317.601 481.161,317.601 476.600 C 317.601 471.483,319.824 470.135,329.144 469.603 C 337.392 469.132,339.753 468.129,338.431 465.657 C 337.377 463.689,316.642 462.146,313.000 463.765 M363.833 464.971 C 357.682 467.555,354.636 473.995,356.823 479.790 C 358.333 483.791,360.706 485.895,367.715 489.445 C 377.771 494.539,380.540 498.390,377.900 503.610 C 374.979 509.385,367.819 509.563,360.612 504.038 C 355.225 499.910,352.577 503.466,357.239 508.567 C 364.466 516.474,379.879 514.263,384.230 504.694 C 387.920 496.581,384.562 490.637,372.857 484.559 C 370.358 483.262,367.446 481.430,366.386 480.489 C 359.124 474.044,366.171 465.937,375.677 469.800 C 379.375 471.303,381.623 470.817,380.966 468.658 C 379.756 464.680,369.684 462.512,363.833 464.971 M204.808 471.840 C 221.317 476.742,221.211 500.846,204.658 505.954 C 194.408 509.116,183.658 502.485,181.962 491.954 C 179.871 478.970,192.217 468.100,204.808 471.840 M39.017 472.989 C 44.387 476.136,41.837 482.800,35.263 482.800 C 32.129 482.800,30.400 480.880,30.400 477.400 C 30.400 472.665,34.705 470.462,39.017 472.989 M42.107 493.438 C 48.124 495.561,48.794 502.746,43.240 505.580 C 37.243 508.639,31.351 507.014,30.408 502.041 C 28.940 494.304,34.005 490.579,42.107 493.438 M231.372 566.771 C 224.827 567.817,224.668 568.461,224.630 594.200 C 224.596 617.029,224.517 616.372,227.508 618.119 C 231.612 620.516,234.160 616.851,234.643 607.857 C 235.240 596.747,238.224 596.733,246.608 607.800 C 253.886 617.407,257.466 619.731,260.006 616.501 C 261.585 614.494,260.945 612.651,256.082 605.200 C 250.794 597.098,250.605 595.922,253.808 591.104 C 263.374 576.718,251.269 563.591,231.372 566.771 M164.765 568.382 C 161.677 569.318,161.415 569.772,154.370 586.347 C 145.396 607.460,143.262 613.459,144.016 615.443 C 145.531 619.427,149.074 617.902,153.000 611.578 C 155.634 607.334,156.554 607.000,165.600 607.000 C 175.881 607.000,175.972 607.047,180.522 614.767 C 182.141 617.514,183.567 618.582,185.615 618.582 C 189.477 618.582,190.116 614.787,187.295 608.600 C 186.392 606.620,184.219 601.580,182.465 597.400 C 171.496 571.259,170.928 570.121,168.198 568.799 C 166.405 567.931,166.297 567.918,164.765 568.382 M203.056 569.854 C 201.389 571.520,201.253 572.794,200.766 591.200 C 200.276 609.760,200.389 614.024,201.430 616.095 C 203.249 619.712,207.428 619.779,209.332 616.221 C 210.327 614.363,210.514 577.970,209.553 573.225 C 208.727 569.148,205.458 567.451,203.056 569.854 M242.772 577.386 C 246.278 579.199,247.035 582.659,244.484 585.210 C 240.565 589.129,235.200 586.927,235.200 581.400 C 235.200 577.694,239.233 575.556,242.772 577.386 M167.406 584.876 C 170.496 587.307,172.119 594.559,170.083 596.838 C 168.226 598.916,163.374 598.916,161.518 596.838 C 158.163 593.084,163.655 581.926,167.406 584.876 " stroke="none" fill="#d9c9c1" fill-rule="evenodd"></path><path id="path2" d="M165.200 0.195 C 165.200 0.645,166.618 2.000,167.089 2.000 C 167.370 2.000,167.600 1.550,167.600 1.000 C 167.600 0.156,167.413 0.000,166.400 0.000 C 165.740 0.000,165.200 0.088,165.200 0.195 M189.940 0.934 C 189.226 1.919,189.584 3.200,190.573 3.200 C 190.867 3.200,191.196 3.541,191.305 3.958 C 191.596 5.070,193.838 5.470,194.817 4.584 C 195.237 4.204,195.470 3.712,195.333 3.492 C 195.085 3.091,197.401 0.800,198.054 0.800 C 198.244 0.800,198.400 0.620,198.400 0.400 C 198.400 -0.538,190.654 -0.049,189.940 0.934 M238.570 2.429 C 238.713 3.765,239.048 5.250,239.315 5.729 C 240.097 7.134,241.706 8.800,242.280 8.800 C 242.572 8.800,243.123 8.964,243.505 9.165 C 243.887 9.366,245.425 9.908,246.923 10.370 C 248.420 10.832,250.578 11.837,251.717 12.605 C 256.523 15.841,259.759 12.133,257.960 5.452 C 257.716 4.545,257.459 3.505,257.389 3.141 C 257.318 2.776,256.973 1.921,256.620 1.239 L 255.979 -0.000 247.145 -0.000 L 238.311 0.000 238.570 2.429 M269.200 0.925 C 269.200 3.110,272.160 4.640,273.600 3.200 C 274.040 2.760,274.569 2.400,274.776 2.400 C 275.382 2.400,275.671 1.655,275.399 0.796 C 274.981 -0.522,269.200 -0.402,269.200 0.925 M281.202 6.500 C 281.201 6.665,280.862 6.800,280.449 6.800 C 278.457 6.800,278.011 9.263,279.761 10.598 C 281.922 12.246,284.076 11.761,286.936 8.983 C 288.730 7.241,288.747 6.975,287.100 6.437 C 285.676 5.972,281.204 6.019,281.202 6.500 M282.038 30.562 C 278.476 34.169,276.688 34.331,271.869 31.485 L 269.138 29.872 263.491 30.487 C 252.873 31.643,253.265 35.187,265.169 45.693 C 278.079 57.087,278.271 57.633,270.688 61.435 C 268.680 62.441,265.558 64.139,263.749 65.207 C 260.148 67.334,258.860 67.777,254.462 68.402 C 248.153 69.298,246.030 72.353,247.745 78.067 C 248.097 79.240,248.675 81.370,249.029 82.800 C 249.744 85.686,252.429 89.724,254.991 91.766 C 255.796 92.407,257.430 94.229,258.623 95.814 C 261.598 99.767,263.589 101.742,265.221 102.359 C 269.526 103.988,270.492 104.464,271.700 105.556 C 272.768 106.521,273.277 108.800,272.425 108.800 C 272.218 108.800,271.453 109.357,270.725 110.038 C 269.996 110.718,268.230 111.829,266.800 112.506 C 265.370 113.183,263.716 114.178,263.126 114.719 C 259.199 118.308,253.167 119.620,248.800 117.835 C 245.531 116.499,241.888 116.561,238.200 118.016 C 232.915 120.101,231.722 120.254,208.600 121.799 C 203.980 122.108,197.140 122.839,193.400 123.425 C 185.857 124.605,175.506 124.654,166.295 123.552 C 161.135 122.935,159.423 123.264,155.800 125.574 C 154.480 126.416,152.112 127.769,150.537 128.582 C 144.004 131.955,136.933 139.644,137.609 142.640 C 139.108 149.285,146.495 147.997,155.505 139.521 C 159.948 135.340,161.628 134.501,167.800 133.382 C 172.193 132.585,177.092 132.653,185.265 133.624 C 193.605 134.616,203.627 134.785,210.200 134.044 C 225.918 132.274,229.550 134.357,230.350 145.600 C 230.770 151.501,231.071 152.286,233.475 153.738 C 237.844 156.377,240.095 156.767,249.600 156.526 C 260.030 156.262,264.377 156.686,268.000 158.320 C 270.148 159.289,271.315 159.531,274.711 159.709 C 284.770 160.239,287.336 164.753,283.111 174.491 C 280.451 180.623,277.714 182.376,267.317 184.605 C 263.166 185.495,261.863 186.291,260.864 188.548 C 260.182 190.090,259.938 190.312,259.135 190.120 C 257.885 189.822,245.304 185.190,239.800 183.000 C 233.724 180.584,223.264 178.493,220.794 179.202 C 217.328 180.196,215.801 186.489,217.986 190.773 C 219.050 192.859,218.963 196.326,217.714 201.600 C 216.832 205.322,216.712 205.621,214.354 210.000 C 209.439 219.126,215.676 227.934,233.249 236.687 C 241.857 240.975,243.541 241.670,252.000 244.423 C 256.070 245.748,261.389 247.814,263.820 249.016 C 268.770 251.462,269.915 251.629,273.498 250.429 C 278.005 248.921,280.943 249.030,284.692 250.845 C 286.831 251.880,294.245 259.284,296.464 262.600 C 297.347 263.920,299.034 265.860,300.212 266.912 C 301.391 267.963,302.927 269.824,303.627 271.047 C 308.399 279.387,310.527 278.247,311.201 266.989 C 311.940 254.624,311.248 253.703,297.730 249.061 C 286.568 245.228,284.010 243.402,281.964 237.800 C 281.482 236.480,280.224 233.589,279.168 231.375 C 278.112 229.162,276.863 226.375,276.393 225.182 C 275.923 223.990,275.125 222.110,274.620 221.005 C 274.114 219.901,272.888 216.928,271.895 214.398 C 270.902 211.869,269.373 208.270,268.498 206.400 C 267.622 204.530,266.784 202.460,266.634 201.800 C 266.484 201.140,266.268 200.285,266.154 199.900 C 265.710 198.406,267.386 199.274,269.808 201.793 C 273.288 205.413,276.377 210.735,279.081 217.773 C 282.720 227.244,285.036 228.409,291.839 224.193 C 298.770 219.897,301.275 215.951,300.563 210.449 C 299.228 200.128,302.254 187.090,307.704 179.688 C 310.114 176.413,310.709 174.441,311.168 168.200 C 311.702 160.938,311.426 159.689,308.255 155.000 C 306.332 152.156,305.600 149.632,305.600 145.844 C 305.600 143.818,305.420 142.865,304.938 142.331 C 304.322 141.651,304.322 141.600,304.938 141.600 C 305.302 141.600,305.600 141.330,305.600 141.000 C 305.600 140.670,305.850 140.400,306.156 140.400 C 307.105 140.400,312.153 137.729,313.075 136.740 C 315.509 134.126,316.591 130.558,316.636 125.000 C 316.659 122.140,316.820 117.818,316.994 115.395 C 317.274 111.511,317.204 110.542,316.406 107.195 C 314.886 100.823,314.625 94.341,315.753 90.938 C 318.894 81.456,316.930 71.200,311.972 71.200 C 310.631 71.200,305.857 72.920,305.323 73.596 C 304.929 74.096,304.722 74.112,304.123 73.688 C 303.726 73.407,303.106 73.076,302.746 72.954 C 301.594 72.561,301.339 63.656,302.459 62.964 C 302.646 62.848,302.800 61.981,302.800 61.038 C 302.800 58.366,303.763 56.800,305.406 56.800 C 306.147 56.800,306.864 56.620,307.000 56.400 C 307.136 56.180,307.923 56.000,308.749 56.000 C 312.400 56.000,313.406 53.099,312.802 44.318 C 312.005 32.717,310.433 30.132,304.825 31.195 C 301.793 31.770,298.445 31.697,296.164 31.004 C 295.084 30.677,293.300 30.405,292.200 30.400 C 290.923 30.395,289.427 30.032,288.060 29.396 C 285.025 27.983,284.480 28.089,282.038 30.562 M284.354 122.422 C 285.319 122.960,286.416 123.583,286.792 123.806 C 287.168 124.029,289.008 125.739,290.880 127.606 C 292.752 129.473,295.669 132.317,297.362 133.926 C 300.679 137.079,302.303 139.718,301.000 139.836 C 300.780 139.856,299.970 140.145,299.200 140.478 C 296.223 141.766,289.098 140.345,284.881 137.623 C 283.627 136.813,280.440 135.083,277.800 133.779 C 266.243 128.070,262.998 124.756,267.600 123.364 C 268.590 123.064,270.570 122.455,272.000 122.010 C 275.779 120.835,281.872 121.038,284.354 122.422 M326.892 259.868 C 323.523 261.223,324.817 282.915,329.004 295.290 C 330.013 298.274,333.022 302.000,334.423 302.000 C 334.782 302.000,335.402 302.360,335.800 302.800 C 336.198 303.240,336.744 303.600,337.013 303.600 C 337.282 303.600,337.742 303.889,338.035 304.242 C 338.327 304.595,338.935 305.052,339.384 305.259 C 339.833 305.465,340.632 305.882,341.160 306.184 C 342.436 306.914,350.400 314.868,350.400 315.412 C 350.400 315.934,353.286 318.799,353.817 318.803 C 354.028 318.805,354.863 319.435,355.673 320.203 C 356.484 320.972,357.388 321.600,357.683 321.600 C 357.978 321.600,359.650 323.040,361.400 324.800 C 363.150 326.560,364.783 328.000,365.029 328.000 C 365.275 328.000,365.802 328.360,366.200 328.800 C 366.601 329.243,367.432 329.600,368.062 329.600 C 368.688 329.600,369.200 329.780,369.200 330.000 C 369.200 330.220,369.538 330.400,369.951 330.400 C 370.364 330.400,370.926 330.670,371.200 331.000 C 371.474 331.330,372.115 331.600,372.625 331.600 C 373.135 331.600,373.664 331.780,373.800 332.000 C 373.942 332.230,376.063 332.400,378.800 332.400 C 381.537 332.400,383.658 332.570,383.800 332.800 C 383.936 333.020,384.465 333.200,384.975 333.200 C 385.485 333.200,386.126 333.470,386.400 333.800 C 386.674 334.130,387.153 334.400,387.466 334.400 C 387.778 334.400,388.405 334.746,388.859 335.169 C 389.313 335.592,390.008 335.876,390.403 335.799 C 390.860 335.711,391.200 335.957,391.334 336.471 C 391.451 336.916,391.738 337.162,391.973 337.017 C 392.208 336.872,392.400 336.954,392.400 337.200 C 392.400 337.446,392.581 337.535,392.803 337.398 C 393.024 337.261,393.312 337.427,393.443 337.767 C 393.624 338.240,393.859 338.289,394.440 337.979 C 394.971 337.694,395.200 337.703,395.200 338.010 C 395.200 338.250,395.348 338.356,395.530 338.243 C 395.711 338.131,395.846 338.436,395.830 338.920 C 395.791 340.062,398.181 340.375,399.400 339.388 C 399.840 339.032,399.988 338.847,399.729 338.976 C 398.963 339.359,398.597 337.546,399.354 337.122 C 399.937 336.795,400.000 334.405,400.000 312.443 L 400.000 288.127 398.454 287.663 C 397.603 287.408,396.276 287.200,395.504 287.200 C 393.720 287.200,392.138 286.622,386.200 283.802 C 378.936 280.352,374.630 278.597,370.000 277.201 C 359.565 274.053,356.381 272.879,351.266 270.294 C 348.260 268.775,344.275 266.896,342.411 266.120 C 338.655 264.555,335.959 263.263,331.867 261.067 C 329.290 259.684,328.076 259.391,326.892 259.868 M398.000 341.372 C 398.000 341.781,398.361 342.000,399.033 342.000 C 400.286 342.000,400.149 341.061,398.869 340.872 C 398.292 340.787,398.000 340.955,398.000 341.372 M170.582 538.582 C 168.469 540.695,169.739 545.600,172.400 545.600 C 175.595 545.600,176.195 538.682,173.073 537.845 C 171.752 537.491,171.639 537.524,170.582 538.582 M91.313 538.900 C 89.783 540.566,89.657 544.016,91.127 543.987 C 92.928 543.951,93.875 542.134,93.673 539.100 C 93.581 537.720,92.482 537.627,91.313 538.900 M230.497 538.900 C 228.759 541.070,227.962 544.146,229.033 544.557 C 230.975 545.302,234.000 544.282,234.001 542.881 C 234.004 540.279,231.590 537.536,230.497 538.900 M304.075 539.616 C 302.921 540.691,302.971 541.517,304.275 542.878 C 306.148 544.833,308.160 544.068,308.160 541.400 C 308.160 538.892,305.908 537.908,304.075 539.616 M194.077 539.831 C 190.635 542.242,191.360 545.400,195.291 545.116 C 198.105 544.912,198.242 544.784,197.673 542.886 C 196.964 540.520,195.215 539.034,194.077 539.831 M109.451 540.900 C 107.278 543.756,107.719 545.453,110.523 545.032 C 113.204 544.630,113.547 543.988,112.368 541.584 C 111.228 539.261,110.779 539.156,109.451 540.900 " stroke="none" fill="#3b282e" fill-rule="evenodd"></path><path id="path3" d="M157.800 123.761 C 152.908 125.312,142.575 132.393,130.600 142.401 C 127.520 144.975,123.290 148.127,121.200 149.405 C 111.620 155.265,109.275 163.100,114.615 171.402 C 116.847 174.870,117.476 176.790,118.021 181.800 C 119.216 192.770,120.976 199.174,123.574 202.000 C 128.511 207.371,126.089 215.808,114.447 233.800 C 110.756 239.504,107.886 241.857,99.908 245.721 C 91.039 250.016,90.228 250.939,92.040 254.682 C 93.095 256.861,95.432 258.503,99.698 260.059 C 106.713 262.620,109.741 262.050,112.589 257.633 C 116.960 250.851,121.390 251.461,124.664 259.295 C 127.106 265.139,130.030 267.280,135.566 267.280 C 139.658 267.280,141.192 265.955,143.221 260.667 C 145.526 254.662,147.124 252.800,149.974 252.800 C 153.698 252.800,154.784 255.787,153.173 261.601 C 151.734 266.793,152.977 268.898,157.785 269.413 C 164.335 270.115,166.383 268.069,166.407 260.800 C 166.424 255.437,168.301 252.400,171.600 252.400 C 175.067 252.400,176.400 254.782,176.856 261.793 C 177.368 269.653,178.006 270.189,187.653 270.856 C 201.605 271.819,202.540 271.299,203.184 262.204 C 203.590 256.475,204.143 255.081,206.518 253.800 L 208.000 253.000 209.500 253.800 C 211.787 255.020,212.436 256.769,212.883 262.928 C 213.426 270.402,214.344 271.941,218.641 272.585 C 225.099 273.554,227.307 271.103,227.817 262.400 C 228.364 253.060,229.818 251.975,241.720 252.026 C 255.649 252.084,258.827 252.672,259.787 255.368 C 260.970 258.691,258.155 259.959,248.720 260.351 C 239.191 260.748,237.600 261.559,237.600 266.018 C 237.600 270.527,239.413 271.318,249.557 271.235 C 270.627 271.063,273.893 269.768,274.775 261.236 C 275.805 251.281,280.818 250.147,288.244 258.191 C 291.946 262.201,293.498 263.419,296.331 264.536 L 298.061 265.218 297.139 263.577 C 295.984 261.522,290.331 255.278,287.321 252.734 C 283.407 249.423,278.620 248.574,273.698 250.315 C 269.941 251.644,268.848 251.500,263.820 249.016 C 261.389 247.814,256.070 245.748,252.000 244.423 C 243.541 241.670,241.857 240.975,233.249 236.687 C 223.428 231.795,220.886 229.962,216.965 224.941 C 211.836 218.372,211.348 215.581,214.354 210.000 C 216.712 205.621,216.832 205.322,217.714 201.600 C 218.963 196.326,219.050 192.859,217.986 190.773 C 215.801 186.489,217.328 180.196,220.794 179.202 C 223.264 178.493,233.724 180.584,239.800 183.000 C 245.304 185.190,257.885 189.822,259.135 190.120 C 259.938 190.312,260.182 190.090,260.864 188.548 C 261.863 186.291,263.166 185.495,267.317 184.605 C 277.714 182.376,280.451 180.623,283.111 174.491 C 287.336 164.753,284.770 160.239,274.711 159.709 C 271.315 159.531,270.148 159.289,268.000 158.320 C 264.377 156.686,260.030 156.262,249.600 156.526 C 240.095 156.767,237.844 156.377,233.475 153.738 C 231.071 152.286,230.770 151.501,230.350 145.600 C 229.550 134.357,225.918 132.274,210.200 134.044 C 203.627 134.785,193.605 134.616,185.265 133.624 C 177.092 132.653,172.193 132.585,167.800 133.382 C 161.628 134.501,159.948 135.340,155.505 139.521 C 146.495 147.997,139.108 149.285,137.609 142.640 C 136.911 139.547,144.014 131.943,150.950 128.357 C 152.737 127.433,154.967 126.154,155.905 125.516 C 156.843 124.877,158.283 124.108,159.105 123.806 C 160.986 123.115,159.950 123.079,157.800 123.761 M264.286 158.235 C 265.339 158.584,266.869 159.398,267.686 160.043 C 269.699 161.631,270.647 161.924,272.568 161.551 C 281.805 159.760,285.742 165.152,281.475 173.751 C 278.622 179.500,274.615 181.753,265.086 182.965 C 262.619 183.279,259.537 183.910,258.237 184.368 C 254.033 185.849,249.337 184.803,241.400 180.620 C 237.215 178.414,236.087 178.005,232.600 177.425 C 230.400 177.060,227.341 176.389,225.803 175.935 C 220.518 174.373,218.523 175.065,213.292 180.274 C 209.916 183.635,208.652 184.524,205.648 185.647 C 203.533 186.437,202.841 186.944,201.601 188.612 C 194.854 197.687,187.619 198.873,180.776 192.026 C 177.723 188.971,177.244 187.241,178.114 182.403 C 179.450 174.963,177.528 173.970,165.663 175.970 C 152.643 178.164,145.799 181.067,136.797 188.213 C 132.124 191.923,131.200 192.141,131.200 189.535 C 131.200 176.745,148.342 163.857,167.847 161.983 C 170.073 161.769,172.953 161.221,174.247 160.766 C 181.855 158.088,197.431 160.035,207.184 164.883 C 214.756 168.648,215.135 168.626,223.400 163.980 C 225.964 162.539,228.456 162.240,232.391 162.901 C 235.325 163.394,238.818 162.587,246.200 159.712 C 251.828 157.520,260.096 156.845,264.286 158.235 M262.503 165.276 C 258.330 165.967,256.414 168.166,258.875 169.439 C 262.484 171.305,270.229 167.780,267.649 165.445 C 266.970 164.830,265.490 164.781,262.503 165.276 M199.384 182.425 C 199.240 182.659,199.442 183.205,199.834 183.638 C 200.667 184.558,201.912 183.790,201.467 182.631 C 201.194 181.918,199.784 181.779,199.384 182.425 M266.154 199.900 C 266.268 200.285,266.484 201.140,266.634 201.800 C 266.784 202.460,267.622 204.530,268.498 206.400 C 269.373 208.270,270.902 211.869,271.895 214.398 C 272.888 216.928,274.106 219.898,274.601 220.998 C 275.096 222.099,276.258 224.800,277.183 227.000 C 278.108 229.200,279.184 231.551,279.574 232.224 C 279.964 232.897,280.865 234.958,281.577 236.804 C 283.564 241.955,287.254 246.072,289.800 245.978 C 290.020 245.969,289.381 245.536,288.379 245.014 C 281.911 241.644,280.853 233.159,286.271 228.113 L 288.111 226.400 286.616 226.400 C 283.140 226.400,281.812 224.879,279.081 217.773 C 276.377 210.735,273.288 205.413,269.808 201.793 C 267.386 199.274,265.710 198.406,266.154 199.900 M300.210 202.900 C 300.063 204.952,300.117 207.313,300.332 208.200 C 300.647 209.502,300.727 208.811,300.760 204.500 C 300.807 198.312,300.585 197.665,300.210 202.900 M292.000 246.966 C 292.550 247.260,293.450 247.612,294.000 247.749 C 294.550 247.886,294.280 247.652,293.400 247.229 C 291.590 246.358,290.468 246.148,292.000 246.966 " stroke="none" fill="#a0532e" fill-rule="evenodd"></path></g></svg>