<?xml version="1.0" encoding="UTF-8" standalone="no"?>
<!DOCTYPE svg PUBLIC "-//W3C//DTD SVG 20010904//EN" "http://www.w3.org/TR/2001/REC-SVG-20010904/DTD/svg10.dtd">
<svg version="1.0" xmlns="http://www.w3.org/2000/svg" width="183.000000pt" height="275.000000pt" viewBox="0 0 183.000000 275.000000" preserveAspectRatio="xMidYMid meet">
<metadata>
Created by potrace 1.10, written by Peter Selinger 2001-2011
</metadata>
<g transform="translate(0.000000,275.000000) scale(0.050000,-0.050000)" fill="#000000" stroke="none">
<path d="M2624 5410 c-13 -50 -23 -111 -23 -135 1 -25 13 -6 27 45 13 50 31 110 40 135 8 25 7 45 -3 45 -9 0 -28 -41 -41 -90z"/>
<path d="M2814 5486 c-33 -55 -72 -236 -54 -254 13 -13 20 -4 20 29 0 27 14 88 31 137 27 78 29 131 3 88z"/>
<path d="M2990 5460 c-7 -22 -21 -35 -32 -29 -10 7 -17 5 -15 -5 2 -9 -6 -52 -19 -96 -13 -44 -24 -109 -24 -145 0 -36 -10 -65 -21 -65 -13 0 -16 -18 -8 -45 19 -62 28 -68 50 -34 12 20 18 21 19 4 0 -41 40 -28 59 20 l18 45 2 -45 c1 -56 41 -60 41 -5 0 22 9 40 20 40 11 0 20 -20 20 -45 1 -35 5 -39 19 -16 10 16 14 36 9 45 -6 9 4 16 22 16 23 0 29 -11 21 -38 -8 -24 -1 -42 20 -50 43 -16 69 2 69 49 0 41 39 52 71 20 13 -13 44 2 89 42 39 34 60 56 47 49 -15 -8 -28 16 -37 68 -10 59 -23 81 -52 82 -21 1 -58 3 -82 5 -52 2 -83 -82 -66 -182 7 -39 3 -65 -9 -65 -12 0 -21 9 -21 20 0 11 -18 20 -40 20 -35 0 -40 13 -39 95 2 75 6 87 21 55 15 -33 17 -31 8 15 -6 30 -2 55 8 55 11 0 25 18 32 40 33 103 289 16 331 -112 27 -82 9 -194 -24 -147 -15 22 -17 19 -8 -12 13 -46 -25 -73 -149 -106 -66 -18 -67 -20 -14 -21 57 -2 201 61 224 98 23 38 32 180 11 180 -12 0 -21 17 -21 38 0 20 -21 51 -47 68 -26 17 -60 43 -75 58 -112 109 -318 -35 -318 -222 0 -77 -3 -82 -59 -82 -38 0 -61 -12 -67 -35 -9 -33 -9 -33 -12 0 -1 19 -11 35 -22 35 -55 0 0 242 72 313 56 56 59 67 19 67 -15 0 -34 -18 -41 -40z m397 -202 c44 -51 30 -149 -19 -130 -19 7 -25 3 -16 -12 10 -15 3 -18 -20 -9 -20 7 -42 13 -51 13 -27 0 -39 81 -20 132 22 59 78 62 126 6z"/>
<path d="M3591 5439 c50 -52 60 -56 66 -27 8 38 -46 88 -95 88 -20 0 -11 -20 29 -61z"/>
<path d="M2420 5131 c-41 -97 -40 -139 4 -95 31 31 90 31 102 -1 21 -59 32 5 11 67 -43 130 -70 137 -117 29z"/>
<path d="M2595 5208 c-23 -23 -18 -212 5 -198 11 7 20 37 21 66 l0 54 49 -59 c57 -70 66 -65 74 40 6 83 -29 123 -41 47 -6 -43 -8 -43 -50 10 -24 30 -50 48 -58 40z"/>
<path d="M360 5111 c0 -50 9 -91 20 -91 11 0 20 13 20 29 0 15 20 31 45 35 78 11 62 104 -20 112 -65 7 -65 6 -65 -85z"/>
<path d="M560 5176 c0 -14 -14 -52 -30 -84 -33 -62 -24 -94 14 -56 29 29 96 32 96 4 0 -11 13 -20 29 -20 24 0 22 15 -9 85 -36 81 -100 127 -100 71z"/>
<path d="M700 5134 c0 -73 30 -114 83 -114 43 0 77 58 77 129 0 74 -36 63 -44 -14 -4 -42 -17 -65 -36 -65 -19 0 -32 23 -36 65 -8 85 -44 84 -44 -1z"/>
<path d="M892 5155 c2 -25 5 -65 6 -90 2 -46 122 -71 122 -25 0 11 -18 20 -40 20 -39 0 -49 26 -41 105 2 19 -9 35 -24 35 -17 0 -26 -17 -23 -45z"/>
<path d="M1122 5156 c-25 -65 18 -126 89 -126 31 0 59 11 64 24 5 15 -13 22 -49 20 -45 -3 -57 5 -63 44 -6 44 -1 47 57 35 46 -9 61 -6 55 12 -16 49 -134 42 -153 -9z"/>
<path d="M1333 5116 c-18 -46 -27 -88 -20 -95 7 -6 16 0 21 14 12 32 71 32 102 1 40 -40 45 -7 11 80 -18 46 -44 84 -57 84 -13 0 -39 -38 -57 -84z"/>
<path d="M1500 5110 c0 -90 88 -137 130 -70 7 11 -10 20 -39 20 -45 0 -51 8 -51 70 0 39 -9 70 -20 70 -11 0 -20 -40 -20 -90z"/>
<path d="M1660 5110 l0 -90 90 3 c50 2 90 11 90 20 0 25 69 20 96 -7 41 -41 47 -4 13 82 -41 100 -78 105 -109 12 -19 -59 -32 -70 -82 -70 -53 0 -58 6 -58 70 0 39 -9 70 -20 70 -11 0 -20 -41 -20 -90z"/>
<path d="M2003 5157 c-34 -91 11 -139 122 -132 29 1 35 17 30 83 -7 101 -120 137 -152 49z m117 -17 c0 -11 -11 -21 -25 -22 -20 -1 -20 -3 0 -11 38 -16 30 -47 -13 -47 -39 0 -70 50 -51 82 15 24 89 23 89 -2z"/>
<path d="M2200 5110 c0 -49 9 -90 20 -90 11 0 20 18 20 40 0 27 13 40 40 40 27 0 40 -13 40 -40 0 -22 9 -40 20 -40 11 0 20 41 20 90 0 50 -9 90 -20 90 -11 0 -20 -13 -20 -30 0 -17 -18 -30 -40 -30 -22 0 -40 13 -40 30 0 17 -9 30 -20 30 -11 0 -20 -40 -20 -90z"/>
<path d="M3580 4921 c-38 -33 -102 -64 -140 -71 -96 -16 -148 -49 -80 -50 73 0 300 112 300 149 0 39 3 40 -80 -28z"/>
<path d="M480 4815 c0 -76 -33 -118 -60 -75 -9 14 -14 47 -11 73 4 30 -5 47 -23 47 -42 0 -26 -140 19 -168 74 -46 161 110 96 175 -15 15 -21 0 -21 -52z"/>
<path d="M1109 4854 c-31 -81 -1 -164 59 -164 32 0 62 11 67 24 5 16 -10 21 -44 15 -28 -6 -51 -1 -51 11 0 11 18 20 40 20 22 0 40 9 40 20 0 11 -18 20 -40 20 -22 0 -40 8 -40 17 0 10 23 15 50 12 28 -3 50 3 50 13 0 10 -13 18 -28 18 -16 0 -43 5 -60 12 -19 7 -36 0 -43 -18z"/>
<path d="M2135 4865 c-103 -23 -42 -187 67 -179 72 5 88 103 18 109 -49 3 -53 -29 -5 -40 33 -8 33 -10 -2 -25 -59 -25 -112 39 -68 83 26 27 39 29 62 9 20 -16 34 -17 42 -3 12 18 -1 28 -69 51 -5 1 -26 -1 -45 -5z"/>
<path d="M2345 4858 c-67 -25 -63 -131 7 -162 71 -33 118 0 118 84 0 75 -50 106 -125 78z m85 -78 c0 -31 -13 -52 -35 -56 -40 -8 -65 40 -47 87 19 50 82 26 82 -31z"/>
<path d="M2755 4864 c-108 -9 -110 -119 -5 -215 39 -36 70 -60 70 -54 0 6 16 -3 35 -19 151 -132 536 -173 784 -84 40 14 -11 48 -69 46 -32 -2 -30 -5 10 -16 55 -16 -150 -62 -276 -62 -206 0 -641 210 -507 245 26 7 41 32 47 84 10 84 10 84 -89 75z m35 -84 c0 -31 -13 -52 -35 -56 -27 -5 -35 7 -35 56 0 49 8 61 35 56 22 -4 35 -25 35 -56z"/>
<path d="M2915 4858 c-69 -40 -33 -178 46 -178 87 0 126 119 55 169 -52 36 -55 36 -101 9z m94 -56 c19 -31 -12 -84 -47 -78 -50 10 -54 96 -5 96 23 0 46 -8 52 -18z"/>
<path d="M560 4781 c0 -43 9 -84 20 -91 11 -7 20 12 21 44 l0 56 41 -55 c23 -30 50 -50 60 -44 25 15 23 169 -2 169 -11 0 -20 -20 -21 -45 l0 -45 -38 45 c-55 66 -81 55 -81 -34z"/>
<path d="M761 4815 c-35 -92 80 -176 141 -103 25 32 23 33 -25 22 -35 -9 -61 -4 -77 16 -38 45 10 93 75 77 36 -9 47 -6 37 10 -27 43 -132 27 -151 -22z"/>
<path d="M960 4770 c0 -87 2 -90 60 -90 68 0 81 30 20 46 -29 7 -40 27 -40 72 0 34 -9 62 -20 62 -11 0 -20 -40 -20 -90z"/>
<path d="M1340 4770 c0 -106 0 -106 82 -32 77 71 68 122 -21 122 -59 0 -61 -3 -61 -90z"/>
<path d="M1524 4805 c-11 -30 -27 -73 -35 -95 -12 -33 -10 -36 12 -15 32 30 99 33 99 5 0 -11 13 -20 29 -20 25 0 24 13 -2 90 -35 102 -74 116 -103 35z"/>
<path d="M1680 4794 c0 -73 30 -114 84 -114 33 0 39 14 65 145 4 20 -5 35 -21 35 -19 0 -28 -23 -28 -72 0 -90 -47 -83 -56 9 -9 83 -44 81 -44 -3z"/>
<path d="M1865 4775 c5 -80 9 -85 70 -91 72 -7 91 30 20 40 -37 5 -44 18 -42 71 2 43 -6 65 -25 65 -20 0 -26 -24 -23 -85z"/>
<path d="M2520 4781 c0 -43 9 -84 20 -91 11 -7 20 8 21 34 l0 46 27 -48 c17 -31 31 -39 40 -25 8 13 9 31 3 42 -6 10 -3 23 7 30 41 25 -2 91 -60 91 -54 0 -58 -5 -58 -79z"/>
<path d="M3098 4810 c-2 -27 -4 -66 -5 -85 -2 -21 13 -36 37 -39 22 -3 29 0 15 6 -14 6 -25 35 -25 65 l1 53 39 -50 c22 -27 39 -62 40 -76 0 -37 325 -28 402 10 120 60 79 78 -57 26 -58 -22 -149 -40 -202 -40 l-96 0 6 90 c4 68 -2 90 -24 90 -17 0 -29 -19 -29 -44 l0 -45 -31 45 c-41 58 -68 56 -71 -6z"/>
<path d="M2195 4345 c13 -34 325 -31 325 3 0 15 -56 22 -167 22 -128 0 -166 -6 -158 -25z"/>
<path d="M2560 4363 c-63 -21 2 -39 155 -42 265 -5 278 -3 278 32 0 18 -7 20 -23 7 -13 -11 -29 -14 -36 -7 -13 13 -339 22 -374 10z"/>
<path d="M360 4300 c0 -57 4 -60 80 -60 l80 0 0 -220 0 -220 71 0 71 0 -4 215 -3 215 82 6 c77 6 83 10 83 65 l0 59 -230 0 -230 0 0 -60z"/>
<path d="M920 4080 l0 -280 72 0 73 0 -9 111 c-8 93 -4 114 27 131 25 13 37 13 37 -1 0 -12 32 -21 70 -21 76 0 78 -4 71 -135 l-5 -85 72 0 72 0 0 280 0 280 -70 0 -70 0 0 -105 0 -105 -100 -5 -100 -5 0 110 0 110 -70 0 -70 0 0 -280z"/>
<path d="M1520 4080 l0 -280 200 0 200 0 0 68 0 67 -125 -9 c-72 -6 -140 -23 -160 -41 -19 -17 -41 -26 -47 -20 -7 7 5 23 26 36 28 17 36 40 29 84 l-8 61 102 -10 c102 -10 103 -10 103 47 0 74 -187 90 -210 18 -10 -33 -19 -36 -49 -17 -38 24 -13 76 38 76 11 0 21 18 21 40 0 36 13 40 140 40 l140 0 0 60 0 60 -200 0 -200 0 0 -280z"/>
<path d="M2200 4268 c0 -26 96 -25 138 1 10 6 23 2 29 -9 5 -12 8 -10 5 4 -7 35 -172 38 -172 4z"/>
<path d="M2408 4282 c-21 -21 -3 -32 52 -33 33 0 60 9 60 20 0 20 -94 30 -112 13z"/>
<path d="M2540 4269 c0 -18 129 -25 205 -12 60 11 -6 35 -95 34 -66 0 -110 -9 -110 -22z"/>
<path d="M2788 4282 c-24 -24 2 -33 102 -35 80 -3 110 4 110 24 0 25 -188 35 -212 11z"/>
<path d="M2200 4199 c0 -9 59 -16 130 -17 72 0 130 7 130 16 0 9 -58 17 -130 16 -71 0 -130 -7 -130 -15z"/>
<path d="M2480 4200 c0 -11 28 -20 61 -20 36 0 56 8 49 20 -7 11 -34 20 -61 20 -27 0 -49 -9 -49 -20z"/>
<path d="M2620 4200 c0 -11 36 -20 80 -20 104 0 104 29 0 35 -44 2 -80 -5 -80 -15z"/>
<path d="M2200 4111 c0 -34 148 -46 168 -14 18 29 -10 41 -56 24 -25 -10 -59 -9 -78 2 -26 14 -34 11 -34 -12z"/>
<path d="M2562 4119 c-2 -26 27 -32 163 -35 91 -2 179 -5 195 -7 56 -6 100 3 100 20 0 19 -30 23 -175 24 -58 1 -115 -5 -125 -11 -11 -7 -20 -3 -20 7 0 13 -22 14 -59 3 -40 -11 -62 -9 -68 7 -6 13 -11 10 -11 -8z"/>
<path d="M2409 4101 c14 -23 131 -21 131 2 0 9 -32 17 -71 17 -39 0 -66 -8 -60 -19z"/>
<path d="M2200 4027 c0 -14 41 -23 110 -24 104 -1 161 34 65 40 -132 9 -175 5 -175 -16z"/>
<path d="M2542 4025 c1 -22 5 -26 12 -9 7 19 17 20 37 3 15 -12 38 -16 52 -7 17 11 13 19 -14 30 -64 25 -89 20 -87 -17z"/>
<path d="M2200 3956 c0 -19 39 -26 155 -25 209 2 216 35 10 44 -127 6 -165 2 -165 -19z"/>
<path d="M2560 3961 c0 -20 98 -40 175 -35 25 1 45 9 45 18 0 8 16 10 35 3 30 -9 30 -7 5 11 -37 27 -260 29 -260 3z"/>
<path d="M400 3220 l0 -280 151 0 c249 0 369 93 369 284 0 169 -121 261 -353 270 l-167 7 0 -281z m344 105 c113 -98 17 -265 -153 -265 l-68 0 7 155 c3 85 7 157 8 160 6 17 177 -25 206 -50z"/>
<path d="M1020 3220 l0 -280 70 0 70 0 -10 100 c-13 138 67 112 131 -42 20 -50 35 -58 101 -58 96 0 96 10 7 127 -45 59 -61 93 -43 93 49 0 94 71 94 147 0 137 -86 183 -355 192 l-65 2 0 -281z m311 153 c-21 -15 -31 -37 -23 -50 20 -31 -23 -103 -61 -103 -18 0 -45 -16 -60 -35 -23 -30 -25 -30 -16 -2 7 18 2 39 -10 46 -11 7 -21 46 -21 85 l0 71 80 -10 c44 -6 85 -3 91 7 6 10 22 18 34 18 12 0 6 -12 -14 -27z"/>
<path d="M1560 3219 l0 -279 200 0 200 0 0 60 0 60 -140 0 -140 0 0 61 c0 36 -8 56 -20 49 -11 -7 -20 -3 -20 9 0 11 14 21 30 21 17 0 30 -9 30 -20 0 -11 41 -20 90 -20 87 0 90 2 90 60 0 59 -2 60 -100 60 -92 0 -100 4 -100 47 0 46 5 48 140 45 l140 -2 0 62 0 61 -200 3 -200 3 0 -280z"/>
<path d="M2193 3355 c-91 -239 -116 -303 -135 -340 -31 -59 -20 -75 50 -75 56 0 70 9 80 50 12 46 22 50 130 50 109 0 119 -4 130 -50 11 -42 25 -50 85 -50 49 0 68 8 62 25 -5 14 -53 140 -106 280 l-96 255 -73 0 c-72 0 -73 -2 -127 -145z m170 -117 c17 -56 29 -72 42 -54 14 20 16 19 10 -4 -6 -21 -37 -31 -102 -33 -68 -2 -89 4 -76 20 10 13 29 57 42 98 29 89 51 82 84 -27z"/>
<path d="M2697 3485 c-1 -8 -3 -134 -5 -280 l-2 -265 66 0 67 0 -6 160 c-3 88 -11 160 -19 160 -20 0 -40 61 -27 82 6 10 44 -45 84 -122 95 -181 212 -176 212 9 0 13 12 24 28 24 22 0 27 -32 21 -156 l-6 -157 65 0 65 0 0 280 0 280 -65 0 c-60 0 -71 -11 -141 -140 -77 -142 -91 -160 -87 -115 7 81 -116 255 -181 255 -36 0 -67 -7 -69 -15z"/>
<path d="M372 2683 c-17 -27 18 -46 89 -51 37 -3 59 5 59 22 0 14 -17 26 -38 26 -21 0 -52 5 -68 11 -17 7 -36 3 -42 -8z"/>
<path d="M540 2665 c0 -33 13 -39 88 -37 49 1 88 7 88 12 -3 37 7 46 23 22 23 -37 301 -46 301 -10 0 16 -44 24 -135 25 -74 0 -148 1 -165 2 -16 1 -57 -2 -90 -6 -33 -4 -71 2 -85 13 -18 14 -25 8 -25 -21z"/>
<path d="M1062 2677 c-2 -36 33 -56 73 -42 41 14 28 51 -14 39 -22 -5 -43 1 -48 13 -6 13 -11 8 -11 -10z"/>
<path d="M1388 2682 c-17 -18 -7 -44 12 -32 11 7 20 5 20 -4 0 -26 167 -16 175 10 5 13 1 25 -8 25 -85 7 -192 7 -199 1z"/>
<path d="M1180 2654 c0 -17 31 -25 90 -25 120 1 120 45 0 48 -60 1 -90 -7 -90 -23z"/>
<path d="M1840 2400 l0 -280 67 0 67 0 -2 280 -2 280 -65 0 -65 0 0 -280z"/>
<path d="M2116 2665 c-3 -8 -3 -134 0 -280 l6 -265 61 0 62 0 -8 189 c-7 155 -4 185 18 167 20 -17 23 -13 14 16 -11 31 -9 33 9 8 11 -16 17 -43 12 -60 -19 -67 179 -310 252 -310 l68 0 3 165 c4 185 -3 194 -71 94 -27 -39 -67 -81 -90 -93 -40 -21 -41 -20 -8 17 53 60 -161 365 -258 366 -35 1 -66 -6 -70 -14z"/>
<path d="M2480 2530 c0 -82 8 -150 19 -150 37 0 107 126 116 212 l10 88 -72 0 -73 0 0 -150z"/>
<path d="M2798 2602 c-214 -214 40 -602 302 -462 25 13 42 13 50 0 7 -11 34 -20 61 -20 48 0 49 4 49 160 l0 160 -130 0 -130 0 0 -60 c0 -56 5 -60 72 -60 55 0 70 -7 61 -29 -6 -15 0 -32 12 -36 17 -6 17 -12 -1 -23 -13 -8 -24 -6 -24 4 0 11 -40 15 -88 9 -160 -18 -249 137 -151 262 49 62 145 72 201 21 46 -42 163 -20 154 28 -27 138 -316 169 -438 46z"/>
<path d="M380 2591 c0 -23 22 -31 89 -31 112 0 137 32 28 37 -44 1 -89 8 -99 14 -10 6 -18 -3 -18 -20z"/>
<path d="M1285 2605 c-47 -16 -25 -45 35 -45 33 0 60 8 60 18 0 21 -61 39 -95 27z"/>
<path d="M1585 2606 c-87 -11 -83 -46 5 -46 49 0 70 9 70 30 0 17 -2 29 -5 27 -3 -2 -34 -7 -70 -11z"/>
<path d="M860 2574 c0 -17 24 -23 80 -17 44 4 80 15 80 25 0 10 -36 18 -80 18 -52 0 -80 -9 -80 -26z"/>
<path d="M1040 2581 c0 -12 45 -21 100 -21 130 0 130 28 0 36 -59 3 -100 -3 -100 -15z"/>
<path d="M435 2524 c-133 -16 -35 -36 179 -37 131 -1 237 -11 241 -21 3 -11 -29 -17 -74 -15 -54 4 -81 -3 -81 -19 0 -21 191 -30 305 -14 51 7 2 36 -55 33 -56 -3 -70 4 -70 33 0 20 -15 37 -35 38 -140 6 -364 7 -410 2z"/>
<path d="M1000 2515 c0 -19 19 -30 50 -30 28 0 50 8 50 18 0 9 -8 17 -18 17 -10 0 -33 5 -50 12 -20 8 -32 1 -32 -17z"/>
<path d="M1154 2506 c11 -28 106 -27 106 1 0 10 11 10 25 -1 34 -26 135 -30 135 -6 0 11 -34 21 -75 23 -41 1 -103 4 -138 5 -42 2 -59 -5 -53 -22z"/>
<path d="M1575 2524 c-72 -15 -31 -39 66 -39 61 0 98 9 94 21 -7 21 -96 31 -160 18z"/>
<path d="M380 2425 c0 -16 -10 -21 -23 -13 -14 9 -18 5 -9 -9 9 -14 27 -17 48 -6 19 9 59 15 89 13 30 -2 55 6 55 19 0 13 -34 23 -80 23 -55 1 -80 -8 -80 -27z"/>
<path d="M571 2433 c13 -33 109 -40 109 -8 0 14 -27 27 -59 29 -40 3 -56 -4 -50 -21z"/>
<path d="M1137 2438 c-32 -20 -32 -20 78 -26 51 -3 85 4 85 17 0 27 -124 33 -163 9z"/>
<path d="M1387 2435 c-12 -19 -15 -18 108 -23 63 -2 105 4 105 17 0 12 9 8 20 -9 17 -26 19 -26 20 3 0 35 -232 46 -253 12z"/>
<path d="M1430 2361 c-22 -8 -83 -12 -136 -10 -60 2 -93 -4 -88 -18 6 -20 294 -34 349 -17 38 12 30 41 -10 35 -19 -3 -44 1 -55 9 -11 9 -38 9 -60 1z"/>
<path d="M380 2333 c0 -18 19 -23 60 -17 69 10 61 44 -11 44 -27 0 -49 -12 -49 -27z"/>
<path d="M520 2343 c0 -10 34 -19 76 -19 42 -1 85 -3 95 -5 46 -9 129 3 129 18 0 9 -67 19 -150 21 -83 2 -150 -4 -150 -15z"/>
<path d="M860 2336 c0 -9 25 -16 55 -15 30 0 102 -2 160 -5 64 -4 105 2 105 15 0 13 -62 21 -160 22 -88 0 -160 -7 -160 -17z"/>
<path d="M471 2284 c-25 -25 -8 -47 34 -43 25 2 50 2 55 0 53 -18 160 -10 168 12 8 19 -9 28 -54 29 -35 1 -93 5 -128 8 -35 3 -69 0 -75 -6z"/>
<path d="M771 2284 c-25 -25 -8 -44 39 -44 28 0 50 8 50 18 0 21 -73 43 -89 26z"/>
<path d="M882 2267 c1 -25 5 -28 12 -10 7 17 16 20 23 7 20 -31 168 -38 178 -9 6 17 -17 25 -72 25 -44 0 -94 5 -111 12 -22 9 -32 1 -30 -25z"/>
<path d="M1127 2276 c-17 -28 -4 -33 98 -39 88 -4 135 10 112 33 -20 19 -198 24 -210 6z"/>
<path d="M420 2028 c0 -14 29 -24 70 -24 39 0 70 7 70 16 0 9 -31 19 -70 24 -46 5 -70 0 -70 -16z"/>
<path d="M593 2046 c-29 -28 -10 -46 49 -46 38 0 58 9 54 23 -9 26 -84 43 -103 23z"/>
<path d="M720 2025 c0 -18 44 -25 160 -23 105 2 160 10 160 25 0 15 -53 23 -160 23 -115 0 -160 -7 -160 -25z"/>
<path d="M383 1880 c2 -83 97 -162 97 -80 0 11 -13 20 -30 20 -16 0 -30 10 -30 21 0 12 9 16 20 9 11 -7 20 2 20 19 0 17 -7 29 -15 26 -8 -3 -15 4 -15 15 0 11 30 17 67 14 44 -4 64 2 59 17 -4 13 -45 25 -91 28 l-84 4 2 -93z"/>
<path d="M640 1946 c1 -31 4 -32 20 -6 13 20 19 22 20 5 0 -14 23 -25 50 -25 44 0 75 37 35 42 -8 1 -40 5 -70 10 -43 7 -55 2 -55 -26z"/>
<path d="M820 1963 c-52 -17 -10 -33 90 -35 69 -1 110 6 110 20 0 20 -149 32 -200 15z"/>
<path d="M493 1885 c-6 -9 5 -18 24 -19 18 -2 42 -5 53 -7 45 -9 112 2 102 17 -13 22 -166 29 -179 9z"/>
<path d="M800 1876 c0 -9 49 -16 108 -16 60 0 124 -6 143 -13 24 -9 32 -5 25 15 -10 30 -276 44 -276 14z"/>
<path d="M1240 1582 l0 -282 70 0 c70 0 70 0 70 90 0 90 0 90 71 90 142 0 209 62 209 193 0 115 -70 167 -227 167 -72 0 -144 5 -161 12 -28 11 -32 -21 -32 -270z m234 146 c99 -27 70 -148 -35 -148 -70 0 -82 19 -66 98 12 64 25 70 101 50z"/>
<path d="M1859 1805 c-48 -128 -139 -360 -168 -430 l-32 -75 79 0 c67 0 80 7 86 45 10 74 228 79 256 6 15 -42 32 -51 92 -51 50 0 69 8 61 25 -5 14 -54 137 -108 275 l-97 249 -74 6 c-66 5 -77 -1 -95 -50z m166 -152 c41 9 42 8 9 -13 -27 -17 -33 -38 -24 -79 12 -55 10 -56 -101 -70 -62 -8 -118 -9 -124 -3 -6 7 12 12 40 12 53 0 91 58 65 100 -7 11 -3 20 7 20 11 0 26 19 34 43 12 37 16 39 31 12 11 -19 35 -28 63 -22z"/>
<path d="M2220 1787 c0 -66 3 -69 55 -59 101 21 113 -4 107 -226 l-5 -202 72 0 71 0 0 200 c0 201 -10 227 -69 169 -17 -18 -31 -22 -31 -11 0 40 112 81 187 69 72 -12 73 -11 73 56 l0 68 -230 3 -230 3 0 -70z"/>
<path d="M2780 1580 l0 -280 70 0 70 0 0 110 0 110 111 0 111 0 -10 -110 -10 -110 69 0 69 0 0 281 0 282 -65 -7 c-65 -6 -65 -6 -61 -111 l5 -105 -110 0 -109 0 0 110 0 110 -70 0 -70 0 0 -280z"/>
<path d="M500 1799 c0 -15 19 -19 50 -11 28 7 50 4 50 -7 0 -12 17 -14 45 -3 25 9 55 13 68 8 13 -4 28 0 35 10 6 10 -47 20 -119 22 -85 2 -129 -4 -129 -19z"/>
<path d="M780 1803 c0 -9 50 -18 112 -18 62 -1 121 -10 132 -21 14 -14 11 -20 -7 -19 -129 6 -177 -6 -177 -46 0 -23 -9 -36 -20 -29 -11 7 -20 -1 -20 -18 0 -19 11 -26 30 -19 17 6 30 26 30 44 0 28 21 32 130 28 74 -2 130 4 130 15 0 11 -13 20 -30 20 -17 0 -30 18 -30 40 0 36 -13 40 -140 40 -77 0 -140 -8 -140 -17z"/>
<path d="M440 1727 c0 -24 189 -25 213 -1 8 8 1 15 -15 15 -171 9 -198 7 -198 -14z"/>
<path d="M691 1745 c-25 -25 -8 -39 49 -41 57 -1 111 34 56 38 -14 0 -41 4 -60 8 -18 3 -38 1 -45 -5z"/>
<path d="M468 1657 c-12 -20 -14 -19 57 -24 31 -3 52 5 49 16 -9 26 -91 32 -106 8z"/>
<path d="M615 1657 c31 -29 145 -27 145 2 0 10 -36 17 -80 16 -44 -2 -73 -10 -65 -18z"/>
<path d="M880 1661 c0 -12 13 -21 28 -21 16 0 42 -5 58 -11 16 -6 34 1 39 16 8 19 -9 28 -57 32 -37 2 -68 -5 -68 -16z"/>
<path d="M380 1571 c0 -39 26 -52 61 -30 25 17 25 22 -1 39 -42 27 -60 25 -60 -9z"/>
<path d="M480 1571 c0 -19 30 -27 100 -26 55 1 100 10 100 21 0 10 -18 14 -41 8 -22 -6 -67 -3 -100 6 -44 13 -59 11 -59 -9z"/>
<path d="M700 1574 c0 -19 26 -27 90 -27 50 1 90 9 90 19 0 9 -29 15 -65 11 -36 -3 -77 2 -90 10 -15 9 -25 5 -25 -13z"/>
<path d="M573 1507 c-8 -8 -55 -12 -104 -9 -49 3 -89 -4 -89 -15 0 -24 316 -26 331 -1 6 10 -6 18 -28 18 -22 0 -52 5 -67 11 -16 5 -35 4 -43 -4z"/>
<path d="M775 1504 c-60 -12 -38 -36 35 -38 68 -2 91 19 50 44 -11 7 -20 1 -20 -14 -1 -17 -6 -19 -15 -5 -8 11 -31 17 -50 13z"/>
<path d="M900 1490 c0 -31 24 -37 140 -30 80 4 95 13 69 39 -11 10 -56 11 -103 2 -47 -8 -80 -8 -74 2 6 9 1 17 -11 17 -11 0 -21 -13 -21 -30z"/>
<path d="M380 1373 l0 -63 155 3 c85 2 184 4 220 5 36 1 65 12 65 24 0 13 -18 18 -40 12 -22 -6 -40 -2 -40 7 0 10 -20 11 -45 2 -25 -9 -67 -14 -95 -12 -27 3 -84 7 -125 11 -78 6 -97 25 -45 45 17 7 30 5 30 -3 0 -8 41 -14 90 -14 50 0 90 7 90 15 0 17 4 17 -145 25 l-115 6 0 -63z"/>
<path d="M760 1409 c0 -17 20 -24 61 -18 52 6 59 2 50 -29 -13 -39 66 -69 121 -48 45 17 8 61 -43 51 -30 -6 -49 0 -49 14 0 13 9 18 20 11 11 -7 20 0 20 14 0 18 -30 27 -90 29 -61 1 -90 -7 -90 -24z"/>
<path d="M85 1017 c-47 -11 -85 -28 -85 -38 0 -28 62 -23 128 11 32 17 100 29 155 27 54 -2 103 3 110 10 20 19 -209 12 -308 -10z"/>
<path d="M1683 907 c-4 -99 33 -141 96 -108 43 24 61 161 21 161 -11 0 -20 -32 -20 -71 0 -106 -65 -88 -82 21 l-12 80 -3 -83z"/>
<path d="M2360 940 c0 -27 -13 -40 -40 -40 -22 0 -40 13 -40 30 0 17 -9 30 -20 30 -11 0 -20 -40 -20 -90 0 -49 9 -90 20 -90 11 0 20 18 20 40 0 58 75 53 86 -5 5 -25 10 2 11 60 2 58 -1 105 -7 105 -5 0 -10 -18 -10 -40z"/>
<path d="M3036 915 l-7 -65 -28 55 c-41 82 -81 70 -81 -24 0 -43 9 -84 20 -91 12 -7 20 15 20 54 l0 65 45 -64 c60 -86 75 -82 75 24 0 105 -34 141 -44 46z"/>
<path d="M400 881 c0 -43 9 -84 20 -91 12 -8 20 23 20 79 0 50 -9 91 -20 91 -11 0 -20 -35 -20 -79z"/>
<path d="M480 869 c0 -50 8 -87 17 -81 10 6 14 36 9 67 l-9 55 61 -70 61 -70 -2 100 c-1 82 -4 89 -15 40 l-13 -60 -37 55 c-52 78 -72 68 -72 -36z"/>
<path d="M660 882 c0 -85 35 -109 116 -80 91 34 44 158 -60 158 -52 0 -56 -6 -56 -78z m118 21 c14 -25 13 -44 -3 -60 -42 -42 -75 -25 -75 37 0 69 47 82 78 23z"/>
<path d="M860 867 c0 -52 6 -88 13 -80 19 18 21 173 2 173 -8 0 -15 -42 -15 -93z"/>
<path d="M940 930 c-31 -37 -10 -129 30 -132 90 -7 110 -6 110 8 0 8 0 28 0 44 0 17 -16 30 -35 30 -29 -1 -30 -4 -6 -19 25 -16 25 -21 -6 -33 -22 -8 -48 -1 -68 18 -45 45 2 102 70 84 31 -7 44 -4 35 9 -19 31 -101 25 -130 -9z"/>
<path d="M1125 875 c5 -84 89 -133 126 -74 6 11 -12 19 -40 19 -28 0 -51 9 -51 20 0 11 14 20 30 20 17 0 30 9 30 20 0 11 -13 20 -30 20 -52 0 -32 37 25 46 44 6 41 9 -20 11 l-75 3 5 -85z"/>
<path d="M1280 869 c0 -56 8 -87 20 -79 11 7 20 37 20 66 l0 54 38 -57 c52 -80 68 -75 72 22 2 47 -4 85 -13 85 -9 0 -17 -25 -18 -55 l0 -55 -41 55 c-58 78 -78 69 -78 -36z"/>
<path d="M1484 936 c-58 -58 15 -172 95 -146 50 16 75 99 41 140 -30 36 -103 39 -136 6z m114 -23 c31 -38 7 -93 -41 -93 -43 0 -67 44 -50 90 15 38 61 39 91 3z"/>
<path d="M1849 939 c-16 -26 27 -79 63 -79 16 0 28 -10 28 -22 0 -14 -20 -17 -55 -9 -51 13 -53 11 -22 -20 21 -22 47 -28 76 -19 54 17 47 73 -14 100 -62 27 -57 57 7 41 33 -8 47 -5 38 8 -16 27 -104 27 -121 0z"/>
<path d="M2095 947 c14 -6 25 -41 25 -77 0 -37 9 -73 20 -80 12 -7 20 19 20 67 0 59 9 82 35 89 19 5 -1 10 -45 10 -44 1 -69 -4 -55 -9z"/>
<path d="M2420 881 c0 -43 9 -84 20 -91 12 -8 20 23 20 79 0 50 -9 91 -20 91 -11 0 -20 -35 -20 -79z"/>
<path d="M2500 869 c0 -51 8 -86 19 -80 10 6 14 36 9 66 -9 55 -8 55 51 -15 l60 -70 -2 100 c-1 82 -4 89 -15 40 l-13 -60 -37 55 c-52 78 -72 68 -72 -36z"/>
<path d="M2680 881 c0 -43 9 -84 20 -91 11 -7 20 6 20 29 0 53 15 52 61 -4 44 -52 53 -21 11 36 -25 34 -25 43 3 74 40 44 10 46 -38 2 -34 -31 -37 -31 -37 0 0 18 -9 33 -20 33 -11 0 -20 -35 -20 -79z"/>
<path d="M3120 920 c-21 -39 1 -116 36 -123 91 -16 124 -7 124 37 0 35 -11 46 -45 45 -43 -2 -43 -3 -5 -18 37 -15 37 -18 5 -31 -51 -21 -95 2 -95 50 0 50 50 73 88 41 17 -14 33 -15 40 -4 7 10 -2 24 -20 31 -59 23 -107 12 -128 -28z"/>
<path d="M96 839 c-70 -37 -108 -73 -93 -89 4 -4 45 19 91 50 46 32 118 61 160 65 l76 8 -80 3 c-45 1 -112 -15 -154 -37z"/>
<path d="M75 614 c-72 -61 -97 -114 -55 -114 11 0 20 12 20 26 0 14 27 41 60 61 33 19 60 44 60 54 0 21 184 25 255 6 36 -9 45 -26 45 -83 0 -86 22 -74 24 14 1 38 13 62 29 62 15 0 27 9 27 20 0 59 -388 20 -465 -46z"/>
<path d="M584 656 c-31 -31 -31 -101 0 -132 55 -55 156 -7 156 73 0 64 -110 105 -156 59z m106 -66 c0 -43 -62 -66 -93 -35 -10 10 -12 34 -5 53 18 48 98 34 98 -18z"/>
<path d="M851 636 c-56 -80 65 -184 127 -109 20 24 13 29 -42 26 -54 -2 -66 4 -66 37 0 33 12 39 66 37 54 -3 62 2 42 25 -34 41 -91 34 -127 -16z"/>
<path d="M1030 590 c0 -49 7 -90 15 -90 8 0 15 18 15 40 0 27 13 40 40 40 27 0 40 -13 40 -40 0 -22 9 -40 20 -40 11 0 20 41 20 90 0 50 -9 90 -20 90 -11 0 -20 -18 -20 -40 0 -27 -13 -40 -40 -40 -27 0 -40 13 -40 40 0 22 -7 40 -15 40 -8 0 -15 -40 -15 -90z"/>
<path d="M1233 596 c-18 -46 -27 -88 -20 -95 7 -6 16 0 21 14 12 32 71 32 102 1 33 -33 31 3 -6 92 -39 93 -57 91 -97 -12z"/>
<path d="M1400 590 c0 -49 7 -90 17 -90 9 0 13 29 8 65 l-8 65 41 -50 c23 -27 41 -57 42 -65 0 -8 9 -15 20 -15 11 0 19 43 17 95 -2 90 -3 91 -15 25 l-12 -70 -40 65 c-52 88 -70 82 -70 -25z"/>
<path d="M1605 657 c-64 -64 -11 -160 82 -153 63 6 80 97 18 94 -21 -1 -25 -5 -10 -11 42 -17 28 -47 -23 -47 -52 0 -78 39 -52 80 10 16 34 21 70 12 39 -10 52 -7 45 12 -11 35 -99 44 -130 13z"/>
<path d="M1783 590 c-2 -90 -1 -90 68 -90 38 0 69 9 69 20 0 11 -22 20 -50 20 -62 0 -66 34 -5 46 l45 9 -45 2 c-62 4 -57 43 5 43 28 0 50 9 50 20 0 11 -30 20 -67 20 -67 0 -68 -1 -70 -90z"/>
<path d="M2029 636 c17 -25 31 -65 31 -90 0 -26 9 -46 20 -46 11 0 20 16 20 36 0 19 14 56 32 81 39 56 19 85 -22 32 -28 -37 -31 -37 -51 -4 -12 19 -30 35 -41 35 -11 0 -6 -20 11 -44z"/>
<path d="M2191 649 c-36 -37 -38 -58 -10 -110 40 -75 159 -37 159 51 0 84 -88 119 -149 59z m119 -59 c0 -44 -62 -66 -95 -33 -33 33 0 87 50 79 29 -4 45 -20 45 -46z"/>
<path d="M2387 600 c5 -152 132 -138 133 15 0 36 -9 65 -20 65 -11 0 -20 -32 -20 -71 0 -98 -64 -89 -83 11 -12 64 -13 62 -10 -20z"/>
<path d="M2560 591 c0 -83 39 -137 41 -56 0 33 2 33 27 0 30 -40 83 -49 58 -10 -9 14 -16 52 -16 85 0 51 -9 61 -55 66 -53 6 -55 3 -55 -85z"/>
<path d="M2803 595 c-3 -93 -2 -95 58 -95 36 0 56 8 49 20 -7 11 -29 20 -50 20 -29 0 -39 18 -45 75 -8 69 -9 67 -12 -20z"/>
<path d="M3000 590 c0 -49 9 -90 20 -90 11 0 20 17 20 39 0 24 17 41 45 47 l45 9 -45 2 c-56 4 -60 43 -5 43 22 0 40 9 40 20 0 11 -27 20 -60 20 -58 0 -60 -3 -60 -90z"/>
<path d="M3160 590 c0 -87 2 -90 60 -90 33 0 60 9 60 20 0 11 -22 20 -50 20 -62 0 -67 40 -5 41 44 2 44 2 -5 24 l-50 23 55 7 c74 10 70 45 -5 45 -58 0 -60 -3 -60 -90z"/>
<path d="M280 524 c-147 -51 -220 -273 -130 -392 16 -21 25 -44 21 -51 -13 -21 257 -23 289 -2 21 14 -2 16 -73 8 -172 -20 -247 50 -247 230 0 66 157 220 183 179 12 -19 16 -19 17 -2 0 31 -23 43 -60 30z"/>
<path d="M360 501 c0 -12 11 -21 26 -21 102 0 202 -204 144 -293 -42 -64 -22 -88 30 -36 36 36 37 46 12 143 -15 57 -22 109 -15 116 6 7 -5 6 -26 -2 -22 -9 -33 -7 -26 4 7 10 -23 39 -67 64 -43 25 -78 36 -78 25z"/>
<path d="M711 410 c49 -137 16 -362 -52 -344 -25 7 -31 -1 -24 -29 12 -44 65 -50 65 -7 0 17 8 30 17 30 27 0 63 159 58 253 -3 46 -11 79 -19 75 -7 -5 -24 7 -36 27 -21 32 -22 31 -9 -5z"/>
<path d="M1150 294 c0 -79 -7 -180 -15 -224 l-15 -80 38 91 c31 74 36 116 24 215 -20 170 -33 169 -32 -2z"/>
<path d="M920 372 c0 -27 9 -55 20 -62 11 -7 20 -43 20 -80 0 -37 -9 -73 -20 -80 -11 -7 -20 -30 -20 -51 0 -22 -9 -39 -20 -39 -11 0 -20 -13 -20 -30 0 -17 14 -30 30 -30 17 0 29 7 27 15 -4 16 15 70 47 138 15 31 14 74 -4 145 -26 112 -60 153 -60 74z"/>
<path d="M249 325 c-6 -30 -15 -71 -18 -90 -4 -19 4 -35 18 -35 15 0 36 -12 49 -28 67 -80 215 55 153 140 -41 56 -57 23 -22 -44 30 -56 29 -58 -24 -73 -91 -25 -137 13 -128 106 8 90 -10 107 -28 24z"/>
<path d="M3344 362 c-11 -7 -19 -36 -19 -65 0 -63 34 -63 101 -1 37 35 51 39 72 19 22 -21 22 -18 3 15 -24 39 -116 58 -157 32z"/>
<path d="M3275 256 c13 -50 85 -90 85 -47 0 17 -11 29 -25 26 -14 -3 -24 9 -23 27 1 17 -9 31 -22 31 -14 0 -20 -16 -15 -37z"/>
</g>
</svg>