<svg id="svg" version="1.1" xmlns="http://www.w3.org/2000/svg" xmlns:xlink="http://www.w3.org/1999/xlink" width="400" height="615.3846153846154" viewBox="0, 0, 400,615.3846153846154"><g id="svgg"><path id="path0" d="M293.100 49.398 C 256.434 55.365,237.706 97.561,257.789 128.955 C 280.129 163.880,333.320 159.491,349.468 121.392 C 365.561 83.421,333.743 42.783,293.100 49.398 M81.600 249.397 C 78.834 250.238,78.679 250.341,79.616 250.713 C 82.126 251.710,82.501 254.667,81.208 263.269 C 78.869 278.825,82.570 286.098,88.050 276.715 C 89.887 273.568,91.733 272.013,93.990 271.711 C 95.179 271.551,95.505 271.367,95.216 271.019 C 94.616 270.296,93.727 266.042,92.788 259.400 C 91.541 250.586,91.489 250.433,89.796 250.591 C 88.342 250.726,86.177 249.484,86.620 248.768 C 87.000 248.153,84.768 248.433,81.600 249.397 M44.600 332.365 C 34.572 333.007,35.121 329.924,35.281 384.671 L 35.400 425.400 36.400 427.400 C 37.200 429.000,37.800 429.600,39.400 430.400 L 41.400 431.400 55.400 431.400 L 69.400 431.400 71.379 430.400 C 75.122 428.509,76.396 424.017,74.325 420.009 C 72.800 417.058,71.786 416.708,63.649 416.327 C 51.673 415.766,51.039 415.048,51.015 402.012 C 50.991 388.737,51.515 387.890,60.458 386.769 C 65.698 386.112,67.723 384.530,68.251 380.683 C 68.930 375.725,66.334 373.118,60.005 372.401 C 51.930 371.486,50.996 370.096,51.005 359.000 C 51.014 348.145,51.956 347.184,62.993 346.770 C 67.694 346.593,70.243 346.326,71.233 345.906 C 76.414 343.704,76.451 335.418,71.289 333.095 C 69.204 332.157,54.253 331.748,44.600 332.365 M98.400 332.387 C 94.307 332.981,92.755 334.159,91.775 337.416 C 91.033 339.881,90.909 423.536,91.643 426.181 C 93.253 431.980,101.913 432.791,104.592 427.395 C 105.312 425.945,105.408 424.622,105.659 412.800 C 106.029 395.361,106.450 390.386,107.678 388.906 C 108.723 387.647,110.370 390.788,111.961 397.076 C 112.726 400.102,113.070 401.762,116.214 417.597 C 118.133 427.261,119.385 429.600,122.640 429.600 C 126.377 429.600,127.331 427.398,130.222 412.093 C 133.829 393.000,136.513 385.273,138.347 388.702 C 139.148 390.198,139.690 397.980,139.957 411.800 C 140.196 424.187,140.329 426.377,140.909 427.465 C 143.458 432.242,150.873 432.308,153.450 427.576 C 154.327 425.966,154.853 340.769,154.006 337.621 C 152.950 333.701,150.504 332.421,144.046 332.409 C 133.925 332.389,133.361 333.202,130.181 352.400 C 126.671 373.588,125.037 379.212,122.530 378.730 C 120.541 378.347,119.500 374.591,115.786 354.400 C 113.003 339.271,112.762 338.236,111.472 335.891 C 109.883 333.001,104.363 331.521,98.400 332.387 M181.529 332.386 C 178.026 332.743,176.216 333.655,175.000 335.672 C 173.724 337.790,173.746 425.317,175.023 427.800 C 177.305 432.235,185.669 432.362,188.191 428.000 C 188.951 426.685,189.014 425.700,189.226 411.800 C 189.529 391.893,189.402 392.159,199.200 390.995 C 212.479 389.418,218.406 382.121,220.016 365.368 C 221.739 347.432,215.474 335.549,202.962 333.026 C 199.651 332.358,185.839 331.945,181.529 332.386 M240.000 332.846 C 238.126 333.402,236.215 335.305,235.656 337.171 C 234.932 339.588,235.049 424.478,235.780 426.526 C 237.814 432.230,246.867 432.789,249.600 427.379 L 250.600 425.400 250.600 381.600 L 250.600 337.800 249.600 336.033 C 247.950 333.118,243.764 331.728,240.000 332.846 M274.600 332.984 C 272.407 333.783,270.972 335.505,270.442 337.979 C 269.828 340.842,269.822 422.728,270.435 425.589 C 271.477 430.447,276.978 432.535,282.000 429.979 C 285.057 428.423,285.242 427.394,285.552 410.200 C 285.865 392.908,286.074 392.000,289.743 392.000 C 292.616 392.000,293.576 394.356,297.177 410.242 C 300.266 423.868,301.012 426.390,302.485 428.176 C 305.382 431.691,311.694 432.233,314.585 429.215 C 316.617 427.094,316.484 425.413,313.215 411.987 C 306.698 385.221,306.779 387.730,312.152 379.000 C 319.908 366.394,316.734 342.323,306.459 335.837 C 301.565 332.748,280.445 330.857,274.600 332.984 M338.048 332.861 C 335.987 333.454,334.840 334.361,333.877 336.161 L 333.000 337.800 332.890 380.962 C 332.767 428.707,332.696 427.232,335.232 429.365 C 337.121 430.955,337.616 431.000,353.200 431.000 C 371.358 431.000,372.036 430.759,372.313 424.202 C 372.568 418.144,370.511 416.768,360.632 416.388 C 348.783 415.932,348.203 415.233,348.201 401.400 C 348.200 388.975,348.955 387.764,357.275 386.831 C 362.775 386.215,364.820 384.719,365.437 380.862 C 366.246 375.797,362.659 372.407,356.480 372.398 C 349.982 372.388,348.228 369.583,348.216 359.181 C 348.203 348.178,349.075 347.269,360.159 346.724 C 370.213 346.230,372.200 345.022,372.200 339.398 C 372.200 335.912,371.519 334.694,368.792 333.300 C 366.863 332.314,341.222 331.948,338.048 332.861 M293.838 347.789 C 302.078 350.236,303.116 369.309,295.237 373.469 C 291.657 375.359,287.860 374.339,286.386 371.092 C 285.511 369.165,285.222 354.331,286.006 351.600 C 287.027 348.043,289.933 346.629,293.838 347.789 M199.237 348.531 C 205.434 351.804,206.500 368.603,200.835 373.721 C 197.005 377.181,192.159 376.606,190.276 372.466 C 189.233 370.172,188.971 354.267,189.931 351.520 C 191.229 347.810,195.359 346.483,199.237 348.531 M47.600 443.581 C 38.053 444.939,31.585 450.368,28.845 459.323 C 26.503 466.978,26.440 520.191,28.762 529.257 C 34.185 550.428,64.016 552.617,72.213 532.446 C 75.064 525.429,75.975 469.923,73.399 460.214 C 70.326 448.637,59.793 441.846,47.600 443.581 M100.000 445.462 C 99.450 445.547,98.411 445.711,97.691 445.828 C 96.972 445.944,95.756 446.590,94.990 447.262 C 92.268 449.652,92.366 447.755,92.490 495.638 L 92.600 538.600 93.600 540.573 C 96.283 545.865,105.420 545.190,107.267 539.564 C 107.550 538.702,107.804 532.160,107.957 521.800 C 108.266 500.926,108.300 500.842,116.738 500.152 C 122.825 499.654,125.200 497.591,125.200 492.800 C 125.200 487.924,123.192 486.198,116.581 485.389 C 109.040 484.466,108.264 483.388,108.067 473.564 C 107.824 461.414,108.659 460.457,119.943 459.945 C 127.750 459.590,129.719 459.015,131.143 456.672 C 133.835 452.241,131.683 446.684,126.873 445.653 C 124.911 445.232,102.536 445.073,100.000 445.462 M177.539 445.729 C 174.833 446.496,173.635 447.431,172.663 449.534 L 171.800 451.400 171.876 494.939 L 171.953 538.478 172.876 540.318 C 174.336 543.227,175.431 543.800,179.529 543.800 C 186.718 543.800,186.935 543.253,187.221 524.400 C 187.517 504.949,187.472 505.037,197.488 504.021 C 210.050 502.746,216.566 494.524,218.006 478.128 C 219.542 460.644,213.979 449.507,202.130 446.348 C 198.119 445.279,180.679 444.840,177.539 445.729 M248.200 445.583 C 241.630 447.021,242.118 445.555,236.402 481.000 C 235.054 489.360,232.505 504.840,230.738 515.400 C 226.190 542.583,226.346 543.994,233.913 543.999 C 239.427 544.002,241.310 541.913,242.591 534.372 C 244.093 525.531,246.015 523.229,251.913 523.209 C 257.825 523.188,259.773 525.333,261.228 533.465 C 262.186 538.824,262.791 540.528,264.287 542.091 C 267.095 545.022,273.811 544.704,276.130 541.530 C 277.789 539.259,277.787 539.243,272.400 506.600 C 271.311 500.000,268.879 485.240,266.995 473.800 C 262.762 448.091,262.739 448.013,258.992 446.355 C 256.982 445.466,250.768 445.022,248.200 445.583 M295.741 446.037 C 291.251 447.338,291.400 445.638,291.400 495.400 L 291.400 538.600 292.324 540.476 C 294.832 545.568,303.385 545.383,305.991 540.179 L 306.982 538.200 307.101 497.600 C 307.222 456.011,307.081 451.061,305.707 448.665 C 304.246 446.117,299.649 444.905,295.741 446.037 M330.580 446.163 C 329.125 446.797,327.317 448.844,326.900 450.331 C 326.073 453.280,326.569 538.940,327.423 540.600 C 329.388 544.419,335.711 545.179,338.673 541.952 C 340.456 540.009,340.530 539.332,340.822 522.200 C 341.151 502.901,341.556 500.537,344.277 502.006 C 346.070 502.974,348.275 508.079,353.597 523.580 C 356.274 531.378,358.804 538.424,359.219 539.237 C 362.033 544.754,370.218 545.858,373.676 541.187 C 375.135 539.217,375.229 536.066,375.113 493.200 L 375.000 451.400 374.127 449.511 C 371.726 444.313,364.423 444.364,361.549 449.600 C 361.119 450.383,360.947 454.369,360.756 468.000 C 360.505 485.871,360.262 488.694,358.819 490.475 C 356.732 493.053,354.565 488.637,347.426 467.256 C 344.514 458.535,341.841 450.842,341.486 450.159 C 339.568 446.470,334.303 444.541,330.580 446.163 M54.431 459.310 C 56.276 460.553,57.474 462.453,57.970 464.925 C 58.782 468.964,58.710 522.993,57.889 525.673 C 55.552 533.307,47.660 533.843,44.320 526.595 L 43.400 524.600 43.400 495.400 C 43.400 464.437,43.402 464.399,45.309 461.570 C 46.756 459.422,48.591 458.400,51.000 458.400 C 52.503 458.400,53.457 458.653,54.431 459.310 M197.382 461.746 C 201.848 464.155,203.875 474.601,201.433 482.617 C 199.320 489.553,191.115 491.511,188.200 485.774 C 186.942 483.298,186.989 466.689,188.262 463.934 C 189.849 460.500,193.465 459.633,197.382 461.746 M253.671 486.839 C 256.136 492.073,257.295 502.621,255.742 505.688 C 254.581 507.983,251.258 508.356,249.106 506.432 L 247.800 505.264 247.812 501.332 C 247.843 491.117,251.466 482.155,253.671 486.839 " stroke="none" fill="#d92537" fill-rule="evenodd"></path><path id="path1" d="M0.000 307.600 L 0.000 615.200 200.000 615.200 L 400.000 615.200 400.000 307.600 L 400.000 0.000 249.241 0.000 L 98.483 0.000 98.057 3.300 C 97.822 5.115,97.518 7.860,97.381 9.400 C 97.244 10.940,96.611 15.080,95.975 18.600 C 95.338 22.120,94.538 27.419,94.196 30.376 C 93.854 33.333,93.136 38.823,92.601 42.576 C 92.065 46.329,91.435 51.920,91.201 55.000 C 90.621 62.606,90.046 68.801,89.585 72.400 C 89.374 74.050,89.117 84.940,89.014 96.600 C 88.911 108.260,88.616 122.840,88.357 129.000 C 87.827 141.659,87.986 149.177,88.964 157.600 C 89.334 160.790,89.894 165.650,90.208 168.400 C 90.740 173.059,91.622 176.625,93.575 182.000 C 94.605 184.835,94.602 186.181,93.564 187.148 C 92.364 188.266,84.782 190.683,80.153 191.423 C 67.378 193.466,65.444 194.442,63.613 199.763 C 62.547 202.861,61.798 203.822,59.235 205.379 C 53.992 208.564,53.982 210.389,59.170 217.520 C 63.483 223.451,63.640 224.794,60.413 228.155 C 56.081 232.666,56.052 233.117,58.805 253.150 C 60.017 261.970,63.973 262.281,70.724 254.088 C 72.773 251.601,73.890 250.964,77.108 250.446 C 78.436 250.232,80.845 249.660,82.461 249.175 C 89.968 246.921,91.090 247.811,92.415 257.067 C 94.460 271.351,95.237 273.200,99.200 273.200 C 104.109 273.200,106.144 268.376,104.380 260.920 C 102.444 252.733,103.049 250.671,107.522 250.217 C 114.882 249.470,116.353 247.755,113.982 242.686 C 111.315 236.988,112.365 233.603,116.800 233.603 C 121.346 233.603,122.970 238.218,120.318 243.600 C 119.126 246.019,119.020 246.575,118.799 251.600 L 118.562 257.000 116.715 260.800 C 114.571 265.213,114.190 266.512,113.604 271.400 C 112.503 280.597,104.732 293.871,97.222 299.384 C 87.101 306.813,78.466 305.049,66.000 293.006 C 55.055 282.433,54.066 282.222,46.814 288.925 C 43.355 292.122,42.776 292.400,39.571 292.400 L 37.195 292.400 34.451 289.700 C 22.845 278.277,20.573 244.818,29.894 222.600 C 35.633 208.921,38.898 203.916,46.073 197.800 C 51.521 193.156,53.196 191.533,55.683 188.495 C 58.753 184.742,59.200 184.542,65.004 184.312 C 79.696 183.731,81.780 175.804,80.857 124.000 C 80.597 109.370,80.387 92.720,80.391 87.000 C 80.396 80.437,80.183 74.681,79.812 71.400 C 79.489 68.540,78.942 63.050,78.595 59.200 C 76.833 39.627,74.355 28.400,69.634 18.600 C 66.425 11.940,64.556 10.633,63.973 14.642 C 63.849 15.499,63.341 17.550,62.845 19.200 C 62.349 20.850,61.745 22.920,61.502 23.800 C 60.156 28.682,59.018 25.782,57.419 13.400 C 56.759 8.290,56.237 5.504,55.339 2.300 L 54.695 0.000 27.347 0.000 L 0.000 0.000 0.000 307.600 M312.400 49.804 C 352.830 58.742,367.638 108.226,338.619 137.418 C 305.111 171.127,248.003 146.227,249.713 98.652 C 250.862 66.699,281.352 42.939,312.400 49.804 M103.240 188.863 C 110.633 191.383,111.709 198.269,104.975 199.965 C 99.353 201.380,96.724 199.144,96.643 192.878 C 96.586 188.448,98.537 187.260,103.240 188.863 M168.320 195.280 C 168.971 195.931,168.927 196.800,168.243 196.800 C 167.719 196.800,167.200 195.988,167.200 195.167 C 167.200 194.654,167.750 194.710,168.320 195.280 M117.292 209.883 C 121.193 213.411,120.764 221.200,116.668 221.200 C 112.725 221.200,105.187 216.117,105.206 213.469 C 105.227 210.507,114.831 207.657,117.292 209.883 M76.226 227.600 C 75.388 239.578,72.017 244.826,68.800 239.161 C 65.838 233.945,68.358 225.658,73.692 223.074 C 76.002 221.955,76.552 222.937,76.226 227.600 M94.433 231.695 C 97.248 234.510,98.876 240.686,97.201 242.200 C 93.902 245.182,89.120 241.282,89.120 235.609 C 89.120 230.822,91.677 228.938,94.433 231.695 M127.452 272.885 C 128.182 274.065,127.205 278.795,125.979 280.021 C 124.142 281.858,120.400 280.282,120.400 277.672 C 120.400 275.130,126.346 271.094,127.452 272.885 M71.289 333.095 C 76.451 335.418,76.414 343.704,71.233 345.906 C 70.243 346.326,67.694 346.593,62.993 346.770 C 51.956 347.184,51.014 348.145,51.005 359.000 C 50.996 370.096,51.930 371.486,60.005 372.401 C 66.334 373.118,68.930 375.725,68.251 380.683 C 67.723 384.530,65.698 386.112,60.458 386.769 C 51.515 387.890,50.991 388.737,51.015 402.012 C 51.039 415.048,51.673 415.766,63.649 416.327 C 71.786 416.708,72.800 417.058,74.325 420.009 C 76.396 424.017,75.122 428.509,71.379 430.400 L 69.400 431.400 55.400 431.400 L 41.400 431.400 39.400 430.400 C 37.800 429.600,37.200 429.000,36.400 427.400 L 35.400 425.400 35.281 384.671 C 35.138 335.564,35.156 335.314,38.939 333.314 C 41.856 331.771,67.955 331.595,71.289 333.095 M108.621 333.416 C 112.151 335.103,112.337 335.646,115.786 354.400 C 119.500 374.591,120.541 378.347,122.530 378.730 C 125.037 379.212,126.671 373.588,130.181 352.400 C 133.361 333.202,133.925 332.389,144.046 332.409 C 150.504 332.421,152.950 333.701,154.006 337.621 C 154.853 340.769,154.327 425.966,153.450 427.576 C 150.873 432.308,143.458 432.242,140.909 427.465 C 140.329 426.377,140.196 424.187,139.957 411.800 C 139.333 379.477,136.366 379.567,130.222 412.093 C 127.331 427.398,126.377 429.600,122.640 429.600 C 119.385 429.600,118.133 427.261,116.214 417.597 C 113.070 401.762,112.726 400.102,111.961 397.076 C 110.370 390.788,108.723 387.647,107.678 388.906 C 106.450 390.386,106.029 395.361,105.659 412.800 C 105.408 424.622,105.312 425.945,104.592 427.395 C 101.913 432.791,93.253 431.980,91.643 426.181 C 90.909 423.536,91.033 339.881,91.775 337.416 C 92.409 335.310,93.664 333.732,95.200 333.111 C 98.531 331.764,105.496 331.922,108.621 333.416 M202.962 333.026 C 215.474 335.549,221.739 347.432,220.016 365.368 C 218.406 382.121,212.479 389.418,199.200 390.995 C 189.402 392.159,189.529 391.893,189.226 411.800 C 189.014 425.700,188.951 426.685,188.191 428.000 C 185.669 432.362,177.305 432.235,175.023 427.800 C 173.746 425.317,173.724 337.790,175.000 335.672 C 176.216 333.655,178.026 332.743,181.529 332.386 C 185.839 331.945,199.651 332.358,202.962 333.026 M247.036 333.461 C 248.027 333.972,248.967 334.915,249.600 336.033 L 250.600 337.800 250.600 381.600 L 250.600 425.400 249.600 427.379 C 246.867 432.789,237.814 432.230,235.780 426.526 C 235.049 424.478,234.932 339.588,235.656 337.171 C 236.896 333.033,242.598 331.174,247.036 333.461 M301.707 333.711 C 305.457 335.024,307.532 336.288,309.844 338.666 C 317.350 346.390,318.615 368.497,312.152 379.000 C 306.779 387.730,306.698 385.221,313.215 411.987 C 316.484 425.413,316.617 427.094,314.585 429.215 C 311.694 432.233,305.382 431.691,302.485 428.176 C 301.012 426.390,300.266 423.868,297.177 410.242 C 293.576 394.356,292.616 392.000,289.743 392.000 C 286.074 392.000,285.865 392.908,285.552 410.200 C 285.242 427.394,285.057 428.423,282.000 429.979 C 276.978 432.535,271.477 430.447,270.435 425.589 C 269.822 422.728,269.828 340.842,270.442 337.979 C 271.538 332.869,273.082 332.371,287.400 332.512 C 298.424 332.621,298.649 332.640,301.707 333.711 M368.792 333.300 C 371.519 334.694,372.200 335.912,372.200 339.398 C 372.200 345.022,370.213 346.230,360.159 346.724 C 349.075 347.269,348.203 348.178,348.216 359.181 C 348.228 369.583,349.982 372.388,356.480 372.398 C 362.659 372.407,366.246 375.797,365.437 380.862 C 364.820 384.719,362.775 386.215,357.275 386.831 C 348.955 387.764,348.200 388.975,348.201 401.400 C 348.203 415.233,348.783 415.932,360.632 416.388 C 370.511 416.768,372.568 418.144,372.313 424.202 C 372.036 430.759,371.358 431.000,353.200 431.000 C 337.616 431.000,337.121 430.955,335.232 429.365 C 332.696 427.232,332.767 428.707,332.890 380.962 L 333.000 337.800 333.877 336.161 C 335.752 332.657,336.672 332.479,353.215 332.436 C 366.789 332.401,367.061 332.416,368.792 333.300 M289.415 347.800 C 286.072 348.990,285.603 350.645,285.611 361.200 C 285.620 372.154,286.643 374.394,291.637 374.399 C 297.546 374.403,300.644 369.139,300.325 359.633 C 300.023 350.613,295.449 345.651,289.415 347.800 M191.838 348.820 C 188.019 352.174,188.258 372.454,192.147 375.002 C 199.745 379.981,206.733 368.355,203.836 355.556 C 202.294 348.746,195.968 345.194,191.838 348.820 M57.600 444.078 C 65.031 445.788,71.258 452.147,73.399 460.214 C 74.981 466.176,75.269 518.108,73.767 526.723 C 71.586 539.235,63.375 546.102,50.604 546.092 C 39.345 546.083,31.529 540.059,28.762 529.257 C 26.440 520.191,26.503 466.978,28.845 459.323 C 32.533 447.270,44.319 441.022,57.600 444.078 M126.873 445.653 C 131.683 446.684,133.835 452.241,131.143 456.672 C 129.719 459.015,127.750 459.590,119.943 459.945 C 108.659 460.457,107.824 461.414,108.067 473.564 C 108.264 483.388,109.040 484.466,116.581 485.389 C 123.192 486.198,125.200 487.924,125.200 492.800 C 125.200 497.591,122.825 499.654,116.738 500.152 C 108.300 500.842,108.266 500.926,107.957 521.800 C 107.804 532.160,107.550 538.702,107.267 539.564 C 105.420 545.190,96.283 545.865,93.600 540.573 L 92.600 538.600 92.490 495.638 C 92.366 447.755,92.268 449.652,94.990 447.262 C 95.756 446.590,96.972 445.944,97.691 445.828 C 98.411 445.711,99.450 445.547,100.000 445.462 C 102.536 445.073,124.911 445.232,126.873 445.653 M202.130 446.348 C 213.979 449.507,219.542 460.644,218.006 478.128 C 216.566 494.524,210.050 502.746,197.488 504.021 C 187.472 505.037,187.517 504.949,187.221 524.400 C 186.935 543.253,186.718 543.800,179.529 543.800 C 175.431 543.800,174.336 543.227,172.876 540.318 L 171.953 538.478 171.876 494.939 L 171.800 451.400 172.663 449.534 C 174.450 445.667,176.476 445.156,189.200 445.358 C 197.536 445.490,199.467 445.638,202.130 446.348 M258.992 446.355 C 262.739 448.013,262.762 448.091,266.995 473.800 C 268.879 485.240,271.311 500.000,272.400 506.600 C 277.787 539.243,277.789 539.259,276.130 541.530 C 273.811 544.704,267.095 545.022,264.287 542.091 C 262.791 540.528,262.186 538.824,261.228 533.465 C 259.773 525.333,257.825 523.188,251.913 523.209 C 246.015 523.229,244.093 525.531,242.591 534.372 C 241.310 541.913,239.427 544.002,233.913 543.999 C 226.346 543.994,226.190 542.583,230.738 515.400 C 232.505 504.840,235.054 489.360,236.402 481.000 C 241.780 447.654,241.725 447.858,245.600 446.328 C 248.952 445.005,255.971 445.019,258.992 446.355 M303.206 446.500 C 307.285 448.568,307.246 448.049,307.101 497.600 L 306.982 538.200 305.991 540.179 C 303.385 545.383,294.832 545.568,292.324 540.476 L 291.400 538.600 291.400 495.400 C 291.400 471.640,291.544 451.521,291.720 450.691 C 292.651 446.296,298.554 444.142,303.206 446.500 M336.511 446.024 C 340.602 447.160,340.924 447.787,347.426 467.256 C 354.565 488.637,356.732 493.053,358.819 490.475 C 360.262 488.694,360.505 485.871,360.756 468.000 C 360.947 454.369,361.119 450.383,361.549 449.600 C 364.423 444.364,371.726 444.313,374.127 449.511 L 375.000 451.400 375.113 493.200 C 375.229 536.066,375.135 539.217,373.676 541.187 C 371.083 544.691,365.148 545.144,361.604 542.111 C 359.349 540.180,359.092 539.586,353.597 523.580 C 348.275 508.079,346.070 502.974,344.277 502.006 C 341.556 500.537,341.151 502.901,340.822 522.200 C 340.530 539.332,340.456 540.009,338.673 541.952 C 335.711 545.179,329.388 544.419,327.423 540.600 C 326.569 538.940,326.073 453.280,326.900 450.331 C 327.932 446.651,332.079 444.793,336.511 446.024 M47.569 459.310 C 43.347 462.155,43.400 461.695,43.400 495.400 L 43.400 524.600 44.320 526.595 C 47.660 533.843,55.552 533.307,57.889 525.673 C 58.710 522.993,58.782 468.964,57.970 464.925 C 57.152 460.848,54.536 458.400,51.000 458.400 C 49.497 458.400,48.543 458.653,47.569 459.310 M191.977 460.780 C 187.855 462.027,187.400 463.441,187.400 475.000 C 187.400 486.589,188.110 488.462,192.738 489.082 C 199.791 490.028,204.247 480.103,201.843 468.800 C 200.634 463.116,196.192 459.505,191.977 460.780 M251.040 486.082 C 249.375 488.624,247.828 495.930,247.812 501.332 L 247.800 505.264 249.106 506.432 C 250.094 507.315,250.807 507.600,252.033 507.600 C 256.071 507.600,257.242 504.757,256.216 497.447 C 254.864 487.816,252.830 483.350,251.040 486.082 M53.254 565.500 C 53.568 566.295,53.566 567.217,53.244 568.824 C 52.595 572.076,52.675 572.801,53.988 575.510 C 56.310 580.305,55.914 582.000,52.467 582.000 C 48.635 582.000,47.997 579.764,50.490 575.071 C 51.257 573.626,51.740 572.299,51.563 572.122 C 51.102 571.660,50.648 566.659,50.956 565.434 C 51.313 564.010,52.681 564.050,53.254 565.500 M190.380 565.363 C 190.701 565.962,190.801 566.909,190.644 567.863 C 189.816 572.924,189.845 573.337,191.196 575.532 C 193.734 579.657,193.178 582.000,189.660 582.000 C 185.716 582.000,184.879 579.248,187.651 575.388 C 188.765 573.837,188.878 573.438,188.633 571.918 C 187.734 566.346,187.865 564.400,189.140 564.400 C 189.539 564.400,190.097 564.834,190.380 565.363 M138.875 566.773 C 140.878 568.349,141.584 574.896,139.971 576.946 C 137.383 580.236,134.549 576.957,134.890 571.068 C 135.140 566.756,136.706 565.067,138.875 566.773 M269.541 568.997 C 273.768 572.337,275.733 578.348,273.646 581.554 C 272.511 583.299,265.584 577.656,264.777 574.328 C 263.029 567.123,264.743 565.205,269.541 568.997 M301.263 567.600 C 302.245 568.923,302.930 572.971,302.509 574.965 C 301.834 578.161,298.855 578.843,297.471 576.117 C 294.871 570.997,298.213 563.491,301.263 567.600 M90.100 571.683 C 91.264 573.023,90.771 577.208,89.298 578.485 C 86.134 581.228,82.705 577.611,83.980 572.876 C 84.648 570.392,88.351 569.671,90.100 571.683 M170.612 570.979 C 174.160 572.462,173.002 579.200,169.200 579.200 C 164.836 579.200,164.561 570.778,168.913 570.425 C 169.085 570.411,169.850 570.661,170.612 570.979 " stroke="none" fill="#e9eaea" fill-rule="evenodd"></path><path id="path2" d="M54.800 0.374 C 54.800 0.580,54.969 1.193,55.176 1.738 C 55.799 3.376,56.832 8.727,57.427 13.400 C 58.997 25.728,60.155 28.684,61.502 23.800 C 61.745 22.920,62.349 20.850,62.845 19.200 C 63.341 17.550,63.849 15.499,63.973 14.642 C 64.556 10.633,66.425 11.940,69.634 18.600 C 74.355 28.400,76.833 39.627,78.595 59.200 C 78.942 63.050,79.489 68.540,79.812 71.400 C 80.183 74.681,80.396 80.437,80.391 87.000 C 80.387 92.720,80.597 109.370,80.857 124.000 C 81.780 175.804,79.696 183.731,65.004 184.312 C 59.200 184.542,58.753 184.742,55.683 188.495 C 53.196 191.533,51.521 193.156,46.073 197.800 C 38.898 203.916,35.633 208.921,29.894 222.600 C 20.573 244.818,22.845 278.277,34.451 289.700 L 37.195 292.400 39.571 292.400 C 42.776 292.400,43.355 292.122,46.814 288.925 C 54.066 282.222,55.055 282.433,66.000 293.006 C 78.466 305.049,87.101 306.813,97.222 299.384 C 104.732 293.871,112.503 280.597,113.604 271.400 C 114.190 266.512,114.571 265.213,116.715 260.800 L 118.562 257.000 118.799 251.600 C 119.020 246.575,119.126 246.019,120.318 243.600 C 122.970 238.218,121.346 233.603,116.800 233.603 C 112.365 233.603,111.315 236.988,113.982 242.686 C 116.353 247.755,114.882 249.470,107.522 250.217 C 103.049 250.671,102.444 252.733,104.380 260.920 C 106.484 269.811,102.244 275.906,96.424 272.358 C 93.661 270.674,90.668 272.231,88.050 276.715 C 85.349 281.339,83.935 281.834,81.718 278.929 C 80.145 276.869,79.970 271.502,81.208 263.269 C 82.899 252.023,81.491 249.106,75.193 250.802 C 73.385 251.289,73.089 251.549,67.766 257.330 C 63.396 262.076,59.801 260.399,58.805 253.150 C 56.052 233.117,56.081 232.666,60.413 228.155 C 63.640 224.794,63.483 223.451,59.170 217.520 C 53.982 210.389,53.992 208.564,59.235 205.379 C 61.798 203.822,62.547 202.861,63.613 199.763 C 65.444 194.442,67.378 193.466,80.153 191.423 C 84.782 190.683,92.364 188.266,93.564 187.148 C 94.602 186.181,94.605 184.835,93.575 182.000 C 91.622 176.625,90.740 173.059,90.208 168.400 C 89.894 165.650,89.334 160.790,88.964 157.600 C 87.986 149.177,87.827 141.659,88.357 129.000 C 88.616 122.840,88.911 108.260,89.014 96.600 C 89.117 84.940,89.374 74.050,89.585 72.400 C 90.046 68.801,90.621 62.606,91.201 55.000 C 91.435 51.920,92.065 46.329,92.601 42.576 C 93.136 38.823,93.855 33.333,94.197 30.376 C 94.539 27.419,95.353 22.030,96.005 18.400 C 96.657 14.770,97.364 9.902,97.577 7.583 C 97.790 5.264,98.085 2.609,98.233 1.683 L 98.502 0.000 76.651 0.000 C 63.365 0.000,54.800 0.147,54.800 0.374 M97.376 188.968 C 95.347 190.452,96.732 198.038,99.319 199.616 C 102.757 201.712,109.600 199.117,109.600 195.718 C 109.600 191.135,100.947 186.357,97.376 188.968 M167.200 195.167 C 167.200 195.988,167.719 196.800,168.243 196.800 C 168.927 196.800,168.971 195.931,168.320 195.280 C 167.750 194.710,167.200 194.654,167.200 195.167 M111.400 209.559 C 103.554 211.958,103.151 214.021,109.662 218.442 C 116.120 222.828,120.310 222.020,119.911 216.467 C 119.465 210.253,116.637 207.957,111.400 209.559 M73.692 223.074 C 69.733 224.992,67.800 228.370,67.800 233.371 C 67.800 243.530,74.007 243.986,75.566 233.942 C 77.002 224.686,76.490 221.719,73.692 223.074 M90.892 230.668 C 89.100 231.389,88.542 236.598,89.923 239.718 C 92.060 244.551,98.417 244.219,97.840 239.305 C 97.211 233.943,93.675 229.548,90.892 230.668 M86.533 248.598 C 86.533 249.578,87.917 250.533,89.407 250.583 C 90.938 250.633,91.120 250.234,90.177 248.889 C 89.423 247.811,86.533 247.581,86.533 248.598 M124.080 273.435 C 120.450 275.244,119.368 277.804,121.382 279.818 C 124.172 282.609,127.317 280.088,127.661 274.785 C 127.832 272.129,127.188 271.886,124.080 273.435 M50.956 565.434 C 50.648 566.659,51.102 571.660,51.563 572.122 C 51.740 572.299,51.257 573.626,50.490 575.071 C 47.997 579.764,48.635 582.000,52.467 582.000 C 55.914 582.000,56.310 580.305,53.988 575.510 C 52.675 572.801,52.595 572.076,53.244 568.824 C 53.941 565.339,51.782 562.141,50.956 565.434 M188.159 565.422 C 187.911 566.407,188.050 568.302,188.633 571.918 C 188.878 573.438,188.765 573.837,187.651 575.388 C 184.879 579.248,185.716 582.000,189.660 582.000 C 193.178 582.000,193.734 579.657,191.196 575.532 C 189.845 573.337,189.816 572.924,190.644 567.863 C 191.093 565.127,188.798 562.874,188.159 565.422 M136.160 566.933 C 133.475 569.242,134.732 578.000,137.748 578.000 C 139.878 578.000,140.800 576.577,140.800 573.292 C 140.800 567.693,138.670 564.774,136.160 566.933 M264.806 567.388 C 262.497 571.702,267.089 580.553,272.317 581.865 C 274.084 582.309,274.733 580.193,274.050 576.212 C 273.184 571.159,266.303 564.591,264.806 567.388 M297.916 567.081 C 295.651 569.618,296.372 576.475,299.031 577.687 C 301.482 578.804,303.193 575.432,302.423 571.000 C 301.755 567.159,299.555 565.246,297.916 567.081 M85.507 570.863 C 83.379 571.639,83.064 576.700,85.023 578.659 C 87.429 581.065,90.790 578.206,90.798 573.744 C 90.802 571.349,88.144 569.902,85.507 570.863 M167.682 570.819 C 166.382 571.341,165.481 573.710,165.819 575.715 C 166.631 580.520,171.887 580.292,172.618 575.419 C 173.139 571.942,170.654 569.626,167.682 570.819 " stroke="none" fill="#544c45" fill-rule="evenodd"></path></g></svg>