<svg id="svg" version="1.1" xmlns="http://www.w3.org/2000/svg" xmlns:xlink="http://www.w3.org/1999/xlink" width="400" height="641.025641025641" viewBox="0, 0, 400,641.025641025641"><g id="svgg"><path id="path0" d="M244.998 30.198 C 240.982 31.941,240.454 33.972,244.017 33.976 C 245.057 33.978,245.574 38.432,245.713 48.607 C 245.929 64.375,245.561 66.667,242.812 66.667 C 241.829 66.667,241.026 67.244,241.026 67.949 C 241.026 68.681,244.872 69.231,250.000 69.231 C 258.389 69.231,261.481 67.903,257.051 66.203 C 255.464 65.594,255.128 62.212,255.128 46.835 C 255.128 25.876,255.092 25.817,244.998 30.198 M137.179 33.974 C 137.179 35.032,138.045 35.897,139.103 35.897 C 141.954 35.897,141.954 65.109,139.103 66.203 C 134.575 67.940,137.854 69.231,146.795 69.231 C 156.008 69.231,159.271 67.748,153.846 66.026 C 147.781 64.101,150.487 56.760,157.625 55.779 C 171.689 53.844,176.241 37.757,163.938 33.468 C 157.459 31.209,137.179 31.593,137.179 33.974 M157.417 36.982 C 162.162 39.993,160.017 50.632,154.487 51.514 C 152.185 51.881,151.884 51.104,151.541 43.910 C 151.146 35.612,152.584 33.916,157.417 36.982 M177.435 42.856 C 170.354 45.939,170.548 50.000,177.778 50.000 C 181.197 50.000,182.051 49.487,182.051 47.436 C 182.051 44.360,186.096 43.945,188.448 46.779 C 191.094 49.966,189.068 52.020,181.639 53.683 C 177.744 54.555,173.982 55.961,173.279 56.808 C 166.394 65.104,175.209 73.731,185.231 68.505 C 187.696 67.220,189.212 66.995,189.504 67.872 C 190.051 69.511,202.564 69.716,202.564 68.086 C 202.564 67.456,201.699 66.609,200.641 66.203 C 199.169 65.638,198.718 63.220,198.718 55.903 C 198.718 42.133,190.570 37.138,177.435 42.856 M209.295 42.624 C 205.502 43.841,203.347 47.436,206.410 47.436 C 207.115 47.436,207.692 50.571,207.692 54.404 C 207.692 67.820,211.849 72.160,221.508 68.832 C 224.463 67.814,226.567 67.488,226.185 68.106 C 225.802 68.725,228.697 69.231,232.617 69.231 C 236.536 69.231,239.744 68.654,239.744 67.949 C 239.744 67.244,238.878 66.667,237.821 66.667 C 236.239 66.667,235.897 64.387,235.897 53.846 C 235.897 39.882,236.054 40.108,228.033 42.511 C 223.200 43.959,221.102 47.436,225.061 47.436 C 226.681 47.436,226.975 48.907,226.664 55.449 C 226.284 63.412,226.258 63.462,222.436 63.462 L 218.590 63.462 218.219 52.244 C 217.812 39.904,217.803 39.895,209.295 42.624 M189.744 60.256 C 189.744 63.684,189.321 64.103,185.857 64.103 C 181.077 64.103,179.276 60.673,182.729 58.148 C 186.903 55.096,189.744 55.950,189.744 60.256 M232.372 84.932 C 228.084 86.307,226.715 88.462,230.128 88.462 C 231.325 88.462,232.051 89.672,232.051 91.667 C 232.051 94.520,231.519 94.872,227.208 94.872 C 221.136 94.872,217.255 97.529,215.499 102.889 C 212.469 112.132,219.141 120.854,227.116 118.074 C 229.984 117.074,231.528 117.020,231.824 117.908 C 232.392 119.612,241.904 119.639,242.954 117.940 C 243.393 117.230,242.850 116.302,241.748 115.879 C 240.079 115.239,239.744 112.449,239.744 99.222 C 239.744 82.038,239.978 82.492,232.372 84.932 M158.986 96.525 C 153.751 99.174,154.052 102.564,159.521 102.564 C 163.325 102.564,164.103 102.106,164.103 99.863 C 164.103 97.926,164.677 97.382,166.130 97.940 C 167.246 98.368,168.400 98.718,168.695 98.718 C 172.381 98.718,168.207 103.799,163.559 104.970 C 154.542 107.240,151.201 112.556,155.861 117.216 C 158.287 119.642,161.505 119.775,166.184 117.643 C 168.954 116.381,169.777 116.381,170.197 117.643 C 170.830 119.540,178.994 119.784,180.134 117.940 C 180.573 117.230,180.030 116.302,178.927 115.879 C 177.401 115.294,176.923 113.171,176.923 106.987 C 176.923 95.758,169.295 91.309,158.986 96.525 M185.577 96.362 C 181.800 97.741,180.805 100.000,183.974 100.000 C 186.743 100.000,186.750 115.138,183.982 116.200 C 180.420 117.567,183.238 118.889,189.714 118.889 C 195.795 118.889,197.749 117.804,194.872 116.026 C 191.797 114.125,193.371 100.000,196.658 100.000 C 200.959 100.000,203.811 113.671,200.000 116.026 C 196.983 117.891,199.167 119.175,205.128 119.040 C 211.201 118.903,213.104 117.785,210.256 116.026 C 209.551 115.590,208.974 111.559,208.974 107.067 C 208.974 95.803,205.644 92.790,196.878 96.122 C 194.742 96.935,193.590 96.935,193.590 96.122 C 193.590 94.568,190.212 94.669,185.577 96.362 M232.051 106.410 C 232.051 114.714,229.664 116.661,225.092 112.088 C 220.898 107.894,223.506 98.718,228.891 98.718 C 231.899 98.718,232.051 99.089,232.051 106.410 M169.231 110.256 C 169.231 113.504,168.732 114.103,166.026 114.103 C 160.125 114.103,162.382 108.147,168.910 106.492 C 169.087 106.447,169.231 108.141,169.231 110.256 M127.141 133.172 C 126.172 133.786,125.619 135.854,125.859 137.960 C 126.427 142.935,133.704 143.576,134.393 138.711 C 135.109 133.664,131.143 130.635,127.141 133.172 M208.389 133.775 C 205.009 136.247,206.625 142.308,210.665 142.308 C 216.403 142.308,218.925 135.914,214.187 133.378 C 211.082 131.717,211.216 131.708,208.389 133.775 M265.443 133.904 C 262.924 136.940,264.307 141.605,267.877 142.109 C 273.021 142.835,275.911 137.632,272.344 134.066 C 269.833 131.555,267.439 131.499,265.443 133.904 M82.051 137.821 C 82.051 138.878,82.946 139.744,84.040 139.744 C 86.120 139.744,86.430 140.384,94.143 160.577 C 100.792 177.985,105.060 178.643,110.776 163.141 C 112.792 157.676,115.560 150.176,116.928 146.474 C 118.338 142.658,120.208 139.744,121.246 139.744 C 122.253 139.744,123.077 138.878,123.077 137.821 C 123.077 136.344,121.439 135.897,116.026 135.897 C 110.613 135.897,108.974 136.344,108.974 137.821 C 108.974 138.878,109.840 139.744,110.897 139.744 C 111.955 139.744,112.827 140.176,112.835 140.705 C 112.866 142.639,105.943 161.538,105.205 161.538 C 104.463 161.538,97.398 142.623,97.423 140.705 C 97.430 140.176,98.301 139.744,99.359 139.744 C 100.417 139.744,101.282 138.878,101.282 137.821 C 101.282 136.282,99.359 135.897,91.667 135.897 C 83.974 135.897,82.051 136.282,82.051 137.821 M127.000 146.660 C 122.338 148.345,120.184 151.282,123.611 151.282 C 125.283 151.282,125.641 152.980,125.641 160.897 C 125.641 168.590,125.256 170.513,123.718 170.513 C 122.660 170.513,121.795 171.090,121.795 171.795 C 121.795 172.518,125.427 173.077,130.128 173.077 C 134.829 173.077,138.462 172.518,138.462 171.795 C 138.462 171.090,137.596 170.513,136.538 170.513 C 134.957 170.513,134.615 168.234,134.615 157.692 C 134.615 143.737,134.710 143.875,127.000 146.660 M146.231 146.660 C 141.569 148.345,139.415 151.282,142.842 151.282 C 144.513 151.282,144.872 152.980,144.872 160.897 C 144.872 168.590,144.487 170.513,142.949 170.513 C 141.891 170.513,141.026 171.090,141.026 171.795 C 141.026 172.527,144.872 173.077,150.000 173.077 C 155.128 173.077,158.974 172.527,158.974 171.795 C 158.974 171.090,158.171 170.513,157.188 170.513 C 154.768 170.513,153.846 167.654,153.846 160.152 C 153.846 153.200,155.960 151.881,160.506 155.995 C 163.557 158.756,165.039 157.196,165.593 150.641 C 166.107 144.555,162.442 142.896,158.384 147.379 C 155.386 150.693,153.846 150.712,153.846 147.436 C 153.846 144.529,152.506 144.393,146.231 146.660 M177.269 145.718 C 170.014 147.260,167.326 155.904,172.495 161.073 C 175.064 163.642,175.443 164.719,174.275 166.127 C 173.458 167.111,173.114 168.759,173.509 169.790 C 173.947 170.932,173.254 171.973,171.732 172.456 C 168.168 173.587,167.114 179.004,169.867 182.047 C 176.804 189.711,198.718 184.729,198.718 175.487 C 198.718 171.218,195.838 169.340,187.451 168.140 C 179.919 167.063,179.099 164.664,185.949 163.745 C 192.488 162.868,196.154 159.702,196.154 154.930 C 196.154 152.137,196.755 151.282,198.718 151.282 C 200.128 151.282,201.282 150.497,201.282 149.538 C 201.282 147.882,199.935 147.569,184.615 145.667 C 182.147 145.361,178.842 145.384,177.269 145.718 M207.770 146.645 C 203.104 148.347,200.958 151.282,204.380 151.282 C 206.052 151.282,206.410 152.980,206.410 160.897 C 206.410 168.590,206.026 170.513,204.487 170.513 C 201.081 170.513,202.443 172.893,206.090 173.312 C 211.633 173.950,220.513 172.936,220.513 171.666 C 220.513 171.032,219.647 170.513,218.590 170.513 C 216.424 170.513,216.527 171.131,216.239 156.430 C 216.002 144.342,215.542 143.811,207.770 146.645 M227.639 146.703 C 221.898 148.479,220.446 150.630,224.307 151.640 C 227.933 152.588,228.256 168.357,224.690 170.353 C 221.268 172.268,223.496 173.330,230.821 173.273 C 237.318 173.223,240.690 172.011,237.500 170.871 C 234.139 169.671,235.403 151.282,238.846 151.282 C 240.468 151.282,242.487 151.974,243.333 152.821 C 245.198 154.685,245.428 170.513,243.590 170.513 C 242.885 170.513,242.308 171.090,242.308 171.795 C 242.308 172.507,245.726 173.077,250.000 173.077 C 254.274 173.077,257.692 172.507,257.692 171.795 C 257.692 171.090,256.827 170.513,255.769 170.513 C 254.211 170.513,253.846 168.451,253.846 159.645 C 253.846 145.813,251.150 142.915,241.506 146.383 C 236.868 148.051,235.897 148.095,235.897 146.636 C 235.897 144.571,234.497 144.582,227.639 146.703 M265.462 146.660 C 260.800 148.345,258.646 151.282,262.073 151.282 C 263.744 151.282,264.103 152.980,264.103 160.897 C 264.103 168.590,263.718 170.513,262.179 170.513 C 261.122 170.513,260.256 171.090,260.256 171.795 C 260.256 172.518,263.889 173.077,268.590 173.077 C 273.291 173.077,276.923 172.518,276.923 171.795 C 276.923 171.090,276.058 170.513,275.000 170.513 C 273.419 170.513,273.077 168.234,273.077 157.692 C 273.077 143.737,273.172 143.875,265.462 146.660 M289.341 146.112 C 281.137 148.719,279.279 153.846,286.538 153.846 C 290.171 153.846,291.026 153.358,291.026 151.282 C 291.026 148.391,294.701 147.778,297.179 150.256 C 300.522 153.599,298.869 155.935,292.046 157.510 C 283.672 159.443,280.769 162.004,280.769 167.461 C 280.769 174.103,287.266 176.369,294.935 172.403 C 297.104 171.282,298.718 171.008,298.718 171.762 C 298.718 172.485,301.602 173.077,305.128 173.077 C 308.654 173.077,311.538 172.500,311.538 171.795 C 311.538 171.090,310.673 170.513,309.615 170.513 C 308.069 170.513,307.692 168.541,307.692 160.455 C 307.692 146.968,301.609 142.213,289.341 146.112 M185.641 150.256 C 187.844 152.460,187.539 158.362,185.118 160.372 C 183.366 161.825,182.788 161.716,181.272 159.642 C 177.051 153.870,180.927 145.543,185.641 150.256 M298.718 163.965 C 298.718 167.794,296.307 169.701,293.048 168.450 C 288.396 166.665,290.897 160.256,296.245 160.256 C 298.118 160.256,298.718 161.157,298.718 163.965 M184.936 174.426 C 189.858 175.793,190.930 177.788,188.205 180.513 C 184.526 184.192,175.589 179.685,177.368 175.048 C 178.262 172.719,178.667 172.685,184.936 174.426 M138.803 222.543 C 139.168 224.197,138.748 225.214,137.701 225.214 C 136.771 225.214,136.270 224.793,136.587 224.280 C 137.461 222.866,133.070 221.545,131.781 222.834 C 130.543 224.072,134.271 232.062,136.859 233.718 C 137.740 234.281,138.462 235.316,138.462 236.017 C 138.462 236.718,139.839 238.777,141.522 240.592 L 144.583 243.893 143.622 238.637 C 142.587 232.980,140.144 229.088,138.331 230.209 C 137.714 230.590,137.552 230.007,137.972 228.913 C 139.758 224.259,145.899 232.065,146.341 239.549 C 146.514 242.477,147.101 244.872,147.646 244.872 C 148.191 244.872,148.347 245.629,147.991 246.555 C 147.636 247.481,148.448 249.237,149.796 250.457 C 151.958 252.413,152.337 252.441,153.006 250.696 C 153.424 249.608,153.330 248.718,152.797 248.718 C 152.264 248.718,151.693 246.948,151.528 244.786 C 151.363 242.623,150.444 239.594,149.485 238.055 C 148.526 236.516,147.396 233.762,146.974 231.935 C 146.553 230.109,144.409 226.647,142.211 224.243 C 139.036 220.771,138.335 220.421,138.803 222.543 M121.250 227.964 C 121.302 230.652,121.769 233.536,122.287 234.374 C 122.805 235.212,122.583 235.897,121.795 235.897 C 121.007 235.897,120.693 236.434,121.099 237.091 C 121.505 237.747,121.222 238.664,120.471 239.128 C 119.562 239.690,119.531 240.483,120.377 241.503 C 121.171 242.459,121.201 243.741,120.459 244.915 C 118.709 247.681,118.941 250.325,120.833 249.189 C 122.038 248.465,122.023 248.735,120.774 250.278 C 118.612 252.946,119.355 258.134,122.376 261.472 C 123.693 262.928,124.403 264.486,123.954 264.935 C 123.505 265.384,122.774 264.804,122.329 263.645 C 120.833 259.747,119.053 261.496,119.580 266.346 C 119.879 269.110,120.734 271.018,121.589 270.833 C 124.202 270.270,123.182 272.750,120.513 273.448 C 118.349 274.014,117.952 275.188,117.968 280.970 C 117.982 285.866,118.343 287.272,119.231 285.897 C 120.390 284.103,121.099 285.040,120.597 287.703 C 120.476 288.344,121.129 289.353,122.048 289.947 C 123.212 290.699,123.295 291.317,122.323 291.987 C 120.255 293.413,119.183 298.718,120.963 298.718 C 121.948 298.718,122.296 300.715,121.986 304.605 C 121.700 308.205,122.136 311.069,123.108 311.977 C 124.361 313.147,124.532 312.511,123.916 308.974 C 123.145 304.547,123.159 304.530,124.983 307.692 C 127.113 311.385,127.534 317.949,125.641 317.949 C 124.936 317.949,124.313 316.939,124.258 315.705 C 124.202 314.471,123.876 314.150,123.534 314.992 C 123.191 315.834,122.111 316.215,121.133 315.840 C 119.672 315.280,119.430 317.448,119.778 327.963 C 120.215 341.152,121.211 345.328,123.164 342.167 C 123.740 341.234,123.678 339.826,123.024 339.039 C 122.240 338.094,122.482 337.607,123.738 337.607 C 125.122 337.607,125.641 339.093,125.641 343.058 C 125.641 346.055,125.950 349.313,126.327 350.296 C 126.728 351.341,125.709 352.780,123.871 353.764 C 120.280 355.686,119.186 358.526,120.621 362.200 C 121.168 363.599,121.655 364.183,121.705 363.497 C 121.754 362.811,122.751 363.615,123.920 365.284 C 127.232 370.012,126.726 377.838,122.565 386.245 C 118.362 394.738,118.402 400.910,122.719 409.829 C 125.049 414.643,125.110 415.367,123.328 417.148 C 120.222 420.254,121.016 435.276,124.359 436.659 C 125.917 437.303,125.795 437.655,123.718 438.509 C 121.253 439.523,121.262 439.567,123.963 439.653 C 127.450 439.765,129.139 442.211,126.767 443.713 C 125.369 444.599,125.469 444.837,127.244 444.852 C 128.478 444.863,129.574 445.737,129.679 446.795 C 129.785 447.853,129.929 449.413,130.000 450.263 C 130.071 451.112,128.686 452.209,126.923 452.699 C 124.093 453.486,124.037 453.606,126.446 453.718 C 129.840 453.877,133.535 457.826,131.067 458.656 C 130.173 458.957,128.627 460.018,127.631 461.014 C 126.071 462.574,125.759 462.424,125.380 459.938 C 125.134 458.330,124.173 457.216,123.210 457.424 C 122.154 457.652,121.760 457.069,122.198 455.928 C 123.006 453.822,119.730 452.001,118.555 453.902 C 118.138 454.576,118.312 455.128,118.941 455.128 C 120.009 455.128,120.430 456.746,120.628 461.615 C 120.672 462.715,122.396 464.251,124.457 465.029 C 128.215 466.448,129.648 470.752,126.923 472.436 C 126.218 472.872,125.641 472.267,125.641 471.092 C 125.641 469.671,124.962 469.217,123.613 469.735 C 122.498 470.163,121.015 470.513,120.319 470.513 C 118.444 470.513,119.586 475.987,121.599 476.650 C 122.999 477.112,123.036 476.679,121.795 474.359 C 120.562 472.056,120.594 471.608,121.955 472.062 C 124.313 472.848,123.917 498.676,121.523 500.195 C 120.615 500.771,120.393 501.252,121.029 501.262 C 121.666 501.273,120.819 502.468,119.148 503.918 C 116.599 506.128,116.412 506.750,117.990 507.764 C 119.901 508.993,118.856 510.360,114.744 512.012 C 112.947 512.733,118.090 516.576,120.918 516.626 C 122.198 516.648,124.361 517.264,125.725 517.994 C 127.435 518.909,128.205 518.909,128.205 517.994 C 128.205 517.264,127.196 516.648,125.962 516.626 C 123.938 516.589,123.964 516.399,126.224 514.690 C 128.999 512.591,131.671 515.032,130.354 518.463 C 130.008 519.366,130.239 520.917,130.868 521.911 C 131.811 523.400,132.015 523.351,132.032 521.631 C 132.055 519.155,135.574 515.916,136.853 517.195 C 137.344 517.686,136.898 518.625,135.860 519.281 C 134.413 520.196,134.374 520.478,135.692 520.493 C 138.360 520.524,142.397 526.070,140.589 527.220 C 139.625 527.834,139.891 528.173,141.346 528.185 C 142.580 528.196,143.634 527.484,143.687 526.603 C 143.741 525.721,144.562 527.019,145.513 529.487 C 147.290 534.101,147.801 533.789,147.610 528.205 C 147.501 525.016,147.507 525.017,148.857 528.526 C 149.603 530.465,150.941 532.051,151.831 532.051 C 152.720 532.051,155.105 533.476,157.131 535.217 C 159.824 537.531,162.205 538.345,165.984 538.246 C 173.034 538.060,183.034 539.493,186.086 541.126 C 187.470 541.867,189.868 542.372,191.416 542.248 C 196.627 541.833,200.156 542.301,199.523 543.324 C 199.178 543.882,200.154 544.459,201.691 544.606 C 205.932 545.009,210.458 543.671,209.592 542.270 C 209.124 541.513,212.170 541.026,217.369 541.026 C 224.257 541.026,225.779 540.670,225.211 539.191 C 224.153 536.432,222.613 514.631,223.537 515.481 C 224.213 516.103,225.511 526.516,225.768 533.379 C 225.823 534.854,227.507 535.410,232.472 535.592 C 237.527 535.777,238.569 535.523,236.859 534.521 C 235.625 533.798,234.624 532.513,234.635 531.667 C 234.649 530.601,234.987 530.653,235.739 531.838 C 236.601 533.199,236.992 533.107,237.653 531.385 C 238.182 530.006,239.256 529.518,240.613 530.039 C 241.785 530.488,243.078 530.323,243.487 529.672 C 243.898 529.019,244.978 529.294,245.900 530.287 C 247.289 531.784,247.075 532.283,244.618 533.269 C 242.524 534.109,242.296 534.476,243.835 534.534 C 245.027 534.579,246.359 534.038,246.795 533.333 C 247.231 532.628,249.140 532.031,251.037 532.005 C 255.458 531.946,263.582 525.755,259.615 525.468 C 254.536 525.101,246.684 525.761,240.963 527.037 C 234.764 528.419,228.205 526.988,228.205 524.254 C 228.205 523.456,228.926 523.077,229.808 523.413 C 230.973 523.856,231.449 521.882,231.551 516.178 C 231.666 509.737,231.475 508.964,230.482 511.859 C 229.068 515.983,227.473 516.493,227.473 512.821 C 227.473 511.410,227.926 510.256,228.480 510.256 C 229.034 510.256,229.478 509.247,229.468 508.013 C 229.453 506.359,229.173 506.203,228.401 507.419 C 227.821 508.334,227.562 505.515,227.820 501.091 C 228.076 496.704,228.926 492.342,229.709 491.399 C 230.823 490.057,230.666 489.863,228.985 490.509 C 227.084 491.238,227.018 490.938,228.410 487.882 C 229.706 485.038,229.657 484.229,228.132 483.276 C 226.685 482.373,226.192 483.022,225.870 486.253 C 225.448 490.492,223.094 494.432,223.057 490.962 C 223.041 489.381,222.852 489.390,221.795 491.026 C 220.902 492.408,220.552 491.145,220.552 486.538 C 220.552 482.199,220.928 480.723,221.717 481.969 C 222.623 483.401,223.285 483.475,224.700 482.300 C 225.700 481.471,226.898 481.171,227.362 481.635 C 227.826 482.099,228.205 482.017,228.205 481.453 C 228.205 480.888,226.711 479.143,224.885 477.574 C 222.052 475.139,221.874 474.603,223.670 473.914 C 224.901 473.441,225.449 473.632,224.991 474.374 C 224.560 475.071,225.396 475.641,226.847 475.641 C 230.232 475.641,230.289 473.046,226.923 472.166 C 225.513 471.798,224.359 470.599,224.359 469.503 C 224.359 468.406,223.404 466.455,222.237 465.165 C 220.854 463.637,220.657 462.821,221.672 462.821 C 222.528 462.821,222.909 462.304,222.519 461.673 C 222.129 461.042,222.702 460.183,223.792 459.764 C 224.927 459.329,225.439 459.545,224.991 460.271 C 224.560 460.968,225.043 461.538,226.063 461.538 C 227.368 461.538,227.964 459.920,228.071 456.090 C 228.155 453.093,228.557 445.645,228.965 439.538 C 229.636 429.491,229.482 428.378,227.353 427.828 C 225.474 427.343,225.422 427.191,227.094 427.072 C 229.670 426.889,230.875 422.734,229.888 417.438 C 229.326 414.418,229.512 413.800,230.662 414.870 C 231.494 415.644,232.336 417.663,232.533 419.357 C 233.257 425.584,235.000 428.021,236.110 424.359 C 236.813 422.038,237.004 422.834,236.801 427.244 C 236.646 430.593,236.993 433.333,237.570 433.333 C 238.148 433.333,238.504 428.505,238.362 422.603 C 238.220 416.701,238.531 411.182,239.052 410.338 C 240.499 407.997,238.965 407.273,234.996 408.423 C 227.843 410.494,219.798 408.794,223.600 406.014 C 224.981 405.004,226.252 401.650,226.872 397.374 L 227.885 390.385 228.065 396.154 C 228.178 399.802,228.639 401.301,229.318 400.230 C 229.909 399.298,229.952 396.134,229.415 393.197 C 228.506 388.222,228.574 388.031,230.418 390.403 C 231.796 392.177,232.180 392.316,231.683 390.861 C 231.291 389.713,231.646 388.093,232.472 387.260 C 233.624 386.099,233.474 385.936,231.829 386.562 C 230.425 387.096,229.207 386.488,228.303 384.799 C 226.394 381.232,226.578 379.435,228.765 380.275 C 229.778 380.663,230.294 381.799,229.910 382.798 C 229.527 383.798,229.736 384.615,230.376 384.615 C 232.627 384.615,234.615 381.500,234.615 377.973 C 234.615 374.517,239.005 371.778,241.914 373.419 C 242.483 373.740,244.678 373.274,246.793 372.384 L 250.636 370.765 244.290 369.814 C 239.908 369.157,237.792 369.316,237.455 370.328 C 237.186 371.135,235.894 371.795,234.584 371.795 C 233.274 371.795,231.815 372.422,231.341 373.189 C 230.867 373.955,229.392 374.298,228.062 373.950 C 226.732 373.602,225.296 373.880,224.872 374.567 C 224.447 375.254,223.311 375.513,222.347 375.143 C 221.383 374.774,220.254 375.023,219.837 375.697 C 218.133 378.454,216.499 376.761,217.308 373.077 C 217.875 370.493,217.654 369.231,216.634 369.231 C 215.635 369.231,215.283 370.987,215.604 374.359 C 215.873 377.179,215.611 379.487,215.022 379.487 C 214.433 379.487,214.263 379.992,214.645 380.609 C 215.026 381.226,213.906 381.731,212.156 381.731 C 210.406 381.731,208.974 381.192,208.974 380.533 C 208.974 379.875,208.348 379.723,207.582 380.196 C 206.610 380.797,206.416 378.787,206.937 373.541 C 207.348 369.408,207.350 366.747,206.941 367.628 C 206.096 369.448,201.717 369.810,201.068 368.113 C 200.110 365.606,188.491 361.119,179.232 359.681 C 173.803 358.837,169.654 358.622,170.012 359.202 C 170.371 359.782,171.475 360.256,172.466 360.256 C 173.458 360.256,174.886 361.410,175.641 362.821 C 176.396 364.231,177.781 365.385,178.718 365.385 C 179.656 365.385,181.944 366.580,183.801 368.042 C 187.197 370.713,187.667 370.481,187.247 366.346 C 186.956 363.493,190.186 363.446,193.004 366.264 C 195.030 368.290,195.004 368.484,192.585 369.379 C 189.721 370.439,187.586 373.077,189.592 373.077 C 190.297 373.077,191.231 372.500,191.667 371.795 C 192.102 371.090,193.361 370.513,194.463 370.513 C 196.050 370.513,196.153 370.892,194.956 372.335 C 193.718 373.826,193.907 374.036,195.994 373.490 C 198.075 372.946,198.415 373.319,197.841 375.514 C 197.454 376.994,196.645 378.205,196.045 378.205 C 195.444 378.205,195.278 379.054,195.676 380.090 C 196.167 381.371,194.819 382.707,191.469 384.257 C 188.757 385.512,186.115 387.115,185.597 387.821 C 185.008 388.622,184.647 388.518,184.635 387.545 C 184.591 384.068,179.980 383.357,174.855 386.036 C 172.114 387.469,168.429 388.906,166.667 389.230 C 161.097 390.252,160.195 390.886,158.223 395.173 L 156.297 399.359 157.085 394.379 C 157.762 390.101,157.575 389.514,155.755 390.213 C 154.590 390.660,153.449 391.026,153.220 391.026 C 152.991 391.026,153.108 392.188,153.480 393.609 C 153.982 395.531,153.660 396.002,152.219 395.449 C 151.054 395.002,150.488 393.591,150.797 391.904 C 151.079 390.363,150.954 389.864,150.518 390.795 C 149.938 392.035,149.185 391.714,147.699 389.593 C 146.243 387.515,146.101 386.556,147.193 386.192 C 148.095 385.891,148.408 384.469,147.962 382.692 C 147.088 379.210,150.221 376.948,156.005 376.882 C 159.411 376.844,159.479 376.738,157.195 375.009 C 155.415 373.661,154.057 373.519,152.066 374.471 C 150.407 375.265,150.974 374.339,153.533 372.079 C 157.888 368.231,157.825 366.680,153.312 366.647 C 151.118 366.631,150.984 366.406,152.564 365.385 C 153.622 364.701,153.988 364.133,153.378 364.122 C 152.768 364.111,153.201 362.681,154.340 360.943 C 156.886 357.057,156.936 356.289,154.586 357.191 C 151.840 358.244,152.845 354.591,156.473 350.327 C 158.201 348.296,161.483 345.882,163.766 344.963 C 166.048 344.044,167.639 342.844,167.300 342.296 C 166.962 341.748,168.061 340.954,169.744 340.531 C 172.472 339.847,172.767 339.138,172.462 334.001 C 172.129 328.372,172.200 328.257,175.484 329.053 L 178.846 329.867 175.666 327.247 L 172.487 324.627 176.619 325.108 C 178.892 325.372,180.641 325.168,180.507 324.653 C 180.372 324.139,180.726 322.348,181.293 320.673 C 181.957 318.715,181.796 317.301,180.840 316.711 C 178.188 315.071,187.729 316.100,190.796 317.785 C 193.735 319.398,193.746 319.379,191.708 316.269 C 189.332 312.642,189.549 309.952,192.308 308.841 C 193.365 308.415,190.310 307.645,185.517 307.130 C 178.332 306.358,176.196 306.584,173.338 308.417 C 169.587 310.824,162.957 317.935,162.873 319.643 C 162.792 321.271,158.974 324.724,158.974 323.168 C 158.974 322.413,158.389 321.795,157.674 321.795 C 156.933 321.795,156.665 323.450,157.051 325.641 C 157.437 327.832,157.169 329.487,156.429 329.487 C 155.713 329.487,155.046 328.189,154.946 326.603 C 154.846 325.016,154.414 325.981,153.985 328.746 C 153.556 331.511,152.530 333.996,151.705 334.267 C 150.858 334.546,150.362 333.753,150.564 332.444 C 150.762 331.170,150.139 328.990,149.180 327.599 C 146.893 324.283,146.966 322.622,149.359 323.541 C 150.417 323.946,151.282 323.720,151.282 323.037 C 151.282 322.354,150.378 321.795,149.273 321.795 C 147.831 321.795,147.499 321.053,148.096 319.169 C 148.555 317.725,148.235 315.706,147.385 314.682 C 146.157 313.202,146.216 312.821,147.675 312.821 C 148.684 312.821,150.630 311.912,151.999 310.802 C 153.367 309.692,153.668 309.210,152.667 309.731 C 151.335 310.423,151.066 310.104,151.665 308.544 C 152.200 307.151,151.830 306.410,150.601 306.410 C 149.565 306.410,148.718 307.510,148.718 308.854 C 148.718 310.667,148.056 311.125,146.154 310.628 C 142.543 309.684,142.952 308.493,147.756 305.962 C 150.716 304.403,151.087 303.929,149.037 304.328 C 147.449 304.637,146.474 304.366,146.869 303.727 C 147.264 303.087,148.707 302.564,150.076 302.564 C 151.444 302.564,152.564 301.987,152.564 301.282 C 152.564 300.577,152.005 300.000,151.322 300.000 C 150.639 300.000,150.413 299.135,150.818 298.077 C 151.279 296.878,150.809 296.154,149.572 296.154 C 146.986 296.154,145.672 298.311,147.748 299.148 C 149.019 299.660,149.012 299.819,147.715 299.899 C 146.811 299.954,145.537 298.702,144.885 297.115 C 143.892 294.700,143.771 294.960,144.143 298.718 C 144.758 304.924,141.976 307.411,139.185 303.151 C 137.437 300.484,137.407 300.000,138.987 300.000 C 142.746 300.000,144.603 288.956,141.035 287.823 C 139.619 287.374,138.462 286.487,138.462 285.851 C 138.462 284.262,142.713 285.954,143.974 288.044 C 145.369 290.356,148.718 290.198,148.718 287.821 C 148.718 286.763,148.121 285.897,147.391 285.897 C 146.476 285.897,146.476 285.127,147.391 283.418 C 148.121 282.054,148.681 280.179,148.637 279.251 C 148.592 278.323,147.936 279.006,147.178 280.769 L 145.800 283.974 144.715 279.487 C 143.406 274.079,144.348 268.756,146.390 270.017 C 147.250 270.549,147.477 270.334,146.952 269.485 C 145.733 267.512,142.326 269.045,142.226 271.612 C 142.181 272.770,141.172 271.699,139.984 269.231 C 138.797 266.763,137.247 264.320,136.541 263.802 C 135.737 263.212,135.839 262.852,136.814 262.840 C 137.670 262.829,138.948 263.898,139.653 265.216 C 140.576 266.940,141.883 267.429,144.322 266.963 C 146.398 266.566,148.185 267.004,148.938 268.094 C 149.816 269.363,149.936 269.047,149.357 266.987 C 148.886 265.314,149.110 264.103,149.889 264.103 C 150.628 264.103,151.655 265.689,152.170 267.628 C 152.685 269.567,153.207 271.442,153.329 271.795 C 153.450 272.147,153.972 273.734,154.489 275.321 C 155.005 276.907,155.874 278.205,156.421 278.205 C 156.967 278.205,157.811 279.786,158.296 281.718 C 159.695 287.293,164.167 289.378,163.134 283.974 C 162.797 282.212,161.992 280.769,161.344 280.769 C 160.696 280.769,160.821 279.546,161.621 278.050 C 162.432 276.536,162.511 275.681,161.800 276.120 C 161.044 276.588,160.600 275.266,160.711 272.879 C 160.849 269.902,160.297 268.759,158.601 268.504 C 156.321 268.163,151.902 263.367,149.266 258.374 C 145.996 252.180,144.035 249.239,141.026 246.018 C 133.543 238.007,132.716 236.435,136.313 237.059 C 136.895 237.160,137.020 236.677,136.593 235.985 C 136.165 235.293,135.013 235.035,134.032 235.412 C 132.927 235.836,130.401 233.620,127.389 229.586 C 121.565 221.785,121.126 221.669,121.250 227.964 M152.053 232.372 C 154.861 237.893,155.070 238.058,156.460 235.860 C 158.295 232.959,157.912 231.555,155.769 233.333 C 154.143 234.683,153.846 234.410,153.846 231.567 C 153.846 229.408,153.146 228.205,151.890 228.205 C 150.170 228.205,150.190 228.708,152.053 232.372 M157.106 238.374 C 156.658 239.098,156.862 240.757,157.559 242.059 C 158.257 243.362,159.225 247.426,159.711 251.089 C 160.788 259.206,162.325 260.791,161.969 253.418 L 161.712 248.077 162.738 252.564 L 163.765 257.051 163.934 252.307 C 164.047 249.133,163.415 247.178,162.023 246.400 C 160.159 245.356,160.206 245.051,162.478 243.451 C 163.965 242.404,164.692 240.872,164.237 239.744 C 163.317 237.462,158.268 236.492,157.106 238.374 M162.821 241.038 C 162.821 243.238,159.195 243.291,158.622 241.099 C 158.164 239.346,158.598 238.938,160.419 239.415 C 161.740 239.760,162.821 240.491,162.821 241.038 M142.697 259.271 C 143.095 261.903,142.956 264.343,142.387 264.695 C 141.448 265.275,139.792 258.483,139.758 253.910 C 139.731 250.365,141.967 254.443,142.697 259.271 M166.667 256.762 C 166.667 258.601,167.267 260.476,168.000 260.929 C 168.875 261.470,169.033 260.503,168.461 258.120 C 167.281 253.208,166.667 252.743,166.667 256.762 M176.825 256.130 C 176.771 256.637,176.534 258.061,176.297 259.295 C 175.835 261.711,177.548 262.357,178.846 260.256 C 179.282 259.551,178.883 258.934,177.960 258.884 C 177.037 258.835,177.394 258.359,178.752 257.826 C 180.963 256.960,180.997 256.772,179.073 256.034 C 177.891 255.580,176.879 255.623,176.825 256.130 M173.097 261.770 C 173.085 263.012,171.856 264.109,170.192 264.360 L 167.308 264.796 170.145 265.599 C 173.586 266.573,176.007 264.185,174.305 261.495 C 173.300 259.906,173.113 259.948,173.097 261.770 M166.300 273.097 C 167.292 276.890,168.964 277.388,168.255 273.679 C 167.922 271.938,167.194 270.513,166.637 270.513 C 166.080 270.513,165.929 271.676,166.300 273.097 M139.744 274.786 C 139.744 275.726,138.878 276.496,137.821 276.496 C 134.567 276.496,135.583 274.391,139.423 273.178 C 139.599 273.122,139.744 273.846,139.744 274.786 M153.047 288.462 C 153.332 294.895,153.965 297.969,154.958 297.751 C 155.973 297.528,156.249 299.150,155.831 302.879 C 155.321 307.429,155.400 307.696,156.304 304.487 C 156.901 302.372,157.457 297.949,157.541 294.658 C 157.627 291.264,158.386 288.349,159.295 287.921 C 160.176 287.507,159.364 287.369,157.489 287.614 C 155.292 287.902,154.283 287.533,154.651 286.575 C 154.964 285.758,154.636 283.684,153.921 281.968 C 152.920 279.566,152.719 281.062,153.047 288.462 M170.633 283.829 C 169.723 284.926,169.595 285.971,170.316 286.417 C 170.982 286.828,171.889 286.220,172.332 285.066 C 173.419 282.232,172.509 281.569,170.633 283.829 M150.297 287.179 C 150.297 289.647,150.561 290.657,150.884 289.423 C 151.206 288.189,151.206 286.170,150.884 284.936 C 150.561 283.702,150.297 284.712,150.297 287.179 M160.554 297.436 C 160.554 299.904,160.818 300.913,161.140 299.679 C 161.463 298.446,161.463 296.426,161.140 295.192 C 160.818 293.958,160.554 294.968,160.554 297.436 M163.967 296.474 C 163.797 300.081,164.201 306.158,164.828 309.410 C 165.433 312.552,166.639 313.817,166.755 311.432 C 166.804 310.433,167.067 307.890,167.341 305.782 C 167.717 302.889,167.521 302.417,166.542 303.859 C 165.602 305.244,165.355 304.096,165.645 299.679 C 165.864 296.330,165.607 293.590,165.073 293.590 C 164.539 293.590,164.041 294.888,163.967 296.474 M170.128 300.437 C 169.765 301.382,169.983 302.969,170.612 303.962 C 171.444 305.277,171.761 304.809,171.775 302.244 C 171.797 298.415,171.168 297.726,170.128 300.437 M117.445 302.028 C 116.290 305.038,116.503 308.974,117.821 308.974 C 118.455 308.974,118.974 306.955,118.974 304.487 C 118.974 299.545,118.618 298.971,117.445 302.028 M158.974 305.299 C 158.974 306.333,158.288 307.866,157.449 308.705 C 155.476 310.677,154.976 314.103,156.661 314.103 C 157.379 314.103,157.635 313.237,157.229 312.179 C 156.823 311.122,157.011 310.256,157.646 310.256 C 159.060 310.256,160.785 305.230,159.732 304.177 C 159.315 303.760,158.974 304.265,158.974 305.299 M118.726 312.072 C 119.155 313.189,120.068 314.103,120.757 314.103 C 122.442 314.103,121.387 311.189,119.470 310.550 C 118.533 310.238,118.247 310.824,118.726 312.072 M186.494 321.867 C 185.985 322.690,186.312 323.823,187.219 324.384 C 189.343 325.696,192.561 324.478,191.935 322.598 C 191.258 320.565,187.602 320.074,186.494 321.867 M123.406 326.603 C 124.311 327.747,124.078 328.205,122.593 328.205 C 121.154 328.205,120.544 327.119,120.614 324.679 C 120.672 322.670,121.021 321.981,121.427 323.077 C 121.819 324.135,122.709 325.721,123.406 326.603 M232.640 324.444 C 232.175 325.196,232.104 326.121,232.482 326.499 C 232.860 326.877,232.617 328.640,231.942 330.417 C 230.870 333.234,231.021 333.566,233.123 333.017 C 234.449 332.670,236.625 332.970,237.959 333.682 C 240.189 334.873,240.178 334.769,237.821 332.396 C 236.410 330.977,234.679 330.141,233.974 330.538 C 233.269 330.936,233.484 330.285,234.452 329.092 C 235.693 327.562,235.765 326.923,234.697 326.923 C 233.864 326.923,233.544 326.337,233.987 325.620 C 234.430 324.903,235.330 324.649,235.986 325.055 C 236.642 325.460,237.179 325.181,237.179 324.435 C 237.179 322.667,233.733 322.675,232.640 324.444 M166.203 331.410 C 166.609 332.468,167.745 333.333,168.727 333.333 C 171.092 333.333,171.008 336.454,168.590 338.462 C 165.862 340.725,162.821 337.938,162.821 333.176 C 162.821 329.277,164.957 328.162,166.203 331.410 M177.004 332.176 C 176.899 334.822,181.359 339.984,182.691 338.759 C 183.252 338.243,183.117 338.926,182.391 340.277 C 181.572 341.800,181.492 344.202,182.179 346.601 C 183.520 351.276,185.897 354.072,185.897 350.973 C 185.897 349.816,185.357 348.535,184.697 348.127 C 183.430 347.344,183.357 342.308,184.613 342.308 C 186.937 342.308,184.939 337.217,182.362 336.570 C 180.720 336.158,178.861 334.540,178.231 332.974 C 177.473 331.092,177.058 330.822,177.004 332.176 M241.127 335.577 C 241.037 340.397,241.358 341.028,243.910 341.045 C 246.027 341.060,246.330 341.359,245.047 342.172 C 243.572 343.107,243.572 343.388,245.047 343.974 C 246.008 344.357,245.064 344.782,242.949 344.919 C 240.833 345.057,239.993 345.410,241.081 345.705 C 242.170 345.999,243.706 347.951,244.496 350.043 C 245.869 353.681,248.718 355.331,248.718 352.488 C 248.718 351.742,249.316 351.500,250.047 351.952 C 252.323 353.359,250.942 343.708,248.491 341.077 C 246.864 339.331,246.669 338.472,247.794 338.016 C 248.655 337.667,248.109 337.336,246.581 337.281 C 244.767 337.215,243.357 335.956,242.516 333.654 C 241.293 330.307,241.223 330.404,241.127 335.577 M193.142 336.497 C 192.745 337.533,192.908 338.681,193.504 339.050 C 195.218 340.109,195.927 349.096,194.519 351.923 C 192.725 355.526,192.813 355.489,189.853 353.905 C 188.383 353.118,187.179 352.956,187.179 353.546 C 187.179 354.746,197.458 360.024,202.885 361.611 C 204.943 362.212,206.410 362.145,206.410 361.449 C 206.410 360.793,205.455 360.256,204.288 360.256 C 202.314 360.256,202.314 360.093,204.288 357.912 C 205.455 356.622,206.410 355.090,206.410 354.507 C 206.410 353.924,205.080 354.995,203.454 356.887 C 200.425 360.412,197.459 360.148,200.332 356.609 C 201.681 354.947,201.548 354.789,199.461 355.573 C 197.562 356.286,197.782 355.715,200.423 353.074 C 204.531 348.965,204.744 347.436,201.206 347.436 C 199.755 347.436,198.923 348.013,199.359 348.718 C 199.795 349.423,199.519 350.000,198.745 350.000 C 197.972 350.000,197.450 348.702,197.587 347.115 C 198.081 341.363,197.399 338.462,195.553 338.462 C 194.406 338.462,193.959 337.710,194.408 336.538 C 194.814 335.481,194.858 334.615,194.505 334.615 C 194.153 334.615,193.539 335.462,193.142 336.497 M228.983 336.643 C 227.438 340.671,228.226 344.793,230.805 346.173 C 232.235 346.938,233.066 348.113,232.653 348.782 C 231.753 350.237,233.362 350.350,235.513 348.983 C 236.532 348.335,235.709 347.411,233.073 346.244 C 229.564 344.691,229.342 344.302,231.194 342.948 C 232.349 342.104,232.870 340.989,232.352 340.472 C 230.978 339.097,231.125 336.680,232.649 335.597 C 233.434 335.039,233.115 334.647,231.868 334.635 C 230.709 334.624,229.411 335.528,228.983 336.643 M231.626 354.763 C 230.335 356.727,229.595 357.324,229.983 356.090 C 230.865 353.285,229.729 353.230,226.740 355.935 C 224.106 358.319,213.803 360.564,212.817 358.969 C 212.458 358.387,211.013 358.805,209.607 359.897 C 207.543 361.501,207.483 361.735,209.295 361.110 C 210.529 360.685,211.538 360.830,211.538 361.433 C 211.538 362.036,213.269 362.784,215.385 363.094 C 217.500 363.404,219.231 363.232,219.231 362.711 C 219.231 362.190,221.586 361.366,224.464 360.880 C 232.554 359.513,235.495 357.566,234.673 354.122 C 233.976 351.201,233.967 351.203,231.626 354.763 M171.624 355.938 C 173.997 356.974,176.241 357.520,176.609 357.152 C 177.381 356.380,171.096 353.795,168.827 353.951 C 167.991 354.008,169.250 354.903,171.624 355.938 M251.758 360.394 C 252.201 362.610,252.564 366.082,252.564 368.109 C 252.564 370.136,252.997 371.791,253.526 371.787 C 255.458 371.772,254.790 357.837,252.821 357.081 C 251.335 356.511,251.117 357.188,251.758 360.394 M163.632 360.443 C 161.412 361.733,161.506 361.964,164.917 363.616 C 170.817 366.473,170.286 372.505,164.152 372.302 C 160.423 372.178,160.285 372.251,163.377 372.713 C 165.554 373.038,166.517 373.659,165.664 374.186 C 164.580 374.856,164.687 376.057,166.069 378.721 C 168.396 383.206,168.410 383.003,165.705 383.837 C 164.471 384.218,165.961 384.308,169.016 384.039 C 175.840 383.437,176.569 382.796,173.699 379.926 C 172.128 378.355,171.919 377.523,173.007 377.160 C 173.862 376.875,175.416 377.861,176.459 379.351 C 178.486 382.244,183.446 381.137,183.232 377.840 C 183.156 376.666,182.972 376.677,182.484 377.885 C 181.576 380.136,179.487 379.884,179.487 377.524 C 179.487 376.444,178.622 375.228,177.564 374.823 C 176.506 374.417,175.641 373.281,175.641 372.299 C 175.641 371.316,174.705 370.513,173.561 370.513 C 171.857 370.513,171.770 370.165,173.077 368.590 C 173.955 367.532,174.118 366.667,173.440 366.667 C 172.761 366.667,171.554 365.236,170.758 363.487 C 169.736 361.245,168.668 360.553,167.136 361.141 C 165.668 361.704,165.264 361.488,165.891 360.474 C 167.015 358.655,166.717 358.651,163.632 360.443 M184.153 372.684 C 182.709 374.128,183.274 375.641,185.256 375.641 C 186.314 375.641,187.179 375.098,187.179 374.435 C 187.179 372.818,185.177 371.660,184.153 372.684 M196.551 390.064 C 196.962 393.061,197.700 400.849,198.192 407.372 C 198.683 413.894,199.562 419.231,200.144 419.231 C 200.726 419.231,200.865 420.107,200.454 421.179 C 200.043 422.250,200.134 427.010,200.657 431.756 C 201.286 437.470,201.912 439.542,202.511 437.889 C 203.371 435.516,203.451 435.532,204.152 438.210 C 206.295 446.405,207.933 440.521,207.025 427.885 C 205.256 403.244,205.350 391.215,207.318 390.460 C 208.444 390.028,208.767 390.324,208.190 391.258 C 207.577 392.250,207.980 392.472,209.405 391.925 C 210.578 391.475,211.538 391.625,211.538 392.259 C 211.538 392.893,210.240 393.661,208.654 393.967 C 206.568 394.369,206.923 394.571,209.936 394.697 C 212.228 394.793,214.103 394.313,214.103 393.630 C 214.103 392.947,214.928 392.705,215.936 393.092 C 217.474 393.682,217.367 394.735,215.268 399.630 C 213.620 403.475,213.031 406.869,213.540 409.582 C 213.965 411.847,213.713 420.281,212.980 428.324 C 212.246 436.368,211.259 449.006,210.785 456.410 C 209.860 470.849,209.027 470.717,206.508 455.736 C 204.832 445.768,201.862 439.215,203.037 448.077 C 203.411 450.897,204.116 458.397,204.605 464.744 C 205.368 474.652,207.365 484.661,207.611 479.808 C 207.656 478.926,208.331 478.205,209.112 478.205 C 209.892 478.205,210.194 479.082,209.783 480.153 C 209.372 481.224,208.950 486.828,208.845 492.606 C 208.740 498.384,208.010 504.142,207.224 505.402 C 206.154 507.115,206.197 508.339,207.395 510.256 C 208.730 512.395,208.675 512.821,207.062 512.821 C 205.998 512.821,205.091 512.099,205.045 511.218 C 203.983 490.802,203.421 485.145,202.389 484.507 C 201.706 484.085,201.291 483.215,201.467 482.575 C 201.643 481.934,201.291 475.929,200.684 469.231 C 199.332 454.284,199.495 455.633,198.219 448.888 C 197.636 445.808,196.958 441.770,196.712 439.913 C 194.578 423.819,194.113 417.132,195.054 416.090 C 195.659 415.420,196.113 413.978,196.064 412.885 C 196.001 411.505,195.663 411.682,194.957 413.462 C 194.303 415.110,193.601 410.912,192.990 401.697 C 192.467 393.816,192.423 386.749,192.890 385.992 C 194.557 383.294,195.816 384.695,196.551 390.064 M190.264 390.064 C 191.445 396.046,190.629 404.701,188.885 404.701 C 187.858 404.701,187.179 403.223,187.179 400.984 C 187.179 396.531,185.121 392.300,182.968 392.327 C 181.989 392.340,182.125 392.809,183.333 393.590 C 185.043 394.694,185.043 394.833,183.333 394.833 C 180.557 394.833,176.813 392.366,179.487 392.299 C 180.545 392.272,182.853 391.122,184.615 389.744 C 188.748 386.511,189.572 386.558,190.264 390.064 M223.870 394.438 C 222.785 396.439,221.874 397.671,221.846 397.176 C 221.759 395.652,224.742 389.699,225.309 390.266 C 225.602 390.559,224.954 392.436,223.870 394.438 M184.396 398.397 C 183.506 402.295,186.517 411.861,188.943 412.840 C 191.136 413.726,191.230 413.956,189.423 414.021 C 186.688 414.120,186.599 415.268,189.057 418.777 C 190.090 420.252,190.540 421.853,190.058 422.335 C 189.575 422.818,190.049 422.879,191.111 422.472 C 192.437 421.963,193.040 422.543,193.040 424.327 C 193.040 425.755,192.472 426.923,191.777 426.923 C 191.082 426.923,191.205 427.615,192.051 428.462 C 194.858 431.268,193.644 432.382,190.222 430.140 L 186.855 427.933 189.261 431.209 C 190.584 433.011,192.532 434.736,193.590 435.043 C 194.647 435.349,193.708 435.667,191.503 435.749 C 189.298 435.831,186.775 435.032,185.897 433.974 C 185.020 432.917,183.767 432.051,183.114 432.051 C 182.462 432.051,179.569 430.912,176.687 429.519 C 173.804 428.127,171.027 427.246,170.515 427.563 C 170.003 427.879,169.684 426.855,169.807 425.287 C 169.930 423.719,169.721 421.859,169.344 421.154 C 167.203 417.155,170.703 413.036,174.003 415.671 C 175.207 416.632,175.478 415.372,175.171 410.240 L 174.771 403.558 177.229 406.587 L 179.686 409.615 179.047 404.011 C 178.575 399.872,178.783 398.783,179.845 399.845 C 181.481 401.481,183.408 401.756,183.182 400.321 C 182.932 398.741,183.291 397.436,183.974 397.436 C 184.327 397.436,184.517 397.869,184.396 398.397 M244.540 406.769 C 241.482 408.002,241.101 408.725,241.725 412.110 C 242.121 414.264,242.537 417.324,242.649 418.910 C 242.762 420.497,243.334 421.795,243.922 421.795 C 244.509 421.795,244.916 424.247,244.826 427.244 C 244.735 430.240,245.282 436.154,246.041 440.385 C 247.990 451.249,247.887 460.679,245.833 459.445 C 244.600 458.704,244.568 458.908,245.695 460.331 C 246.501 461.348,247.444 463.333,247.790 464.744 C 248.435 467.366,249.321 460.677,248.936 456.090 C 248.833 454.856,249.318 453.846,250.015 453.846 C 250.712 453.846,251.282 453.235,251.282 452.488 C 251.282 451.742,250.712 451.483,250.015 451.914 C 249.306 452.352,249.063 451.875,249.462 450.834 C 249.856 449.809,251.276 448.683,252.619 448.332 C 255.504 447.578,255.961 449.578,257.100 467.949 C 258.019 482.771,260.256 486.588,260.256 473.333 C 260.256 468.256,259.766 464.103,259.167 464.103 C 258.568 464.103,258.360 459.691,258.706 454.300 C 259.165 447.152,258.940 444.742,257.873 445.401 C 257.016 445.931,256.410 445.477,256.410 444.306 C 256.410 443.207,256.884 442.308,257.462 442.308 C 258.041 442.308,258.121 439.279,257.639 435.577 C 257.158 431.875,257.071 428.030,257.446 427.033 C 257.876 425.889,257.580 425.559,256.643 426.138 C 255.672 426.738,255.422 426.367,255.921 425.067 C 256.423 423.758,255.952 423.077,254.546 423.077 C 252.417 423.077,252.437 427.809,254.609 438.248 C 255.066 440.449,254.793 440.977,253.577 440.246 C 252.341 439.502,252.364 439.795,253.669 441.404 C 255.734 443.950,254.748 447.436,251.963 447.436 C 250.724 447.436,250.000 446.254,250.000 444.231 C 250.000 442.468,249.382 441.026,248.626 441.026 C 247.871 441.026,248.159 440.119,249.267 439.011 C 251.863 436.415,251.810 435.082,249.038 433.300 C 246.935 431.948,246.940 431.903,249.122 432.587 C 250.888 433.141,251.291 432.778,250.791 431.082 C 248.865 424.546,248.618 410.880,250.483 414.086 C 251.504 415.840,252.067 417.715,251.735 418.253 C 251.403 418.791,251.525 419.869,252.008 420.650 C 253.634 423.281,255.079 418.793,254.262 413.651 C 253.703 410.140,253.993 408.386,255.264 407.581 C 256.758 406.635,256.736 406.443,255.128 406.412 C 254.071 406.392,252.051 406.143,250.641 405.859 C 249.231 405.575,246.485 405.985,244.540 406.769 M203.846 408.425 C 203.846 408.828,202.981 410.023,201.923 411.081 C 199.836 413.168,199.574 412.857,200.778 409.720 C 201.510 407.814,203.846 406.828,203.846 408.425 M247.266 410.574 C 246.192 412.580,245.547 412.924,245.142 411.707 C 244.821 410.746,245.351 409.458,246.318 408.846 C 248.880 407.223,248.971 407.388,247.266 410.574 M166.453 413.782 C 162.496 422.685,153.846 435.220,153.846 432.051 C 153.846 431.263,153.180 431.030,152.366 431.533 C 151.442 432.104,151.234 431.884,151.814 430.946 C 152.324 430.121,153.278 429.777,153.935 430.183 C 154.591 430.589,155.128 430.054,155.128 428.995 C 155.128 426.903,159.544 418.667,162.598 415.064 C 164.475 412.850,167.282 411.916,166.453 413.782 M248.628 424.679 C 248.677 425.208,248.141 425.641,247.436 425.641 C 246.731 425.641,246.194 424.054,246.244 422.115 C 246.328 418.826,248.276 420.920,248.628 424.679 M129.305 432.708 C 129.726 434.883,129.596 434.907,127.702 433.014 C 125.239 430.550,125.027 429.069,127.244 429.807 C 128.125 430.101,129.053 431.406,129.305 432.708 M225.777 434.440 C 226.486 433.321,226.891 434.975,226.903 439.038 C 226.927 446.755,223.900 445.305,223.642 437.477 C 223.556 434.845,223.751 433.479,224.077 434.440 C 224.577 435.915,224.842 435.915,225.777 434.440 M186.627 438.605 C 187.242 439.600,187.751 439.612,188.347 438.647 C 189.619 436.589,195.161 438.424,194.317 440.623 C 193.932 441.626,193.018 446.193,192.287 450.770 C 191.556 455.347,190.042 461.380,188.924 464.176 C 187.472 467.804,187.277 469.727,188.243 470.891 C 189.069 471.886,189.152 473.242,188.456 474.368 C 187.753 475.505,187.832 476.534,188.662 477.047 C 189.509 477.570,188.973 479.072,187.221 481.086 C 181.355 487.834,182.575 526.923,188.653 526.923 C 190.205 526.923,202.564 534.937,202.564 535.944 C 202.564 536.998,194.576 538.477,193.627 537.599 C 193.295 537.292,193.750 536.591,194.639 536.041 C 195.633 535.427,194.776 535.043,192.415 535.043 C 190.265 535.043,188.912 535.589,189.342 536.284 C 189.825 537.067,187.793 537.178,183.836 536.586 C 180.387 536.069,177.223 535.095,176.806 534.422 C 176.388 533.749,175.436 533.373,174.690 533.586 C 173.944 533.800,173.307 533.397,173.275 532.692 C 173.243 531.987,174.583 531.513,176.253 531.638 C 179.081 531.850,179.198 531.605,177.965 528.068 C 177.237 525.979,176.913 522.848,177.245 521.109 C 177.578 519.371,177.353 517.949,176.745 517.949 C 175.105 517.949,175.407 514.394,177.095 513.832 C 178.057 513.511,177.860 512.659,176.515 511.313 C 175.396 510.195,174.795 508.966,175.179 508.582 C 175.562 508.198,175.203 506.832,174.380 505.545 C 172.966 503.335,172.923 503.333,173.606 505.515 C 174.029 506.864,173.802 507.499,173.062 507.042 C 172.365 506.611,171.795 506.966,171.795 507.830 C 171.795 508.695,171.441 509.047,171.008 508.614 C 170.575 508.181,171.378 505.922,172.793 503.593 C 174.662 500.518,175.064 498.570,174.263 496.474 C 173.492 494.460,173.631 493.584,174.721 493.570 C 175.707 493.558,175.573 493.093,174.359 492.308 C 173.301 491.624,173.013 491.047,173.718 491.026 C 174.423 491.004,174.135 490.427,173.077 489.744 C 171.861 488.958,171.728 488.494,172.716 488.481 C 173.575 488.470,173.946 487.596,173.541 486.538 C 173.073 485.321,173.558 484.615,174.863 484.615 C 175.996 484.615,176.923 485.206,176.923 485.927 C 176.923 486.648,178.365 486.294,180.128 485.139 C 184.530 482.254,184.157 480.615,179.471 482.249 C 175.149 483.756,171.162 482.830,172.519 480.635 C 173.704 478.718,170.349 476.745,168.505 478.275 C 167.553 479.066,166.094 478.650,164.274 477.072 L 161.495 474.662 166.937 474.587 C 169.930 474.545,172.816 475.198,173.349 476.038 C 174.100 477.218,174.324 477.218,174.339 476.037 C 174.350 475.197,173.782 474.154,173.077 473.718 C 172.372 473.282,171.804 471.950,171.815 470.758 C 171.831 468.892,172.005 468.858,173.060 470.513 C 174.345 472.529,179.340 470.739,178.416 468.593 C 178.180 468.044,178.757 467.106,179.698 466.509 C 181.074 465.637,181.032 465.416,179.487 465.385 C 178.114 465.357,178.003 465.066,179.099 464.370 C 180.023 463.782,180.207 462.703,179.562 461.660 C 178.790 460.411,178.025 461.214,176.824 464.535 C 175.189 469.056,171.795 469.163,171.795 464.693 C 171.795 463.781,171.362 462.792,170.833 462.496 C 170.304 462.201,170.534 462.112,171.342 462.299 C 172.151 462.486,173.081 461.237,173.408 459.524 C 173.836 457.288,173.421 456.387,171.938 456.329 C 170.486 456.272,170.681 455.921,172.596 455.148 C 174.378 454.428,175.321 452.912,175.321 450.765 C 175.321 448.960,174.801 447.803,174.167 448.196 C 173.532 448.588,173.172 448.158,173.366 447.241 C 173.559 446.324,172.420 445.376,170.833 445.134 C 169.247 444.892,167.949 444.095,167.949 443.363 C 167.949 442.632,168.796 442.358,169.831 442.756 C 170.866 443.153,172.054 442.926,172.471 442.252 C 172.887 441.577,172.521 441.026,171.657 441.026 C 170.793 441.026,170.456 440.655,170.909 440.202 C 171.362 439.749,172.574 440.076,173.601 440.929 C 175.551 442.547,180.769 438.851,180.769 435.852 C 180.769 434.277,185.256 436.386,186.627 438.605 M173.370 443.829 C 174.009 445.746,176.923 446.801,176.923 445.116 C 176.923 444.427,176.009 443.513,174.893 443.085 C 173.644 442.606,173.058 442.892,173.370 443.829 M223.624 452.474 C 221.695 454.319,221.592 454.247,222.385 451.603 C 222.917 449.828,222.704 448.718,221.831 448.718 C 220.906 448.718,220.987 448.097,222.065 446.932 C 223.463 445.423,223.873 445.557,224.724 447.804 C 225.413 449.627,225.068 451.094,223.624 452.474 M235.897 446.795 C 235.897 447.853,236.474 448.718,237.179 448.718 C 237.885 448.718,238.462 447.853,238.462 446.795 C 238.462 445.737,237.885 444.872,237.179 444.872 C 236.474 444.872,235.897 445.737,235.897 446.795 M169.954 449.019 C 170.131 450.223,169.591 450.848,168.677 450.497 C 166.805 449.779,166.506 445.887,168.371 446.508 C 169.073 446.742,169.785 447.872,169.954 449.019 M224.126 463.480 C 223.055 464.552,225.965 470.344,227.965 471.122 C 229.187 471.597,229.538 470.639,229.247 467.629 C 228.877 463.801,226.076 461.531,224.126 463.480 M249.067 473.077 C 249.067 476.250,249.317 477.548,249.623 475.962 C 249.928 474.375,249.928 471.779,249.623 470.192 C 249.317 468.606,249.067 469.904,249.067 473.077 M169.872 471.795 C 169.436 472.500,168.214 473.077,167.156 473.077 C 166.099 473.077,165.590 472.500,166.026 471.795 C 166.461 471.090,167.683 470.513,168.741 470.513 C 169.799 470.513,170.308 471.090,169.872 471.795 M263.495 475.814 C 264.293 479.958,265.385 480.351,265.385 476.496 C 265.385 474.615,264.841 473.077,264.176 473.077 C 263.512 473.077,263.205 474.309,263.495 475.814 M242.605 485.897 C 242.605 488.365,242.869 489.375,243.191 488.141 C 243.514 486.907,243.514 484.888,243.191 483.654 C 242.869 482.420,242.605 483.429,242.605 485.897 M264.400 487.179 C 264.400 489.647,264.664 490.657,264.986 489.423 C 265.309 488.189,265.309 486.170,264.986 484.936 C 264.664 483.702,264.400 484.712,264.400 487.179 M200.099 488.141 C 200.153 490.080,200.454 493.974,200.768 496.795 C 201.082 499.615,200.792 504.808,200.124 508.333 C 199.382 512.250,199.371 514.910,200.096 515.171 C 200.748 515.406,201.269 516.848,201.254 518.376 L 201.225 521.154 198.957 518.207 C 197.455 516.254,195.950 515.543,194.499 516.100 C 193.027 516.665,192.308 516.304,192.308 515.001 C 192.308 513.687,193.142 513.279,194.891 513.736 C 196.773 514.228,197.281 513.908,196.762 512.555 C 196.370 511.534,196.660 509.091,197.407 507.126 C 198.566 504.080,198.469 503.667,196.752 504.326 C 195.601 504.768,195.072 504.560,195.516 503.842 C 195.943 503.150,195.650 501.570,194.864 500.331 C 193.753 498.580,193.605 499.579,194.197 504.808 C 194.726 509.471,194.507 511.538,193.484 511.538 C 192.656 511.538,192.293 510.450,192.657 509.057 C 193.438 506.072,190.360 501.282,187.662 501.282 C 186.322 501.282,187.082 499.604,190.129 495.833 C 192.551 492.837,195.206 489.087,196.029 487.500 C 198.068 483.570,199.979 483.872,200.099 488.141 M226.903 495.192 C 226.887 497.585,226.650 497.749,225.516 496.154 C 224.501 494.728,224.332 495.791,224.863 500.268 C 225.468 505.382,225.272 506.188,223.579 505.538 C 222.145 504.988,222.008 504.507,223.095 503.835 C 224.156 503.179,223.708 502.056,221.600 500.088 C 219.465 498.095,219.242 497.527,220.833 498.135 C 222.494 498.769,223.077 498.346,223.077 496.505 C 223.077 495.137,223.462 493.632,223.932 493.162 C 225.622 491.472,226.923 492.361,226.903 495.192 M264.142 496.859 C 264.176 500.175,264.350 500.349,265.556 498.274 C 266.543 496.577,266.532 495.506,265.517 494.492 C 264.486 493.460,264.113 494.101,264.142 496.859 M229.487 500.000 C 229.487 502.115,229.964 503.846,230.547 503.846 C 231.130 503.846,231.353 502.115,231.043 500.000 C 230.732 497.885,230.255 496.154,229.983 496.154 C 229.710 496.154,229.487 497.885,229.487 500.000 M250.000 506.762 C 250.000 509.306,250.496 511.693,251.101 512.068 C 251.707 512.442,251.968 510.622,251.682 508.023 C 250.988 501.728,250.000 500.987,250.000 506.762 M220.510 506.731 C 220.514 507.954,218.039 507.822,214.744 506.425 C 212.688 505.552,213.005 505.380,216.344 505.553 C 218.634 505.672,220.509 506.202,220.510 506.731 M265.385 513.462 C 265.385 514.519,265.962 515.385,266.667 515.385 C 267.372 515.385,267.949 514.519,267.949 513.462 C 267.949 512.404,267.372 511.538,266.667 511.538 C 265.962 511.538,265.385 512.404,265.385 513.462 M254.151 517.263 C 254.484 519.001,254.248 520.689,253.628 521.013 C 253.007 521.337,253.236 521.457,254.135 521.279 C 256.238 520.863,257.114 514.103,255.064 514.103 C 254.143 514.103,253.785 515.344,254.151 517.263 M239.927 517.808 C 238.666 518.607,238.592 519.160,239.659 519.819 C 240.468 520.319,240.779 521.834,240.350 523.185 C 239.915 524.558,240.174 525.641,240.939 525.641 C 241.692 525.641,242.308 523.622,242.308 521.154 C 242.308 516.184,242.364 516.264,239.927 517.808 M125.629 521.140 C 126.501 522.190,127.787 522.694,128.487 522.262 C 129.261 521.783,129.078 521.042,128.021 520.372 C 125.256 518.620,123.899 519.055,125.629 521.140 M134.258 523.994 C 134.829 525.482,134.575 525.768,133.353 525.012 C 132.223 524.314,131.961 524.458,132.570 525.443 C 133.073 526.257,134.254 526.923,135.195 526.923 C 136.136 526.923,137.242 527.802,137.654 528.876 C 138.234 530.387,137.902 530.568,136.189 529.678 C 134.971 529.045,132.821 528.991,131.410 529.558 C 128.977 530.536,128.994 530.594,131.731 530.679 C 133.317 530.729,134.615 531.346,134.615 532.051 C 134.615 532.756,135.741 533.333,137.116 533.333 C 138.491 533.333,140.261 534.343,141.050 535.577 C 142.313 537.554,142.412 537.477,141.875 534.936 C 141.522 533.267,141.891 532.034,142.748 532.011 C 143.564 531.988,143.077 531.096,141.667 530.028 C 140.256 528.960,139.099 527.168,139.096 526.046 C 139.092 524.924,137.823 523.538,136.276 522.966 C 133.994 522.122,133.614 522.316,134.258 523.994 M232.515 531.410 C 232.938 532.513,232.541 533.333,231.584 533.333 C 230.666 533.333,229.915 532.468,229.915 531.410 C 229.915 530.353,230.334 529.487,230.846 529.487 C 231.358 529.487,232.109 530.353,232.515 531.410 M150.336 534.220 C 151.579 534.544,152.303 535.282,151.946 535.860 C 151.589 536.438,152.159 537.242,153.212 537.646 C 154.266 538.050,155.128 537.938,155.128 537.396 C 155.128 535.657,152.115 533.329,150.064 533.482 C 148.553 533.595,148.618 533.772,150.336 534.220 M155.816 539.626 C 153.520 540.524,153.595 540.685,156.672 541.457 C 158.527 541.922,161.390 541.712,163.035 540.989 C 165.674 539.830,165.528 539.752,161.795 540.331 C 159.192 540.735,157.865 540.501,158.345 539.724 C 159.231 538.291,159.231 538.291,155.816 539.626 M146.409 541.008 C 140.434 542.423,140.323 543.080,146.072 543.010 C 148.797 542.976,150.792 542.565,150.505 542.097 C 150.219 541.628,150.709 540.952,151.595 540.595 C 153.956 539.643,151.269 539.857,146.409 541.008 M183.021 541.877 C 183.907 542.235,184.379 542.935,184.071 543.433 C 183.763 543.932,184.693 544.429,186.138 544.537 C 188.674 544.728,188.682 544.672,186.370 542.921 C 185.052 541.924,183.397 541.134,182.692 541.168 C 181.987 541.201,182.135 541.520,183.021 541.877 M153.846 543.590 C 154.904 544.273,156.923 544.801,158.333 544.762 L 160.897 544.692 158.333 543.590 C 154.501 541.943,151.298 541.943,153.846 543.590 M165.705 543.191 C 166.939 543.514,168.958 543.514,170.192 543.191 C 171.426 542.869,170.417 542.605,167.949 542.605 C 165.481 542.605,164.471 542.869,165.705 543.191 M213.999 543.751 C 215.777 544.438,217.581 544.470,218.226 543.826 C 218.870 543.181,217.546 542.669,215.124 542.627 C 211.168 542.557,211.096 542.629,213.999 543.751 M223.077 544.167 C 223.077 545.161,228.070 545.748,229.422 544.912 C 230.257 544.396,229.182 543.935,227.000 543.873 C 224.842 543.811,223.077 543.944,223.077 544.167 M34.615 591.488 L 34.615 603.846 40.934 603.846 C 48.608 603.846,51.932 601.253,50.645 596.272 C 50.173 594.444,49.828 590.929,49.878 588.462 C 50.008 582.065,48.733 580.802,41.250 579.916 L 34.615 579.130 34.615 591.488 M132.051 583.313 C 132.051 586.815,131.698 587.240,129.395 586.509 C 125.508 585.276,121.795 589.187,121.795 594.514 C 121.795 601.817,123.591 603.768,130.194 603.635 L 135.989 603.519 135.623 591.927 C 135.271 580.784,132.051 573.019,132.051 583.313 M139.744 582.051 C 139.744 583.704,140.393 584.613,141.346 584.295 C 142.228 584.001,142.949 582.991,142.949 582.051 C 142.949 581.111,142.228 580.101,141.346 579.808 C 140.393 579.490,139.744 580.399,139.744 582.051 M180.769 583.420 C 180.769 586.814,180.406 587.237,178.113 586.509 C 174.226 585.276,170.513 589.187,170.513 594.514 C 170.513 601.802,172.313 603.768,178.866 603.636 L 184.615 603.521 184.615 591.504 C 184.615 581.677,184.265 579.487,182.692 579.487 C 181.401 579.487,180.769 580.779,180.769 583.420 M213.795 581.090 C 209.073 584.729,210.514 590.830,216.667 593.246 C 220.073 594.584,221.795 596.056,221.795 597.630 C 221.795 600.571,216.022 600.946,214.921 598.077 C 214.168 596.116,210.256 595.339,210.256 597.151 C 210.256 600.300,214.573 603.846,218.406 603.846 C 227.536 603.846,229.085 593.454,220.460 590.066 C 217.174 588.775,215.416 587.328,215.653 586.109 C 216.192 583.332,218.625 582.911,220.913 585.199 C 223.353 587.638,225.641 587.762,225.641 585.455 C 225.641 580.786,217.894 577.931,213.795 581.090 M244.231 580.769 C 243.296 582.282,244.509 584.615,246.230 584.615 C 246.893 584.615,247.436 583.462,247.436 582.051 C 247.436 579.347,245.571 578.601,244.231 580.769 M287.179 591.492 C 287.179 601.619,287.526 603.846,289.103 603.846 C 290.446 603.846,291.026 602.493,291.026 599.359 C 291.026 595.247,291.341 594.872,294.799 594.872 C 306.021 594.872,304.649 581.501,293.269 579.962 L 287.179 579.139 287.179 591.492 M305.128 582.051 C 305.128 583.476,305.983 584.615,307.051 584.615 C 308.120 584.615,308.974 583.476,308.974 582.051 C 308.974 580.627,308.120 579.487,307.051 579.487 C 305.983 579.487,305.128 580.627,305.128 582.051 M269.282 582.628 C 267.442 584.848,267.087 596.449,268.701 601.603 C 269.581 604.412,275.641 604.692,275.641 601.923 C 275.641 600.865,274.776 600.000,273.718 600.000 C 270.866 600.000,271.134 591.528,274.038 589.881 C 276.125 588.699,276.133 588.492,274.147 586.933 C 272.972 586.011,271.818 584.157,271.583 582.813 C 271.175 580.492,271.060 580.483,269.282 582.628 M45.916 586.859 C 45.258 590.333,38.462 590.702,38.462 587.265 C 38.462 585.162,39.274 584.615,42.402 584.615 C 45.462 584.615,46.247 585.117,45.916 586.859 M297.205 587.500 C 296.576 591.926,291.026 592.294,291.026 587.910 C 291.026 585.227,291.637 584.615,294.320 584.615 C 297.003 584.615,297.538 585.151,297.205 587.500 M55.968 588.242 C 53.489 590.981,53.114 600.037,55.385 602.308 C 57.941 604.864,63.841 604.166,65.475 601.114 C 66.871 598.504,66.730 598.421,62.315 599.249 C 58.626 599.941,57.692 599.716,57.692 598.135 C 57.692 596.726,58.987 596.154,62.179 596.154 C 67.489 596.154,68.350 592.709,64.103 588.462 C 60.919 585.278,58.704 585.218,55.968 588.242 M69.771 587.073 C 68.107 588.717,69.354 603.846,71.154 603.846 C 72.576 603.846,73.077 602.355,73.077 598.122 C 73.077 593.710,73.665 592.083,75.641 591.026 C 79.703 588.852,78.861 585.956,74.258 586.270 C 72.088 586.417,70.069 586.779,69.771 587.073 M80.342 586.752 C 78.457 588.637,79.407 603.846,81.410 603.846 C 82.792 603.846,83.333 602.433,83.333 598.823 C 83.333 592.559,84.370 589.744,86.676 589.744 C 87.986 589.744,88.462 591.622,88.462 596.795 C 88.462 606.215,91.842 606.905,92.504 597.620 C 93.225 587.524,90.134 583.131,85.195 587.231 C 83.881 588.321,83.333 588.352,83.333 587.336 C 83.333 585.746,81.673 585.421,80.342 586.752 M98.168 587.912 C 95.266 590.814,95.655 591.339,100.000 590.385 C 105.168 589.250,105.111 592.000,99.930 593.806 C 92.858 596.272,94.918 603.134,102.820 603.433 L 108.844 603.661 108.189 595.767 C 107.380 586.034,103.269 582.812,98.168 587.912 M111.538 595.126 C 111.538 602.023,111.941 603.846,113.462 603.846 C 114.878 603.846,115.385 602.368,115.385 598.234 C 115.385 592.958,117.771 588.711,119.669 590.609 C 120.133 591.073,120.513 590.260,120.513 588.802 C 120.513 586.603,119.748 586.173,116.026 586.278 L 111.538 586.406 111.538 595.126 M139.744 594.765 C 139.744 601.574,140.180 603.846,141.490 603.846 C 143.850 603.846,143.712 587.005,141.346 586.217 C 140.165 585.824,139.744 588.070,139.744 594.765 M146.802 586.959 C 145.063 588.698,146.207 603.846,148.077 603.846 C 149.459 603.846,150.000 602.433,150.000 598.823 C 150.000 592.559,151.036 589.744,153.342 589.744 C 154.652 589.744,155.128 591.622,155.128 596.795 C 155.128 602.208,155.575 603.846,157.051 603.846 C 159.545 603.846,159.835 589.150,157.372 587.613 C 155.536 586.468,147.773 585.987,146.802 586.959 M189.744 588.462 C 186.792 591.414,186.388 598.209,188.964 601.603 C 191.062 604.366,196.556 604.528,198.744 601.892 C 200.833 599.374,199.255 597.770,196.416 599.525 C 193.728 601.188,191.026 600.408,191.026 597.970 C 191.026 596.713,192.568 596.154,196.034 596.154 C 200.581 596.154,200.977 595.888,200.340 593.269 C 198.647 586.311,194.002 584.203,189.744 588.462 M231.090 586.747 C 227.401 588.235,229.404 591.248,233.485 590.351 C 236.544 589.679,237.349 589.881,236.910 591.211 C 236.595 592.167,235.127 593.128,233.647 593.346 C 225.309 594.578,226.400 603.113,234.936 603.434 L 241.026 603.663 241.026 596.107 C 241.026 587.173,237.729 584.067,231.090 586.747 M244.375 586.945 C 242.535 589.923,243.850 603.846,245.971 603.845 C 247.723 603.843,248.061 602.403,247.983 595.266 C 247.898 587.424,246.324 583.793,244.375 586.945 M252.401 586.859 C 251.249 593.649,252.171 603.846,253.937 603.846 C 255.444 603.846,255.892 602.663,255.716 599.142 C 255.405 592.896,256.325 589.744,258.458 589.744 C 260.613 589.744,262.016 594.883,261.263 600.016 C 260.814 603.076,261.172 603.846,263.043 603.846 C 264.946 603.846,265.381 602.826,265.367 598.397 C 265.334 588.039,262.826 584.432,257.599 587.229 C 255.899 588.139,255.128 588.138,255.128 587.225 C 255.128 585.717,252.651 585.385,252.401 586.859 M305.128 594.765 C 305.128 602.102,305.509 603.846,307.110 603.846 C 309.665 603.846,309.304 587.063,306.731 586.213 C 305.550 585.823,305.128 588.072,305.128 594.765 M314.103 588.462 C 308.842 593.723,312.264 603.846,319.303 603.846 C 321.379 603.846,323.077 603.605,323.077 603.310 C 323.077 603.015,323.431 601.850,323.865 600.721 C 324.502 599.061,323.853 598.735,320.478 599.014 C 318.021 599.217,316.071 598.700,315.738 597.756 C 315.343 596.639,316.798 596.154,320.545 596.154 C 325.759 596.154,325.894 596.049,325.069 592.628 C 323.487 586.071,318.419 584.145,314.103 588.462 M328.205 595.022 C 328.205 602.011,328.605 603.846,330.128 603.846 C 331.575 603.846,332.051 602.296,332.051 597.585 C 332.051 592.298,332.471 591.215,334.750 590.619 C 338.721 589.580,336.996 586.640,332.276 586.402 L 328.205 586.197 328.205 595.022 M338.462 595.128 C 338.462 602.023,338.864 603.846,340.385 603.846 C 341.801 603.846,342.308 602.368,342.308 598.234 C 342.308 592.958,344.694 588.711,346.592 590.609 C 347.056 591.073,347.436 590.318,347.436 588.932 C 347.436 586.905,346.556 586.410,342.949 586.410 L 338.462 586.410 338.462 595.128 M350.714 588.747 C 344.877 597.080,353.148 609.159,360.000 602.308 C 362.709 599.598,361.660 598.579,357.051 599.444 C 353.431 600.123,352.564 599.886,352.564 598.220 C 352.564 596.713,353.780 596.154,357.051 596.154 C 362.515 596.154,363.486 591.253,358.689 587.893 C 354.831 585.191,353.072 585.379,350.714 588.747 M62.501 591.987 C 62.814 592.927,61.930 593.590,60.363 593.590 C 58.788 593.590,57.692 592.762,57.692 591.573 C 57.692 589.216,61.693 589.561,62.501 591.987 M131.495 592.829 C 132.595 597.211,129.911 601.948,127.475 599.926 C 125.604 598.373,124.950 592.144,126.496 590.598 C 128.308 588.786,130.754 589.877,131.495 592.829 M180.128 594.889 C 180.128 598.504,179.638 599.359,177.564 599.359 C 174.881 599.359,173.470 595.192,174.895 591.479 C 176.355 587.673,180.128 590.132,180.128 594.889 M195.860 592.067 C 196.144 592.918,195.189 593.590,193.697 593.590 C 191.033 593.590,190.235 592.244,191.907 590.572 C 193.095 589.384,195.236 590.194,195.860 592.067 M321.475 591.987 C 321.810 592.993,320.776 593.590,318.697 593.590 C 315.461 593.590,314.481 592.357,316.284 590.554 C 317.603 589.235,320.858 590.134,321.475 591.987 M357.399 592.067 C 357.682 592.918,356.727 593.590,355.235 593.590 C 352.572 593.590,351.774 592.244,353.446 590.572 C 354.633 589.384,356.774 590.194,357.399 592.067 M276.923 594.872 C 276.923 596.752,277.778 597.436,280.128 597.436 C 282.479 597.436,283.333 596.752,283.333 594.872 C 283.333 592.991,282.479 592.308,280.128 592.308 C 277.778 592.308,276.923 592.991,276.923 594.872 M46.558 595.357 C 47.479 597.758,44.993 600.000,41.410 600.000 C 39.120 600.000,38.462 599.285,38.462 596.795 C 38.462 593.172,45.256 591.965,46.558 595.357 M104.310 598.077 C 103.904 599.135,102.768 600.000,101.786 600.000 C 100.804 600.000,100.000 599.135,100.000 598.077 C 100.000 597.019,101.135 596.154,102.524 596.154 C 104.241 596.154,104.812 596.769,104.310 598.077 M237.179 597.476 C 237.179 599.011,233.563 600.657,232.509 599.603 C 231.386 598.480,233.290 596.154,235.332 596.154 C 236.348 596.154,237.179 596.749,237.179 597.476 " stroke="none" fill="#000000" fill-rule="evenodd"></path></g></svg>