<svg class="img-fluid" id="outputsvg" xmlns="http://www.w3.org/2000/svg" style="transform: matrix(); cursor: move; max-height: none; transition: transform 200ms ease-in-out 0s;"  viewBox="0 0 4520 6920"><g id="l5yWthZApIMHdx64zET40jH" fill="rgb(243,244,239)" style="transform: none;"><g style="transform: none;"><path id="phgEJCC1L" d="M38 6912 l-28 -3 0 -135 0 -134 28 0 c15 1 61 5 102 10 95 11 416 -4 436 -20 20 -17 258 -34 284 -20 16 9 23 5 42 -21 21 -29 27 -31 70 -26 41 3 48 1 54 -16 5 -17 12 -19 62 -13 68 8 82 19 82 61 0 32 0 32 78 49 42 10 88 22 101 27 15 6 35 6 55 0 17 -5 43 -12 58 -15 36 -8 27 -40 -21 -71 -62 -38 -131 -146 -131 -203 0 -16 8 -53 18 -83 16 -46 16 -58 5 -79 -7 -14 -13 -33 -13 -42 0 -23 -2 -22 -53 3 -34 16 -53 19 -99 14 l-58 -7 0 -39 c0 -37 3 -41 38 -55 84 -34 282 -135 282 -144 0 -6 14 -10 31 -10 l31 0 -32 -41 c-29 -35 -32 -46 -27 -85 4 -35 0 -50 -16 -71 -11 -14 -24 -44 -28 -67 -4 -22 -13 -61 -19 -86 -6 -25 -14 -61 -18 -80 -9 -47 -30 -73 -72 -90 -19 -7 -48 -25 -65 -40 -16 -15 -42 -30 -57 -34 -15 -3 -33 -12 -40 -19 -7 -8 -31 -17 -53 -21 -21 -4 -55 -21 -74 -37 -20 -16 -41 -29 -48 -29 -23 0 -53 -39 -53 -69 0 -17 10 -47 22 -67 l22 -37 -58 -54 c-47 -44 -63 -53 -93 -53 l-36 0 7 -63 c3 -35 15 -89 26 -120 26 -74 25 -91 -6 -133 -37 -48 -43 -112 -14 -151 12 -17 20 -41 18 -54 -3 -22 -10 -25 -88 -36 -60 -9 -93 -10 -111 -2 -37 14 -209 5 -294 -16 -53 -13 -94 -16 -170 -11 l-100 6 -3 -715 -2 -715 34 0 c27 0 35 5 40 23 10 41 36 48 133 36 48 -6 102 -17 118 -24 29 -13 27 -13 -36 -14 -73 -1 -91 -13 -124 -83 -22 -49 -76 -95 -118 -103 l-34 -7 -8 -76 c-9 -103 -12 -1195 -5 -2025 l5 -668 2235 -3 c1386 -2 2242 1 2254 6 17 9 18 19 12 121 -4 62 -9 138 -12 170 -6 57 -6 57 -39 57 -27 0 -34 -5 -39 -25 -5 -21 -12 -25 -46 -25 -22 0 -72 -9 -111 -20 -61 -16 -83 -18 -167 -10 -53 5 -124 16 -157 24 -75 19 -145 20 -187 2 -18 -7 -57 -21 -87 -30 -48 -16 -55 -16 -69 -3 -19 20 -9 61 23 93 46 46 24 105 -50 135 l-30 12 25 7 c14 5 105 6 203 2 l178 -5 -3 38 c-3 38 -4 39 -63 57 -33 10 -84 18 -113 18 -50 0 -58 4 -117 52 -35 29 -62 58 -61 63 1 6 20 20 42 32 31 18 55 23 114 23 l76 0 67 68 c48 48 67 75 67 93 0 24 4 27 53 34 79 10 96 9 172 -14 39 -11 98 -21 133 -21 l62 0 28 -45 c25 -42 30 -46 62 -43 l35 3 6 90 c4 50 4 366 1 703 l-5 612 -37 0 c-31 0 -50 -12 -136 -85 -139 -120 -137 -120 -185 67 -21 82 -40 152 -43 157 -3 4 6 19 19 31 27 25 35 88 13 94 -7 2 -51 16 -98 30 -47 14 -103 29 -125 34 -34 7 -41 12 -43 35 -2 15 0 27 3 27 6 0 82 -22 227 -66 26 -8 69 -14 96 -14 42 0 50 3 60 25 33 71 87 -2 164 -225 22 -62 25 -65 58 -68 l35 -3 -1 338 -2 338 -143 -2 c-79 -1 -175 -8 -214 -14 -38 -6 -89 -15 -112 -19 -33 -5 -43 -4 -43 7 0 9 -14 13 -42 13 -42 0 -44 -2 -70 -53 -15 -28 -30 -73 -33 -99 -3 -27 -8 -69 -11 -94 -5 -34 -2 -49 7 -55 9 -6 -5 -9 -37 -9 -35 0 -54 -5 -57 -14 -3 -8 -25 -16 -49 -19 -24 -3 -72 -13 -108 -22 -177 -43 -393 52 -431 190 -12 43 -23 44 -190 13 l-119 -22 0 -32 c0 -18 3 -34 8 -36 15 -6 91 -210 92 -246 0 -39 -17 -15 -24 33 -10 63 -49 154 -86 198 -27 32 -37 37 -73 37 -39 0 -48 -5 -104 -62 -64 -66 -83 -99 -83 -149 0 -17 -7 -44 -17 -62 -15 -29 -17 -30 -24 -12 -18 47 -5 103 41 170 11 17 20 46 20 68 0 34 -2 37 -27 37 -40 0 -237 -42 -241 -52 -2 -4 -17 -8 -34 -8 -17 0 -57 -10 -89 -22 -55 -21 -59 -25 -59 -55 0 -17 10 -49 22 -70 31 -54 126 -161 149 -168 11 -4 26 -22 34 -41 12 -29 19 -34 47 -34 18 1 48 9 66 19 l34 17 40 -40 c29 -30 38 -46 33 -61 -10 -29 -23 -115 -24 -151 -1 -23 12 -48 49 -94 28 -34 50 -64 50 -67 0 -22 -94 74 -105 106 -3 11 -15 31 -26 45 -26 33 -83 36 -99 6 -17 -31 -44 -42 -77 -29 -15 6 -50 15 -78 20 -78 14 -239 63 -224 67 8 3 27 14 43 25 15 11 60 30 100 42 l71 21 9 68 9 67 -44 45 c-24 25 -55 52 -69 60 -14 9 -48 42 -75 75 l-50 60 -65 -4 c-52 -4 -264 -43 -387 -72 -19 -4 -23 -12 -23 -44 0 -38 0 -38 48 -45 26 -4 65 -14 87 -22 l40 -14 -35 6 c-19 3 -57 10 -85 15 -27 6 -76 13 -107 16 l-58 5 0 -43 c0 -74 15 -90 104 -117 43 -13 76 -26 73 -28 -2 -3 -16 0 -31 6 -15 5 -43 10 -62 10 -32 0 -34 -2 -34 -35 0 -23 15 -60 46 -112 60 -102 204 -293 221 -293 7 0 13 -6 13 -13 0 -24 273 -282 375 -354 124 -88 261 -172 295 -180 14 -3 27 -9 30 -13 28 -37 310 -90 482 -90 91 0 162 22 174 55 3 7 15 16 28 19 35 9 84 59 108 112 19 42 23 70 26 190 4 147 3 154 -54 324 -3 9 1 7 10 -5 30 -37 88 -236 93 -320 10 -148 -35 -263 -127 -328 -130 -92 -130 -91 -199 -95 -79 -5 -325 30 -402 57 -154 53 -450 235 -629 386 -226 192 -466 484 -561 681 -16 35 -35 64 -42 65 -7 0 -39 6 -72 13 -57 12 -60 14 -65 46 -4 29 -10 34 -52 47 -35 10 -51 21 -67 48 -18 31 -25 35 -63 35 -24 0 -49 -4 -57 -9 -8 -5 -37 -1 -75 10 -33 10 -77 19 -97 19 -21 0 -42 7 -50 16 -12 14 -9 20 15 41 20 17 32 21 39 14 49 -49 305 62 602 261 125 84 256 177 305 218 45 37 109 75 116 68 2 -2 -27 -27 -64 -56 -37 -28 -95 -78 -129 -111 -54 -51 -63 -65 -63 -95 0 -32 5 -38 57 -69 32 -18 85 -39 118 -47 67 -15 119 -38 182 -81 31 -22 53 -29 87 -29 25 0 46 5 46 10 0 6 16 10 35 10 19 0 59 9 88 20 54 20 113 35 272 66 44 9 99 23 123 31 39 15 42 18 42 54 0 26 -6 41 -17 48 -15 8 -11 10 20 11 29 0 37 4 37 18 0 11 11 24 24 30 13 6 30 23 38 39 16 35 31 32 41 -7 9 -36 38 -56 92 -65 44 -7 176 11 185 25 3 4 23 13 45 19 66 17 87 37 83 79 -3 34 -7 37 -68 63 -36 16 -108 44 -160 63 -85 31 -95 37 -98 61 -3 27 -5 27 -55 22 -44 -4 -69 2 -156 34 -57 22 -121 39 -142 39 -37 0 -39 -1 -39 -33 0 -18 5 -38 11 -44 6 -6 12 -44 13 -83 1 -68 0 -70 -16 -51 -13 17 -28 21 -75 21 -33 0 -64 5 -71 12 -20 20 -15 92 8 113 16 14 20 31 20 76 l0 58 -47 22 c-27 12 -73 24 -103 27 l-54 5 -63 -69 -62 -69 -1 58 0 57 -40 0 c-22 0 -40 5 -40 10 0 18 -74 10 -126 -14 l-51 -24 16 44 c14 39 19 44 48 44 52 0 63 8 63 50 0 37 0 37 -77 70 -43 18 -95 35 -115 37 -36 5 -37 6 -23 26 8 12 15 40 15 64 0 38 -2 42 -27 45 -20 2 -29 9 -31 26 -3 18 -10 22 -37 22 -49 0 -65 -9 -65 -36 0 -33 -13 -30 -82 16 -45 30 -70 40 -99 40 -38 0 -39 -1 -39 -34 0 -27 -7 -39 -30 -56 -20 -15 -30 -30 -30 -48 0 -15 -9 -47 -20 -71 -16 -34 -24 -42 -37 -36 -10 4 -57 10 -104 13 -78 4 -91 2 -143 -23 -31 -15 -95 -58 -142 -97 -80 -66 -86 -69 -99 -52 -50 68 -15 144 159 342 103 117 188 266 200 348 9 71 23 81 77 53 24 -12 58 -32 74 -44 17 -13 44 -26 61 -29 18 -4 40 -16 50 -27 9 -10 27 -19 40 -19 13 0 25 -8 28 -18 8 -24 61 -42 122 -42 41 0 51 -4 59 -22 6 -14 38 -37 82 -58 l72 -35 0 -51 c1 -50 2 -51 39 -62 91 -29 292 -51 292 -33 0 7 23 11 62 11 56 0 75 6 176 56 113 56 211 84 295 84 39 0 77 27 77 55 0 23 39 103 86 175 49 76 143 169 234 230 69 47 270 150 360 185 l55 21 1 120 1 119 25 3 c25 3 25 1 31 -78 5 -84 17 -110 48 -110 12 0 19 -7 19 -19 0 -11 2 -25 5 -33 3 -9 -22 -24 -78 -46 -45 -18 -118 -49 -162 -68 -44 -18 -111 -45 -150 -60 -97 -36 -125 -55 -177 -121 -25 -32 -76 -92 -113 -133 -72 -80 -95 -121 -95 -170 0 -26 4 -30 28 -31 24 -1 23 -2 -10 -11 -34 -9 -38 -13 -44 -55 -8 -53 3 -251 18 -310 5 -23 25 -59 44 -81 29 -35 139 -108 187 -125 9 -4 17 -15 17 -26 0 -41 82 -67 129 -41 12 6 30 6 52 -1 106 -31 225 -59 254 -59 18 0 42 8 53 17 38 34 192 212 192 222 0 6 14 17 30 26 25 13 30 22 30 50 0 32 3 35 29 35 20 0 41 13 72 43 24 23 66 61 92 84 l49 42 -8 135 -7 136 84 -44 c61 -31 85 -49 87 -65 3 -17 10 -21 43 -21 28 0 39 4 39 15 0 18 39 35 77 35 84 0 138 46 131 113 l-3 32 -72 -3 -73 -2 0 36 0 36 -57 -2 c-84 -3 -92 -1 -61 16 16 8 28 23 28 33 0 10 7 24 15 31 16 13 21 95 6 104 -10 7 -23 120 -15 141 9 23 98 65 138 65 32 0 35 -2 41 -40 5 -31 2 -46 -14 -69 -12 -16 -21 -45 -21 -65 0 -36 0 -36 44 -36 28 0 52 7 67 19 22 18 23 19 26 322 2 167 1 440 -3 607 l-6 302 -34 0 -34 0 0 -65 c0 -36 -4 -65 -9 -65 -5 0 -10 -55 -13 -122 l-4 -121 -43 -38 c-37 -33 -46 -37 -64 -28 -34 19 -186 6 -227 -20 -19 -11 -41 -21 -48 -21 -7 0 -35 -18 -61 -40 -40 -34 -54 -40 -93 -40 -38 0 -52 -5 -76 -30 -44 -43 -76 -40 -123 13 -22 23 -41 50 -45 60 -5 17 30 77 45 77 4 0 26 18 49 40 37 34 42 45 42 84 0 43 1 44 38 50 44 8 51 8 120 0 63 -7 102 12 102 51 0 22 4 25 35 25 29 0 37 5 45 26 20 53 6 214 -19 214 -4 0 -15 18 -25 40 -9 22 -30 47 -45 56 -15 9 -33 31 -39 48 -6 17 -21 36 -33 41 -13 6 -36 27 -52 47 -29 36 -29 38 -13 62 9 14 16 41 16 61 0 21 10 52 25 75 14 22 25 43 25 48 0 4 16 14 37 21 33 12 37 12 52 -7 19 -23 72 -52 97 -52 10 0 26 -7 36 -16 10 -10 41 -19 69 -22 46 -4 54 -2 70 19 l19 24 0 -26 c0 -29 11 -33 123 -45 l47 -6 0 146 0 146 -27 0 c-16 0 -64 9 -108 19 -44 11 -127 24 -185 31 -172 18 -253 33 -281 52 -62 42 -326 77 -356 47 -8 -8 -24 -3 -59 15 -52 28 -80 31 -132 17 -20 -6 -32 -6 -32 0 0 5 -7 9 -16 9 -8 0 -29 13 -47 30 -22 20 -46 31 -77 35 -50 7 -124 26 -216 55 -33 10 -109 26 -169 35 -61 9 -111 18 -113 19 -3 3 385 19 408 17 8 -1 256 -4 550 -6 302 -3 587 -10 655 -17 66 -6 143 -12 170 -12 l50 -1 3 130 c1 72 -2 136 -6 143 -8 12 -1087 17 -3342 15 -360 0 -756 0 -880 1 -124 0 -237 0 -252 -2z m1602 -302 c45 -23 44 -21 29 -53 -9 -19 -66 -53 -76 -44 -1 2 -5 29 -9 60 -8 65 -4 68 56 37z m65 -223 c7 -7 4 -8 -8 -3 -10 3 -41 6 -68 6 -28 0 -49 5 -49 11 0 13 110 1 125 -14z m565 -168 c0 -18 -26 -33 -35 -20 -3 5 -2 24 2 41 6 31 7 32 20 15 7 -11 13 -26 13 -36z m-511 12 c12 -8 13 -12 1 -25 -12 -15 -14 -15 -30 -1 -15 14 -31 15 -92 8 -93 -10 -88 -10 -88 2 0 6 39 13 87 16 49 3 93 6 98 7 6 1 16 -2 24 -7z m1110 -7 c2 -2 -5 -4 -16 -4 -11 0 -26 -7 -33 -15 -15 -18 -30 -19 -30 -2 0 23 23 37 49 30 14 -3 28 -7 30 -9z m-954 -3 c7 -12 -12 -24 -25 -16 -11 7 -4 25 10 25 5 0 11 -4 15 -9z m230 -11 c0 -22 -29 -18 -33 3 -3 14 1 18 15 15 10 -2 18 -10 18 -18z m484 -9 c-15 -5 -22 6 -14 19 6 9 10 9 16 -1 5 -8 4 -15 -2 -18z m741 7 c0 -13 8 -18 29 -18 54 0 43 -23 -21 -44 -13 -4 -18 -16 -18 -42 0 -40 20 -63 58 -64 13 0 22 -6 22 -15 0 -8 -7 -15 -15 -15 -8 0 -15 4 -15 9 0 4 -46 11 -101 15 -84 6 -104 4 -118 -8 -10 -9 -21 -16 -24 -16 -4 0 -6 33 -5 73 l3 72 -42 3 c-29 2 -43 8 -43 18 0 10 12 14 44 14 34 0 46 4 50 18 5 15 19 17 101 17 84 0 95 -2 95 -17z m380 14 c0 -13 -12 -22 -22 -16 -10 6 -1 24 13 24 5 0 9 -4 9 -8z m-960 -88 c0 -44 2 -46 39 -61 37 -14 40 -19 43 -57 3 -36 6 -41 30 -44 21 -3 32 -14 50 -48 24 -49 71 -84 112 -84 l26 0 0 -120 0 -120 -25 0 c-22 0 -25 -4 -25 -35 0 -23 7 -41 20 -52 42 -37 16 -153 -42 -184 -31 -17 -48 -35 -48 -51 0 -25 -23 -38 -64 -38 -24 0 -54 -8 -71 -20 -38 -25 -39 -25 -53 5 -6 14 -18 25 -26 25 -8 0 -28 16 -43 35 -24 30 -34 35 -70 35 -23 0 -52 5 -65 10 -23 11 -68 70 -68 90 0 5 16 28 36 50 36 39 36 39 95 33 55 -5 59 -4 59 14 0 11 7 26 15 33 8 7 15 18 15 25 0 13 30 25 67 25 30 0 34 22 31 150 l-3 105 -37 3 -38 3 0 -54 c0 -51 -3 -57 -40 -91 -46 -42 -54 -43 -97 -16 -100 60 -43 170 85 162 l52 -4 0 76 0 76 -34 0 c-19 0 -38 5 -42 11 -3 6 16 33 45 60 35 33 51 56 51 74 0 14 5 25 10 25 6 0 10 -21 10 -46z m-471 -87 c8 -10 7 -17 -1 -25 -19 -19 -28 -14 -28 13 0 27 12 32 29 12z m-291 -7 c13 0 22 -6 22 -15 0 -17 -35 -21 -45 -5 -8 13 -82 13 -90 0 -5 -8 -11 -7 -21 1 -23 19 -8 26 53 23 32 -2 68 -3 81 -4z m-158 -251 l0 -26 112 -6 c61 -4 116 -11 122 -17 5 -5 32 -10 58 -10 45 0 48 -2 48 -25 0 -15 7 -39 15 -55 15 -28 14 -30 -3 -30 -11 0 -33 3 -50 6 -26 5 -31 12 -34 38 -3 29 -5 31 -49 34 -41 3 -51 -1 -83 -31 -32 -31 -36 -40 -36 -86 l0 -51 -35 0 c-24 0 -35 5 -35 15 0 12 -16 15 -88 15 -76 0 -89 2 -100 20 -7 11 -21 20 -32 20 -17 0 -20 7 -20 40 l0 41 30 -16 c40 -21 82 -19 114 6 24 19 26 26 26 95 0 72 1 74 20 62 12 -8 20 -24 20 -39z m1716 -315 c39 -41 42 -69 11 -105 -37 -44 -64 -53 -95 -33 -35 22 -72 65 -72 83 0 22 76 91 100 91 13 0 37 -15 56 -36z m-1264 3 c43 -75 53 -87 81 -87 25 0 27 -2 17 -20 -6 -11 -22 -27 -35 -36 -22 -14 -26 -14 -57 8 -18 12 -34 23 -34 23 -1 0 -5 30 -9 68 -5 56 -4 67 9 67 8 0 21 -10 28 -23z m1129 -283 c-9 -25 -11 -57 -6 -100 7 -68 20 -84 67 -84 22 0 22 0 3 -19 -16 -16 -30 -18 -72 -14 l-53 6 0 104 c0 96 2 105 20 110 15 4 20 14 20 36 0 29 1 30 17 14 15 -15 16 -21 4 -53z m-827 -95 c15 -25 15 -32 3 -62 -8 -18 -27 -41 -42 -51 -26 -17 -30 -17 -56 -2 -15 9 -39 16 -53 16 -25 0 -26 2 -26 65 0 64 0 65 28 65 15 1 38 7 52 14 21 12 28 12 51 -1 14 -9 34 -28 43 -44z m-534 -57 c0 -20 -62 -72 -86 -72 -18 0 -74 50 -74 66 0 11 18 14 80 14 44 0 80 -4 80 -8z m626 -286 c19 -19 34 -42 34 -51 0 -19 -62 -85 -80 -85 -7 0 -30 18 -52 39 -39 39 -39 40 -24 70 17 32 52 61 74 61 8 0 29 -15 48 -34z m1158 19 c45 -13 55 -21 69 -54 9 -21 17 -43 17 -49 0 -8 21 -12 58 -12 64 0 100 -14 60 -23 -12 -3 -49 -9 -80 -12 -58 -7 -58 -7 -58 19 0 19 -5 26 -20 26 -12 0 -20 7 -20 16 0 29 -31 47 -88 52 l-56 5 30 23 c35 28 24 27 88 9z m-1876 -162 c14 -11 13 -13 -9 -13 -23 0 -25 3 -20 38 4 29 6 32 9 12 2 -14 11 -31 20 -37z m1042 -106 c0 -2 -9 -12 -20 -22 -19 -18 -20 -17 -20 3 0 15 6 22 20 22 11 0 20 -2 20 -3z m-70 -60 c0 -2 -24 -19 -52 -37 -29 -19 -105 -84 -168 -145 -63 -62 -125 -115 -137 -119 -16 -5 -23 -18 -28 -49 -11 -69 -15 -76 -59 -102 -24 -14 -45 -25 -49 -25 -7 0 7 51 21 76 9 17 104 127 187 219 44 49 285 202 285 182z m-550 -296 c-1 -3 -9 -16 -20 -29 -14 -17 -25 -22 -40 -17 -23 7 -20 33 8 66 15 17 17 17 34 2 10 -9 18 -19 18 -22z m-295 -71 c27 -27 58 -50 68 -50 15 0 18 -6 15 -32 -3 -30 -6 -33 -40 -36 -23 -2 -47 4 -64 14 -29 20 -74 85 -74 109 0 9 -8 19 -17 23 -14 5 -12 8 12 13 17 4 35 7 40 8 6 0 33 -21 60 -49z m1613 -251 c19 -7 22 -13 14 -21 -7 -7 -12 -22 -12 -35 0 -13 -7 -26 -15 -29 -8 -4 -15 -12 -15 -19 0 -7 -17 -16 -37 -20 -20 -4 -54 -15 -75 -26 -31 -16 -38 -25 -38 -49 0 -27 -3 -30 -30 -30 -16 0 -30 5 -30 10 0 6 7 10 15 10 11 0 15 11 15 38 0 53 -29 82 -80 82 -29 0 -40 4 -40 15 0 9 9 15 21 15 61 0 139 38 139 68 0 12 12 13 71 8 39 -4 83 -12 97 -17z m-408 -220 c13 -7 12 -9 -2 -14 -12 -5 -18 -18 -18 -39 0 -24 -6 -36 -24 -46 -14 -7 -31 -10 -40 -7 -15 6 -36 65 -36 105 0 22 3 22 53 16 28 -4 59 -10 67 -15z m-1330 -362 c0 -2 -15 -16 -32 -33 l-33 -29 29 33 c28 30 36 37 36 29z m-630 -77 c0 -3 14 -14 31 -24 29 -17 30 -19 13 -37 -15 -17 -19 -18 -34 -4 -11 10 -37 15 -73 15 -65 0 -163 39 -130 51 20 8 193 7 193 -1z m1638 -935 c12 -25 22 -52 22 -59 0 -8 18 -38 41 -68 l40 -53 -45 50 c-27 30 -49 66 -55 91 -6 23 -17 47 -26 54 -16 13 -20 30 -7 30 4 0 18 -20 30 -45z m-2660 -85 c13 -23 24 -30 48 -30 16 0 34 4 40 9 5 6 30 4 64 -5 30 -8 70 -14 90 -14 21 0 50 -10 71 -24 27 -19 52 -26 100 -28 57 -3 64 -5 67 -25 4 -28 -24 -83 -42 -83 -26 0 -215 68 -324 116 -108 48 -152 77 -152 101 0 23 20 14 38 -17z m742 -611 c0 -17 -63 -69 -83 -69 -23 0 -77 28 -77 40 0 4 10 17 23 27 18 14 37 17 80 15 31 -2 57 -8 57 -13z m3037 -96 c37 -10 68 -24 71 -33 3 -8 11 -19 19 -23 8 -5 13 -26 13 -54 l0 -45 -160 5 c-168 5 -163 4 -218 55 -7 6 -18 12 -23 12 -18 0 -89 50 -89 63 0 9 35 12 131 14 106 1 135 5 148 17 8 9 22 14 29 11 7 -3 43 -13 79 -22z m-3423 -140 c33 -46 38 -83 10 -83 -9 0 -14 -11 -14 -30 l0 -31 -32 17 c-18 9 -50 32 -71 52 l-37 36 42 43 c23 24 48 43 55 43 7 0 28 -21 47 -47z m846 -78 c0 -14 4 -25 9 -25 14 0 0 -41 -15 -47 -8 -3 -14 -13 -14 -23 0 -10 -6 -23 -13 -29 -16 -13 -35 5 -61 58 -22 46 -20 61 7 61 12 1 33 7 47 15 35 20 40 19 40 -10z m188 -70 c8 -57 13 -65 36 -65 13 0 26 -7 30 -15 4 -12 -3 -15 -31 -15 -28 0 -45 8 -70 32 -38 36 -39 44 -16 70 21 23 47 19 51 -7z m282 -103 c0 -10 -50 -35 -57 -28 -3 2 8 11 24 20 34 18 33 18 33 8z m-930 -147 c30 -17 116 -20 126 -3 9 14 34 -65 33 -107 0 -16 -6 -41 -14 -55 -8 -14 -14 -40 -15 -58 0 -30 4 -35 48 -53 26 -11 55 -24 64 -29 29 -16 95 -11 130 9 18 10 48 22 66 26 28 6 32 11 32 38 0 24 -10 40 -42 70 -41 37 -42 40 -24 53 24 17 46 2 46 -32 0 -22 4 -24 43 -24 58 0 87 -22 87 -66 0 -31 4 -37 36 -50 47 -20 43 -48 -13 -89 -34 -24 -42 -36 -42 -62 -1 -33 -1 -33 48 -33 33 0 56 6 74 20 14 11 29 20 34 20 6 0 35 18 66 39 l56 39 16 -24 c11 -17 25 -24 49 -24 l34 0 7 95 7 95 -31 37 -32 38 38 5 c46 6 209 -3 218 -12 4 -3 10 -30 14 -60 11 -82 24 -98 75 -98 40 0 44 -2 64 -44 28 -55 28 -70 -3 -94 -14 -11 -30 -37 -37 -58 -11 -31 -23 -42 -66 -64 -30 -15 -57 -32 -62 -40 -7 -11 -114 -14 -594 -15 -403 -1 -583 2 -576 9 5 5 10 21 10 35 1 15 14 42 30 61 20 23 30 45 30 67 0 30 -5 36 -42 53 -24 10 -70 43 -102 73 -70 63 -73 84 -27 182 22 49 36 66 55 71 17 4 28 15 32 33 12 47 15 48 54 26z"></path><path id="pDNVSfvgN" d="M4240 3710 c0 -22 -5 -58 -12 -79 -13 -43 -8 -41 -145 -59 -35 -4 -67 -12 -72 -17 -4 -6 -30 -37 -57 -71 -83 -103 -194 -233 -204 -239 -6 -3 -10 -22 -10 -42 l0 -35 238 5 c235 5 473 31 522 57 19 10 20 20 20 243 0 128 -4 237 -8 243 -7 10 -176 34 -242 34 -28 0 -30 -2 -30 -40z"></path></g></g><g id="l5JJue9dYuUDi4XJxtPkhze" fill="rgb(224,222,217)" style="transform: none;"><g style="transform: none;"><path id="p8rBe9jE6" d="M1 6143 c3 -1205 12 -1826 27 -1831 6 -2 12 4 12 15 0 16 9 18 102 15 71 -2 125 2 173 13 99 24 192 29 237 14 62 -20 288 13 288 43 0 5 -7 11 -15 14 -9 4 -15 19 -15 39 0 18 -9 44 -21 58 -19 25 -19 28 -4 61 9 19 23 40 31 47 20 17 18 108 -5 176 -11 32 -22 73 -25 91 -5 29 -3 32 12 28 25 -8 71 20 137 82 l56 54 -35 51 c-37 56 -35 80 6 92 13 4 39 19 58 34 42 33 77 43 102 30 14 -8 18 -6 18 9 0 18 37 42 64 42 7 0 25 13 40 29 15 15 44 34 64 40 44 15 69 46 76 92 3 19 10 54 16 79 6 25 15 64 19 87 4 24 15 51 25 62 25 28 40 89 26 106 -9 11 -6 22 17 51 l28 37 -63 -7 c-84 -10 -90 -13 -94 -49 -3 -28 -8 -32 -43 -40 -23 -4 -68 -4 -105 2 -36 5 -124 13 -197 16 -126 6 -133 5 -145 -14 -10 -16 -23 -21 -53 -21 -23 0 -79 -13 -125 -30 -82 -28 -85 -31 -96 -67 -9 -34 -19 -42 -91 -80 -76 -40 -85 -43 -189 -48 -60 -3 -125 -8 -144 -13 -31 -7 -35 -12 -38 -44 -3 -36 -18 -48 -64 -48 -17 0 -18 21 -18 309 l0 309 53 10 c100 21 112 24 134 34 32 16 47 70 40 147 -5 53 -3 74 13 110 11 24 20 58 20 77 l0 34 -55 0 c-44 0 -55 3 -55 16 0 15 -10 16 -75 11 l-75 -5 0 69 c0 39 4 69 10 69 6 0 10 7 10 15 0 9 -6 12 -15 9 -13 -5 -15 10 -15 100 0 103 1 106 23 106 303 2 2003 3 3101 2 1038 -2 1311 -5 1318 -14 11 -19 10 -206 -2 -213 -6 -3 -10 -44 -10 -91 0 -83 0 -84 25 -84 l25 0 0 220 0 220 -2260 0 -2260 0 1 -777z"></path><path id="pASzEnorf" d="M1315 6701 c-32 -15 -157 -41 -192 -41 -18 0 -33 -4 -33 -10 0 -5 11 -10 25 -10 20 0 25 -5 25 -24 0 -28 -15 -41 -52 -48 -22 -4 -29 0 -39 24 -16 40 -25 42 -60 17 l-31 -22 -24 29 c-13 16 -23 32 -24 37 0 12 -39 8 -71 -9 -28 -14 -33 -14 -55 1 -19 12 -29 13 -46 4 -24 -13 -113 -6 -133 11 -8 6 -29 10 -47 8 -33 -3 -33 -4 -36 -59 -3 -55 -3 -55 -45 -70 -38 -14 -42 -19 -45 -53 -2 -24 5 -55 19 -84 18 -39 22 -63 21 -139 l-1 -93 103 0 c137 0 163 6 171 37 6 24 7 24 24 9 22 -20 77 -21 85 -1 8 22 59 19 74 -5 8 -14 23 -20 47 -20 19 0 35 -4 35 -10 0 -5 5 -10 10 -10 6 0 28 -11 50 -25 44 -28 121 -38 84 -11 -43 32 34 37 101 7 65 -29 87 -25 98 19 5 19 13 39 18 44 14 16 11 58 -11 120 l-20 58 22 41 c32 63 68 107 110 133 21 13 38 30 38 38 0 7 9 21 20 31 19 18 20 17 20 -2 0 -11 -7 -26 -15 -33 -17 -14 -20 -40 -5 -40 6 0 10 6 10 13 0 8 9 22 20 32 14 13 20 29 18 49 -3 29 -6 31 -73 43 -102 19 -167 24 -190 14z"></path><path id="p17KImbm7F" d="M3238 6523 c-32 -2 -58 -7 -58 -11 0 -4 16 -18 35 -32 19 -14 35 -33 35 -43 0 -15 3 -16 20 -7 11 6 20 7 20 1 0 -13 50 -23 63 -13 38 30 105 9 159 -50 28 -29 55 -30 44 -1 -10 24 24 42 77 43 44 0 48 2 45 23 -2 16 -11 23 -33 25 -16 2 -34 8 -40 13 -5 5 -27 9 -50 9 -22 0 -64 9 -93 20 -58 22 -133 30 -224 23z"></path><path id="p19FSV8pPd" d="M2733 6181 c4 -18 -4 -33 -43 -69 -47 -45 -48 -46 -27 -57 23 -12 25 -24 12 -64 -7 -22 -5 -23 19 -17 24 6 26 5 14 -13 -10 -16 -10 -23 0 -33 20 -20 15 -41 -8 -35 -32 8 -25 -25 14 -67 19 -20 39 -36 45 -36 5 0 12 -17 14 -37 3 -28 4 -22 5 20 3 88 22 59 22 -33 0 -93 -5 -110 -34 -110 -36 0 -66 -12 -66 -25 0 -7 -7 -18 -15 -25 -8 -7 -15 -20 -15 -29 0 -14 -12 -17 -62 -19 -77 -3 -118 -34 -118 -89 l0 -32 102 -3 102 -3 -42 -44 c-46 -49 -56 -83 -21 -74 15 4 28 -4 50 -31 17 -20 37 -36 45 -36 8 0 22 -17 32 -37 18 -41 30 -53 50 -53 9 0 11 7 7 20 -4 11 -3 19 2 18 4 -2 26 8 47 22 25 15 41 20 43 13 3 -8 14 -8 35 -3 37 11 58 28 58 47 0 17 12 30 58 62 32 22 32 22 32 111 0 62 4 90 13 93 8 3 4 12 -13 28 l-25 24 24 3 c20 3 22 8 17 34 -3 17 -6 46 -6 64 0 33 -1 34 -43 34 -24 0 -48 -5 -53 -10 -23 -23 -104 37 -104 77 0 48 61 103 115 103 29 0 33 15 8 28 -21 12 -64 92 -57 104 4 5 17 -1 30 -13 l24 -22 -13 26 c-8 19 -20 27 -39 27 -14 0 -28 -5 -30 -12 -2 -6 -12 -9 -21 -5 -12 4 -17 18 -17 45 0 36 -3 40 -40 55 -43 17 -52 41 -23 63 25 18 14 24 -53 31 -56 6 -57 6 -51 -16z"></path><path id="p16rlLyBEr" d="M3987 6163 c-15 -7 -27 -10 -27 -6 0 4 -4 2 -9 -6 -7 -10 -13 -11 -30 -2 -18 10 -21 9 -21 -8 0 -11 4 -21 9 -23 5 -1 -3 -21 -18 -44 -21 -29 -27 -49 -23 -72 2 -19 -2 -40 -12 -54 -28 -39 -20 -89 20 -136 19 -23 42 -42 49 -42 13 0 31 -35 27 -55 -1 -5 13 -17 30 -25 17 -9 39 -31 49 -50 10 -19 23 -41 29 -47 29 -34 39 -109 20 -157 -12 -32 -30 -34 -30 -3 0 38 -12 67 -26 67 -10 0 -14 -16 -14 -61 0 -54 -3 -64 -30 -91 l-30 -30 -36 21 c-42 25 -77 27 -94 5 -11 -12 -25 -14 -67 -8 -50 6 -53 5 -53 -16 0 -16 4 -20 15 -16 15 6 17 1 17 -47 1 -21 -10 -37 -38 -60 -80 -66 -94 -86 -94 -132 0 -29 7 -51 23 -71 58 -74 77 -78 77 -15 0 25 -7 44 -20 56 -25 23 -25 25 6 58 21 23 31 27 54 22 16 -4 49 -3 75 0 l45 7 0 47 0 47 36 -4 c32 -4 34 -6 20 -21 -9 -10 -16 -32 -16 -49 0 -31 1 -32 48 -32 26 0 71 -9 99 -19 45 -16 54 -17 72 -5 33 23 132 29 169 10 44 -23 52 -21 107 27 l49 43 4 122 c3 67 8 122 13 122 5 0 10 30 11 68 2 81 21 -290 21 -403 -1 -44 -3 -217 -6 -385 -5 -299 -5 -304 -27 -322 -21 -17 -50 -24 -50 -12 0 3 10 19 21 36 20 27 21 38 15 116 -9 110 -18 128 -43 85 -14 -25 -23 -31 -40 -27 -28 7 -141 -43 -155 -69 -13 -25 -2 -181 15 -208 9 -14 8 -22 -6 -37 -9 -10 -17 -26 -17 -35 0 -9 -8 -21 -17 -26 -15 -9 -11 -10 17 -11 20 0 40 4 45 8 6 5 64 5 130 0 66 -4 126 -6 133 -3 9 3 12 182 12 849 l0 844 -86 43 c-47 24 -81 45 -75 47 6 2 11 15 11 28 0 13 5 24 10 24 6 0 10 5 10 10 0 6 -7 10 -16 10 -27 0 -11 34 24 49 23 11 32 21 32 38 0 19 -5 23 -33 23 -27 0 -45 -10 -87 -51 -37 -36 -57 -48 -69 -43 -9 4 -19 8 -23 8 -4 1 -13 7 -19 14 -7 6 -21 12 -31 12 -27 0 -91 35 -105 58 -16 26 -44 32 -76 15z"></path><path id="phBCSHHgb" d="M3573 5070 c0 -41 2 -58 4 -37 2 20 2 54 0 75 -2 20 -4 3 -4 -38z"></path><path id="p04MoCwZm" d="M2955 4514 c17 -13 18 -16 5 -24 -8 -5 -19 -10 -23 -10 -13 0 -240 -140 -262 -161 -17 -16 -17 -19 -3 -19 10 0 18 -10 20 -26 2 -20 12 -29 40 -39 l37 -12 53 54 c29 30 89 79 133 109 98 67 164 117 164 125 1 8 -80 19 -138 19 -43 -1 -45 -2 -26 -16z"></path><path id="pcNnggP2k" d="M2994 4376 c-43 -30 -101 -79 -129 -108 l-50 -53 50 46 c28 26 85 70 127 98 67 44 99 71 86 71 -2 0 -40 -25 -84 -54z"></path><path id="pXHaSiI8i" d="M1800 4222 c0 -14 75 -82 90 -82 19 0 105 -68 105 -83 0 -20 52 -92 78 -109 14 -10 51 -18 85 -20 52 -2 65 1 83 18 17 18 19 25 10 42 -6 11 -11 32 -11 46 0 18 -5 26 -18 26 -10 0 -40 23 -67 50 -47 48 -53 51 -100 50 -27 -1 -76 5 -107 13 -38 9 -60 11 -67 4 -14 -14 -41 9 -41 34 0 12 -7 19 -20 19 -11 0 -20 -4 -20 -8z"></path><path id="pVNhgDXjL" d="M2346 4206 c-15 -13 -26 -27 -26 -32 0 -5 -9 -20 -20 -34 -26 -34 -26 -37 18 -59 46 -24 89 -17 117 18 35 43 35 63 2 99 -37 38 -57 40 -91 8z"></path><path id="p14vwLm6dV" d="M1330 4041 c0 -77 4 -103 16 -115 8 -9 20 -16 25 -16 6 0 53 -25 105 -56 77 -46 94 -61 94 -80 0 -15 6 -24 15 -24 8 0 15 6 15 14 0 8 7 17 16 20 23 9 24 8 24 -15 l0 -20 26 20 c31 25 60 27 80 6 22 -21 114 -21 114 1 0 9 -13 21 -30 27 -33 12 -42 53 -15 63 28 11 15 24 -24 24 -22 0 -61 -5 -88 -11 -48 -11 -49 -11 -82 21 -37 38 -30 50 32 50 44 0 46 5 12 32 -14 11 -25 28 -25 38 0 17 -6 19 -52 16 -75 -6 -115 10 -130 51 -13 37 -23 41 -32 17 -6 -15 -9 -15 -29 3 -12 12 -32 24 -44 28 -23 6 -23 5 -23 -94z"></path><path id="p147iYgOYU" d="M4413 4098 c-27 -13 -34 -64 -7 -54 27 10 35 -4 19 -33 -14 -29 -80 -56 -121 -50 -29 3 -74 -18 -74 -36 0 -24 -18 -18 -22 7 -2 13 -11 24 -20 26 -16 3 -18 -8 -18 -118 0 -120 0 -121 26 -130 33 -13 71 -13 76 0 2 7 28 7 78 0 41 -5 92 -10 113 -10 33 0 37 3 37 25 0 14 5 25 10 25 7 0 10 61 8 178 l-3 177 -40 2 c-22 1 -50 -3 -62 -9z"></path><path id="piSjDlnyw" d="M3537 3875 c9 -26 -24 -51 -85 -65 -83 -18 -82 -17 -82 -44 0 -45 10 -56 51 -56 26 0 44 -7 59 -22 24 -26 26 -38 5 -38 -8 0 -15 -5 -15 -11 0 -16 132 -3 170 16 15 8 46 17 68 21 26 4 39 11 36 19 -3 7 11 20 33 30 36 17 36 18 14 27 -17 6 -21 12 -13 21 16 21 20 66 6 78 -7 6 -57 17 -111 25 -129 18 -144 18 -136 -1z"></path><path id="poHrICDxW" d="M2305 3831 c-11 -4 -42 -18 -69 -30 -34 -16 -54 -21 -65 -14 -16 10 -91 -5 -102 -21 -4 -5 -22 -6 -42 -2 -19 3 -57 1 -86 -5 l-51 -11 0 -40 0 -41 98 7 c53 3 162 8 242 11 l145 4 -70 -14 c-38 -7 -96 -14 -127 -14 l-58 -1 0 -39 c0 -32 4 -41 22 -47 12 -3 65 -31 117 -60 108 -60 225 -106 351 -135 47 -11 100 -27 118 -35 18 -8 48 -14 67 -14 34 0 35 1 35 38 0 27 -7 45 -21 58 -12 10 -32 35 -45 54 -13 19 -32 46 -41 59 -10 13 -25 54 -34 90 l-17 66 -148 -1 c-82 -1 -132 1 -111 3 34 4 37 7 37 36 0 18 -5 49 -11 70 -10 37 -10 37 -62 36 -29 -1 -61 -4 -72 -8z"></path><path id="psG7985t0" d="M3096 3645 c-4 -10 1 -15 14 -15 30 0 24 -18 -7 -23 -16 -2 -7 -5 22 -6 45 -1 51 -3 53 -24 1 -13 7 -42 14 -63 12 -37 16 -39 60 -44 40 -5 52 -2 72 17 16 15 23 29 19 43 -7 26 21 49 60 50 19 0 27 5 27 18 0 14 -14 20 -70 30 -39 7 -93 12 -120 12 -27 0 -52 5 -55 10 -10 16 -82 12 -89 -5z"></path><path id="pbmCj2vzy" d="M3768 3569 c-10 -5 -18 -16 -18 -24 0 -8 -7 -18 -15 -23 -9 -4 -65 -64 -125 -132 -83 -94 -110 -131 -110 -151 0 -15 4 -30 9 -33 5 -4 42 -9 83 -12 l74 -7 152 159 c140 147 152 162 152 197 l0 37 -92 0 c-51 0 -101 -5 -110 -11z"></path><path id="pzABah71w" d="M2330 3381 c0 -5 7 -11 15 -15 22 -8 19 -60 -5 -81 -15 -14 -20 -31 -20 -70 0 -38 -4 -55 -15 -59 -48 -18 36 -62 110 -58 47 3 51 1 74 -32 l23 -36 28 20 c48 34 52 44 30 73 -18 23 -19 30 -8 72 8 29 9 49 3 53 -6 4 -17 16 -25 26 -14 18 -13 19 13 12 29 -7 33 0 14 25 -29 38 -237 99 -237 70z"></path><path id="pERq6HpNp" d="M4405 3140 c-16 -4 -104 -16 -195 -25 -134 -13 -190 -14 -294 -5 -71 5 -159 10 -197 10 -63 0 -69 -2 -93 -31 -17 -19 -26 -43 -26 -64 0 -30 3 -33 38 -40 47 -9 128 -55 166 -94 21 -22 39 -31 61 -31 28 0 35 6 56 45 23 44 49 60 49 31 0 -40 52 -25 74 21 l17 35 227 -4 227 -3 0 80 0 80 -40 2 c-22 1 -53 -2 -70 -7z"></path><path id="p15139Zun1" d="M3160 3061 c0 -5 8 -12 18 -16 15 -6 15 -8 -7 -26 -13 -11 -43 -24 -67 -30 -24 -6 -44 -16 -44 -21 0 -6 -6 -8 -14 -5 -7 3 -17 2 -22 -3 -9 -8 -54 -13 -107 -11 -32 1 -79 43 -72 64 3 7 -4 22 -15 32 -27 24 -70 11 -88 -28 -7 -15 -27 -34 -43 -43 -19 -10 -29 -21 -25 -30 3 -9 -1 -14 -14 -14 -27 0 -25 -17 3 -31 12 -7 39 -27 61 -46 46 -42 63 -42 246 7 104 28 140 33 217 31 88 -1 92 -1 112 26 18 22 21 38 19 87 l-3 61 -77 3 c-44 2 -78 -1 -78 -7z"></path><path id="pjY3AYAty" d="M23 3030 c-27 -82 -25 -400 2 -400 15 0 25 32 25 81 0 34 3 37 35 43 45 9 98 55 123 109 28 60 54 81 93 73 38 -7 146 19 179 44 l25 19 -37 -6 c-27 -4 -52 1 -86 15 -29 13 -94 26 -160 33 -126 14 -157 6 -170 -40 -6 -23 -7 -20 -12 19 l-5 45 -12 -35z"></path><path id="p1HT1tNRyB" d="M1548 2841 c-56 -60 -88 -140 -95 -238 l-6 -73 35 0 c23 0 38 -6 42 -15 3 -10 19 -15 46 -15 35 0 40 3 40 23 0 21 7 25 63 34 52 9 120 23 275 58 18 4 22 12 22 42 0 29 -7 43 -41 74 -37 34 -111 69 -145 69 -22 0 -135 71 -129 81 4 5 -9 9 -28 9 -27 0 -42 -9 -79 -49z"></path><path id="pZn0uzzkh" d="M1331 2759 c-64 -40 -171 -103 -246 -144 -36 -19 -40 -26 -40 -59 0 -37 0 -37 70 -61 82 -29 105 -30 204 -7 l73 17 19 75 c11 41 28 91 39 112 11 21 20 54 20 73 0 34 -1 35 -37 35 -27 0 -57 -12 -102 -41z"></path><path id="psDR0ZaQm" d="M4460 2329 c0 -15 -4 -31 -10 -34 -5 -3 -10 -20 -10 -38 0 -24 3 -28 12 -19 7 7 15 12 19 12 13 0 19 -1300 5 -1335 -6 -17 -11 -14 -37 28 -16 26 -32 47 -37 48 -4 0 -38 2 -77 4 -68 3 -135 18 -202 46 -28 11 -39 11 -83 -5 -29 -10 -66 -16 -87 -14 -20 2 -52 -1 -70 -7 l-34 -12 41 -12 c22 -6 40 -15 40 -19 0 -4 -31 -38 -69 -76 l-69 -69 -55 7 c-61 8 -103 -5 -169 -51 -43 -29 -49 -57 -15 -74 12 -7 51 -36 86 -66 60 -51 65 -54 105 -48 42 7 150 -17 171 -37 12 -11 -136 -9 -204 4 -55 10 -191 -7 -218 -28 -17 -13 -16 -16 12 -39 17 -14 35 -25 42 -25 6 0 26 -12 43 -27 27 -22 29 -28 16 -35 -22 -12 -42 -55 -49 -104 -6 -36 -3 -44 21 -67 l28 -27 62 25 c34 14 68 25 76 25 9 0 31 8 50 17 34 16 41 15 133 -5 159 -34 276 -38 369 -12 42 11 89 18 103 15 32 -6 47 3 60 35 9 24 10 24 10 -7 1 -18 5 -33 10 -33 29 0 33 98 38 1087 l6 1002 -32 -1 c-27 -1 -31 -5 -31 -29z"></path><path id="p6zubps8Y" d="M3988 1484 c-14 -14 -40 -17 -162 -16 -80 0 -156 3 -168 7 -21 5 -20 3 6 -19 17 -14 37 -39 45 -57 10 -19 33 -41 61 -55 25 -13 50 -27 55 -31 62 -51 64 -52 153 -52 48 0 138 -3 200 -6 121 -6 124 -4 95 46 -16 27 -16 29 2 50 20 21 20 21 -13 50 -20 18 -27 29 -17 29 41 0 5 18 -88 43 -118 32 -146 33 -169 11z"></path><path id="pRONivu1X" d="M573 1339 c-53 -51 -61 -63 -53 -82 12 -31 78 -91 128 -116 23 -12 42 -24 42 -27 0 -3 -9 -17 -20 -31 -16 -20 -17 -28 -7 -44 11 -19 14 -19 47 18 19 22 43 42 52 46 14 5 15 10 5 36 -6 17 -17 31 -24 31 -7 0 -13 5 -13 10 0 6 6 10 13 10 12 0 37 44 37 67 0 7 -16 35 -35 62 -36 50 -74 81 -97 81 -7 0 -41 -28 -75 -61z"></path><path id="p1CiaBpTh4" d="M1611 1349 c-13 -5 -37 -21 -54 -35 -16 -14 -47 -34 -69 -45 -37 -19 -41 -19 -65 -4 -32 21 -40 13 -25 -28 7 -19 12 -43 12 -54 0 -23 26 -80 48 -105 17 -21 72 -24 90 -6 7 7 12 20 12 30 0 10 4 18 9 18 5 0 17 14 25 32 16 31 13 67 -6 79 -6 4 11 27 38 52 40 39 46 48 34 61 -14 18 -16 18 -49 5z"></path><path id="pNpkATRV9" d="M1476 835 c-46 -36 -43 -69 10 -120 l46 -43 -31 -7 c-36 -8 -41 -32 -8 -37 20 -3 23 -11 34 -103 6 -55 21 -136 32 -179 12 -44 21 -80 21 -80 0 -1 74 -1 165 -1 l165 0 0 27 c0 15 -5 39 -10 54 -17 44 7 61 93 66 57 3 79 8 105 28 28 21 32 30 30 60 -3 30 -7 35 -30 38 -15 2 -36 14 -47 28 -26 33 -51 32 -51 -3 l-1 -28 -22 28 c-32 38 -65 35 -133 -13 -32 -22 -61 -40 -67 -40 -5 0 -20 -9 -34 -20 -14 -11 -34 -20 -45 -20 -15 0 -8 9 24 33 26 20 44 43 46 57 2 14 9 31 14 38 14 16 -5 39 -51 59 -27 12 -31 17 -18 20 58 14 -32 97 -103 95 -36 -2 -40 1 -40 22 0 23 -22 48 -50 58 -9 3 -29 -5 -44 -17z"></path></g></g><g id="l3NKbWayjjnma3KHfycxej6" fill="rgb(184,188,183)" style="transform: none;"><g style="transform: none;"><path id="pNFTJSE4E" d="M20 6480 c-1 -135 -1 -430 0 -656 1 -290 -1 -414 -9 -418 -8 -5 -11 -760 -11 -2707 l0 -2699 2261 0 2260 0 -5 493 c-4 270 -10 569 -14 662 l-8 170 -3 -115 c-2 -63 -5 -245 -7 -405 -2 -159 -5 -335 -8 -390 -2 -55 -1 -158 4 -230 7 -105 6 -132 -4 -140 -10 -7 -718 -10 -2222 -8 l-2209 3 -2 32 c-2 18 -4 331 -5 695 l-3 662 30 3 c41 4 40 32 -1 36 l-30 3 2 707 c1 389 3 988 5 1332 2 344 2 912 0 1263 -2 351 -1 640 1 643 3 2 28 8 57 14 68 13 73 16 69 53 -3 28 0 32 32 39 19 5 82 10 140 11 102 3 107 4 189 48 76 40 86 48 95 82 11 36 14 39 96 67 46 17 102 30 125 30 29 0 44 5 52 20 11 17 21 19 100 14 49 -2 132 -9 185 -16 76 -9 113 -8 173 2 83 14 100 25 61 40 -43 16 -26 40 28 40 13 0 35 10 50 21 l27 21 6 -21 c3 -13 12 -21 22 -19 23 5 25 35 3 40 -14 4 -22 18 -27 47 -5 31 -11 41 -25 41 -10 0 -21 -6 -24 -12 -5 -10 -7 -10 -12 0 -6 12 -262 142 -281 142 -6 0 -27 13 -47 29 -21 17 -51 36 -67 43 -22 10 -29 20 -29 40 0 34 -35 40 -43 7 -7 -26 -28 -21 -42 10 -7 16 -16 20 -32 16 -15 -3 -45 6 -84 25 -34 17 -63 30 -65 27 -2 -2 9 -16 26 -30 19 -17 27 -32 23 -42 -5 -14 -10 -12 -34 11 -33 32 -56 27 -72 -15 -13 -34 -36 -41 -141 -41 l-71 0 -1 93 c0 74 -5 101 -23 139 -13 26 -20 51 -17 56 3 5 22 14 44 21 30 10 51 10 103 1 35 -7 102 -14 149 -15 87 -3 74 2 -53 21 -39 5 -51 12 -63 36 -14 28 -42 34 -36 8 1 -6 -3 -9 -10 -6 -7 3 -21 9 -30 12 -25 9 -23 53 3 80 l20 22 -58 7 c-61 7 -443 10 -477 4 -14 -3 -22 3 -27 21 -4 14 -8 -85 -9 -220z m135 -16 c-21 -33 -14 -40 19 -19 l26 17 0 -33 0 -33 35 34 c19 18 37 31 40 28 3 -3 -4 -27 -16 -53 -18 -40 -20 -60 -15 -115 3 -39 1 -80 -5 -97 -11 -34 -49 -59 -74 -49 -9 3 -23 0 -31 -8 -7 -8 -23 -12 -34 -9 -11 3 -26 0 -34 -6 -11 -9 -14 7 -19 87 -12 169 -9 272 7 272 7 0 16 -9 19 -20 7 -27 21 -25 35 5 8 17 20 25 38 25 26 0 26 0 9 -26z m261 -110 c4 -24 2 -47 -8 -68 -9 -17 -19 -46 -22 -63 -11 -49 -26 -50 -26 -3 0 23 -7 54 -16 69 -14 24 -15 30 0 64 12 29 21 37 40 37 21 0 26 -6 32 -36z"></path><path id="pxNoA30Eo" d="M2960 6690 c-52 -4 -196 -8 -319 -8 -204 -1 -258 -5 -220 -16 85 -24 267 -61 377 -76 41 -6 101 -19 135 -30 155 -49 274 -71 372 -69 56 1 84 -4 138 -26 46 -18 79 -25 98 -21 15 3 31 1 34 -4 3 -6 19 -10 34 -10 15 0 31 -4 37 -9 5 -5 51 -18 103 -30 51 -12 107 -31 124 -43 18 -13 45 -23 62 -24 75 -3 328 -37 400 -55 44 -10 92 -19 108 -19 l27 0 0 -115 c0 -117 -3 -124 -38 -106 -9 4 -34 11 -54 14 -36 5 -38 4 -38 -20 0 -28 2 -28 -140 -7 -34 5 -33 4 10 -14 25 -10 69 -35 99 -55 29 -21 82 -51 117 -68 63 -29 64 -31 64 -70 0 -32 -4 -41 -22 -49 -16 -6 -18 -9 -7 -9 9 -1 20 -8 23 -17 5 -14 8 -14 21 0 13 12 15 69 15 390 0 239 -4 377 -10 381 -5 3 -10 45 -10 93 0 71 -2 83 -13 69 -10 -15 -19 -16 -62 -8 -85 16 -270 22 -775 26 -267 1 -510 5 -540 8 -30 3 -98 1 -150 -3z"></path><path id="pHhesQNZQ" d="M1550 6641 c0 -22 -6 -44 -15 -51 -21 -17 -19 -37 4 -50 13 -6 17 -17 14 -30 -3 -12 1 -22 11 -26 9 -3 16 -9 16 -14 0 -14 -38 -50 -54 -50 -22 0 -20 -13 4 -28 11 -7 20 -19 20 -27 0 -8 3 -14 8 -13 4 0 15 -2 26 -7 11 -5 26 -3 37 3 27 17 39 15 39 -8 0 -24 6 -25 26 -5 17 17 60 20 69 5 8 -13 35 -1 35 17 0 12 -3 13 -13 4 -17 -13 -27 -5 -27 24 0 29 -19 45 -54 45 -17 1 -44 7 -60 13 l-29 13 28 22 c15 12 33 22 40 22 7 0 20 18 28 39 9 22 21 42 27 46 21 13 -79 72 -152 89 -27 6 -28 5 -28 -33z"></path><path id="pW8LCbj4Q" d="M2810 6266 c0 -8 3 -28 6 -45 6 -28 10 -31 46 -31 l39 0 -3 38 c-2 21 -8 36 -14 35 -7 -1 -26 2 -43 7 -23 6 -31 5 -31 -4z"></path><path id="pYNPMdbER" d="M3253 6263 c-7 -3 -13 -13 -13 -23 0 -13 -10 -20 -40 -25 -46 -8 -80 1 -80 21 0 23 -36 16 -56 -11 -10 -14 -27 -25 -36 -25 -12 0 -18 -8 -18 -21 0 -14 5 -19 15 -16 20 8 29 -11 14 -30 -12 -13 -7 -15 41 -12 l55 4 -3 -47 c-3 -43 -2 -48 17 -48 11 0 23 5 27 11 5 8 9 7 15 -4 5 -8 22 -18 38 -22 16 -3 35 -13 42 -21 13 -16 45 -19 54 -4 3 6 17 10 31 10 13 0 24 -4 24 -10 0 -5 15 -10 34 -10 23 0 36 -6 41 -17 12 -32 23 7 18 63 -5 45 -8 50 -27 47 -25 -4 -61 21 -51 36 3 6 11 9 16 5 6 -3 18 1 27 9 9 8 34 20 55 28 20 7 37 19 37 26 0 15 -40 34 -53 26 -5 -3 -11 4 -14 16 -5 21 -43 30 -43 11 0 -5 -4 -10 -10 -10 -5 0 -10 9 -10 19 0 29 -17 35 -66 21 -29 -8 -48 -9 -56 -3 -7 6 -19 8 -25 6z"></path><path id="pND7bCPWw" d="M1817 5893 c-4 -3 -7 -39 -7 -80 0 -66 -3 -76 -28 -104 -24 -27 -31 -30 -49 -20 -12 6 -38 11 -57 11 l-36 0 1 -65 c1 -45 5 -65 14 -65 7 0 18 -6 24 -14 10 -12 7 -15 -16 -18 l-28 -3 35 -23 c38 -24 114 -32 92 -10 -22 22 -12 28 48 28 60 0 70 -6 48 -28 -9 -9 -6 -12 15 -12 14 0 37 5 50 11 19 9 31 7 55 -5 17 -9 42 -16 57 -16 21 0 25 4 25 31 0 25 -3 29 -19 24 -25 -8 -45 27 -37 60 7 29 70 79 89 72 9 -3 12 -16 9 -36 -4 -27 -1 -31 18 -31 13 0 38 -11 56 -25 39 -30 44 -31 44 -5 0 25 19 25 59 3 36 -21 41 -42 9 -36 -23 4 -23 4 -20 -99 4 -122 14 -137 94 -138 75 0 88 21 88 142 0 77 -3 98 -14 98 -16 0 -26 -30 -26 -85 l0 -40 -23 34 c-12 19 -32 52 -44 73 l-21 38 24 0 c21 0 23 2 13 19 -7 10 -27 26 -46 36 -48 26 -83 90 -83 150 l0 48 -26 -27 c-28 -27 -53 -33 -70 -16 -6 6 -61 13 -122 17 -62 3 -112 9 -112 13 0 15 52 58 76 64 17 5 34 0 54 -14 35 -25 69 -28 49 -4 -18 22 -64 44 -93 44 -14 0 -41 -9 -60 -21 l-35 -21 -34 26 c-19 14 -37 23 -40 19z"></path><path id="pogmMjCQv" d="M3825 5241 c-15 -18 -16 -25 -7 -47 17 -36 15 -46 -7 -39 -11 3 -22 1 -25 -4 -4 -6 -17 -6 -37 1 -39 14 -77 -2 -106 -45 -29 -43 -29 -59 3 -96 14 -17 23 -35 19 -41 -13 -22 15 -49 59 -55 47 -7 94 10 118 43 9 12 28 18 62 20 42 1 57 8 97 42 26 22 53 40 59 40 20 0 71 31 65 39 -9 16 -103 41 -152 41 l-48 1 33 28 c48 41 42 58 -27 71 -20 4 -47 10 -61 14 -19 5 -31 2 -45 -13z"></path><path id="pNMqor3ol" d="M3474 4839 c-3 -6 -13 -8 -21 -5 -9 4 -22 1 -30 -6 -10 -8 -41 -11 -85 -9 -79 3 -99 -8 -124 -68 -26 -63 -14 -102 46 -144 19 -13 38 -16 95 -11 67 5 69 4 48 -12 -13 -9 -23 -20 -23 -24 0 -4 50 -8 110 -8 94 1 110 3 111 17 2 30 4 36 18 60 16 28 27 137 17 175 -3 14 -13 26 -21 26 -11 0 -15 -12 -15 -49 0 -77 -11 -141 -25 -141 -25 0 -36 30 -43 111 -6 72 -10 83 -29 90 -14 5 -25 4 -29 -2z m-80 -70 c47 -56 29 -127 -40 -149 -49 -16 -77 -7 -114 40 -31 39 -31 39 -14 71 25 49 53 68 101 69 34 0 46 -5 67 -31z"></path><path id="p546siOdy" d="M2117 4833 c-4 -3 -7 -42 -7 -85 0 -90 -11 -118 -43 -118 -43 0 -57 21 -63 91 -7 66 -32 118 -51 106 -11 -7 -23 -221 -15 -280 4 -34 7 -38 31 -35 20 2 27 9 29 31 3 24 8 27 39 27 41 0 87 30 108 70 21 40 20 163 -1 184 -18 18 -18 18 -27 9z"></path><path id="p17fhk9cO4" d="M1723 4814 c-50 -25 -73 -109 -43 -163 19 -36 70 -61 124 -61 41 0 53 5 81 33 45 45 52 77 28 124 -33 63 -130 98 -190 67z m119 -31 c19 -22 31 -83 22 -118 -15 -58 -113 -70 -154 -18 -48 61 -1 153 77 153 26 0 45 -6 55 -17z"></path><path id="pZenZ4SFk" d="M2178 4818 c-3 -7 -5 -53 -6 -103 0 -49 -3 -98 -7 -107 -4 -10 -3 -18 1 -18 5 0 42 -3 81 -5 70 -4 74 -3 108 26 l35 31 0 95 c0 83 -2 94 -16 89 -9 -3 -18 -6 -20 -6 -2 0 -4 -26 -4 -59 0 -121 -25 -158 -89 -131 -34 14 -39 31 -44 135 -1 46 -6 61 -18 63 -9 2 -19 -3 -21 -10z"></path><path id="p1DyCxPNox" d="M2490 4820 c-12 -8 -15 -37 -15 -154 0 -146 6 -174 35 -156 12 8 15 36 14 155 -1 80 -5 150 -10 155 -6 6 -15 5 -24 0z"></path><path id="p13GMf5pxB" d="M2607 4809 c-35 -26 -57 -69 -57 -110 0 -23 10 -41 39 -70 33 -33 45 -39 81 -39 34 0 48 6 75 33 45 45 53 81 29 126 -23 42 -77 81 -113 81 -14 0 -39 -10 -54 -21z"></path><path id="p10Qf2Irok" d="M3010 4818 c-114 -20 -171 -128 -120 -227 31 -61 70 -88 141 -96 68 -8 99 6 129 58 21 37 8 42 -42 16 -83 -43 -161 -24 -195 45 -22 46 -10 97 31 141 28 29 40 35 76 35 25 0 58 -9 81 -22 48 -27 65 -15 24 18 -42 34 -73 42 -125 32z"></path><path id="pCYO7gcwE" d="M3768 4805 c-43 -29 -58 -53 -58 -89 0 -27 23 -36 36 -15 15 25 124 -6 124 -35 0 -3 -21 -6 -46 -6 -32 0 -44 -4 -41 -12 3 -9 24 -12 66 -11 64 3 77 -8 44 -33 -16 -12 -14 -13 17 -14 24 0 41 7 54 21 16 20 25 21 96 16 96 -6 116 4 77 38 -23 21 -38 25 -88 25 -38 0 -59 4 -59 12 0 6 -8 28 -17 49 -15 34 -23 40 -84 59 -83 25 -77 25 -121 -5z"></path><path id="pGGBSQgGM" d="M1494 4795 l-29 -26 30 5 c17 3 42 8 57 12 24 5 29 2 39 -22 6 -18 8 -58 4 -106 -8 -90 1 -158 20 -158 25 0 29 24 27 155 -3 147 -7 155 -74 162 -38 4 -49 1 -74 -22z"></path><path id="p6gQxgH1s" d="M2649 4290 c-19 -22 -63 -73 -98 -112 -70 -79 -101 -125 -101 -148 0 -8 -11 -36 -24 -61 l-23 -47 41 5 c50 6 143 49 155 71 5 9 12 38 15 64 6 36 12 49 29 54 23 7 147 121 147 135 0 5 -15 12 -32 17 -26 6 -34 14 -36 35 -5 39 -34 34 -73 -13z"></path><path id="pnHT0IKha" d="M4511 4305 c-2 -16 -3 -39 -2 -50 3 -36 -25 -42 -158 -33 -116 8 -126 7 -145 -11 -44 -41 -127 -71 -201 -72 l-70 0 38 -14 c25 -9 90 -16 177 -17 l138 -3 -29 -19 c-23 -14 -43 -17 -94 -14 -77 5 -72 -11 6 -23 36 -6 61 -17 81 -36 l30 -28 22 28 c17 20 30 27 58 27 20 0 53 10 74 22 36 21 37 21 50 3 27 -37 35 -3 31 136 -1 74 -4 121 -6 104z"></path><path id="po9MZ32SR" d="M1553 3963 c-39 -20 -40 -27 -11 -51 12 -9 35 -29 51 -44 21 -21 39 -28 67 -28 36 0 147 22 184 36 21 8 21 24 0 24 -9 0 -54 18 -101 40 -93 44 -138 49 -190 23z"></path><path id="pJQe0Rmol" d="M4500 3886 c0 -101 -3 -106 -59 -107 -47 -1 -47 -3 2 -13 47 -11 33 -35 -25 -42 -39 -5 -48 -9 -33 -15 11 -4 37 -8 58 -8 42 -1 40 3 41 -99 l1 -73 -28 5 c-33 7 -27 -11 8 -24 23 -9 24 -14 27 -121 3 -108 2 -112 -22 -131 -17 -13 -21 -21 -12 -24 14 -7 17 -84 2 -84 -5 0 -10 -9 -10 -21 0 -11 4 -17 10 -14 22 14 37 -14 31 -57 l-6 -43 -95 2 c-115 3 -330 5 -347 4 -12 -1 -68 -99 -61 -106 2 -2 22 0 43 5 119 25 162 32 282 41 72 6 141 9 153 7 21 -3 21 -5 23 -311 1 -227 -1 -303 -9 -292 -18 25 -25 17 -22 -22 2 -31 7 -39 27 -41 18 -3 22 0 18 12 -4 10 -1 16 8 16 13 0 15 105 15 815 0 537 -3 815 -10 815 -6 0 -10 -31 -10 -74z"></path><path id="pZrk7G8Q4" d="M1572 3831 c7 -12 19 -21 26 -21 17 0 7 17 -19 31 -18 9 -19 9 -7 -10z"></path><path id="p11md4Augr" d="M1690 3820 c-34 -7 -34 -7 13 -9 30 0 46 3 42 9 -3 6 -9 9 -13 9 -4 -1 -23 -5 -42 -9z"></path><path id="pASRf9Xc7" d="M1863 3553 c42 -17 47 -29 16 -38 -13 -4 -27 0 -40 11 -23 21 -22 22 -43 -41 -9 -27 -31 -65 -48 -84 -21 -22 -28 -36 -20 -39 7 -2 19 -11 28 -19 13 -14 22 -11 82 20 37 19 78 38 91 42 l24 7 -22 -31 c-26 -36 -20 -40 16 -11 31 24 83 27 83 4 0 -26 32 -12 57 25 28 41 31 99 6 107 -10 3 -52 19 -93 35 -50 19 -92 28 -125 28 l-49 -2 37 -14z"></path><path id="p1AFKl96Io" d="M2660 2758 c-25 -5 -55 -11 -67 -14 -12 -2 -27 -13 -33 -24 -9 -16 -8 -18 5 -14 21 8 19 -5 -5 -41 -49 -71 -65 -165 -40 -231 6 -15 9 -29 7 -31 -10 -9 -39 12 -58 44 -12 19 -23 32 -26 29 -6 -6 15 -46 39 -73 24 -26 19 -37 -33 -64 l-40 -20 -14 35 c-8 19 -23 37 -34 41 -42 13 -187 205 -162 213 18 6 1 22 -23 22 -13 0 -56 -7 -95 -16 -55 -12 -71 -20 -71 -34 0 -18 89 -126 124 -149 30 -20 116 -104 116 -113 0 -4 -8 -4 -17 -1 -16 6 -16 5 -4 -10 11 -14 11 -20 1 -32 -10 -12 -10 -15 1 -15 27 0 -7 -18 -66 -35 -74 -21 -145 -64 -145 -88 0 -10 6 -19 13 -21 6 -2 51 -15 98 -30 119 -36 132 -35 152 14 16 42 45 60 98 60 18 0 29 -5 29 -14 0 -11 20 -14 90 -14 l91 0 15 37 c9 20 16 45 16 56 1 42 -7 75 -17 75 -17 0 -55 44 -55 62 0 9 11 29 24 45 34 41 46 68 46 103 0 50 24 91 89 155 72 70 82 106 29 104 -18 -1 -53 -6 -78 -11z"></path><path id="p7sPEGIaP" d="M1177 733 c-4 -3 -7 -17 -7 -29 0 -13 -4 -25 -9 -28 -5 -3 -13 -25 -20 -48 -14 -56 -47 -109 -72 -115 -25 -7 -24 -19 1 -33 l21 -11 -22 -30 c-11 -16 -39 -39 -62 -51 -34 -18 -38 -23 -22 -26 44 -8 48 -11 34 -29 -8 -9 -36 -26 -64 -38 l-50 -23 65 -7 c36 -3 111 -5 167 -3 l103 3 0 43 c0 24 -4 51 -9 61 -8 14 1 25 51 61 76 56 98 84 98 127 0 51 -15 71 -75 97 -29 13 -53 30 -52 38 1 41 -3 48 -36 48 -19 0 -37 -3 -40 -7z"></path></g></g><g id="l5xFQyeicuamY3arPh4Ssh9" fill="rgb(110,109,107)" style="transform: none;"><g style="transform: none;"><path id="piCckAhGr" d="M288 6453 c-45 -50 -58 -127 -37 -224 8 -37 8 -58 0 -75 -10 -22 -3 -32 12 -17 4 3 34 8 68 10 74 4 76 5 84 46 4 17 18 52 31 77 25 47 30 70 15 70 -5 0 -13 25 -16 55 -5 38 -12 55 -21 55 -8 0 -17 -7 -20 -15 -8 -20 -23 -19 -46 2 -21 19 -18 22 -42 -42 -22 -58 -22 -108 -1 -138 17 -25 20 -63 5 -72 -5 -3 -10 1 -10 10 0 9 -8 27 -17 41 -23 36 -23 138 0 182 22 40 18 61 -5 35z"></path><path id="pU2fvmBZ7" d="M1946 6413 c-4 -4 -28 -7 -54 -8 l-47 0 -3 -46 c-2 -34 1 -48 12 -52 17 -7 46 27 46 52 0 11 6 8 23 -8 19 -17 29 -20 48 -13 13 5 34 6 46 1 15 -5 35 -3 58 7 32 13 38 13 60 -2 14 -9 25 -20 25 -25 0 -5 9 -9 20 -9 11 0 20 -4 20 -9 0 -5 2 -15 5 -23 3 -7 1 -19 -4 -26 -6 -10 -15 -9 -44 8 -30 18 -39 19 -56 8 -12 -7 -21 -16 -21 -20 0 -5 -4 -8 -10 -8 -5 0 -10 7 -10 15 0 8 -7 15 -16 15 -13 0 -15 -7 -11 -28 8 -39 -7 -61 -30 -46 -12 8 -17 21 -15 43 3 32 -14 43 -24 16 -5 -13 -10 -12 -31 5 -32 25 -41 25 -70 -2 -20 -18 -23 -19 -23 -5 0 20 -16 23 -22 5 -3 -9 -12 -8 -32 5 -15 10 -34 16 -42 13 -8 -3 -17 1 -20 9 -9 22 -34 18 -34 -5 0 -17 -3 -18 -25 -8 -19 8 -28 8 -40 -2 -13 -11 -20 -11 -41 1 -30 15 -51 6 -73 -33 -13 -23 -13 -29 2 -52 19 -28 63 -36 85 -14 9 9 15 9 24 0 18 -18 58 -15 58 5 0 15 1 15 18 0 23 -21 75 -22 92 -2 19 23 28 18 26 -12 0 -16 4 -29 9 -30 6 -1 9 9 8 23 -2 24 20 34 32 14 8 -13 58 -13 71 0 7 7 21 5 43 -6 31 -16 34 -15 61 4 24 18 30 19 40 7 17 -20 89 -20 96 0 5 13 10 12 30 -4 20 -16 31 -18 56 -10 17 5 35 14 40 21 6 10 11 9 19 -4 13 -22 38 -23 68 -2 18 13 21 22 16 43 -7 27 -32 61 -46 61 -5 0 -17 -10 -29 -22 -22 -24 -21 -24 -38 15 -8 19 -22 29 -43 34 -31 6 -46 24 -34 43 4 7 12 7 26 -1 26 -14 59 -2 59 21 0 27 -28 52 -47 41 -9 -4 -35 -6 -59 -3 -43 4 -44 4 -44 -23 0 -23 -2 -26 -15 -15 -8 7 -15 19 -15 26 0 17 -16 18 -24 2 -5 -10 -7 -10 -12 0 -3 6 -12 12 -20 12 -10 0 -13 -7 -8 -26 6 -23 4 -25 -17 -22 -16 2 -25 11 -27 24 -2 13 -13 25 -25 28 -28 7 -32 7 -41 -1z"></path><path id="ptU034e57" d="M2256 6055 c2 -36 -1 -65 -6 -65 -14 0 -30 35 -30 64 0 32 -13 34 -28 4 -7 -16 -11 -18 -11 -7 -1 9 -10 24 -21 34 -20 18 -21 18 -46 -6 -20 -19 -27 -21 -34 -10 -5 8 -15 11 -25 7 -11 -4 -25 0 -36 10 -16 14 -20 14 -41 0 -16 -10 -28 -12 -38 -6 -23 15 -66 12 -80 -5 -9 -11 -16 -13 -24 -5 -20 20 -35 10 -38 -27 -4 -53 -26 -54 -30 -2 -4 58 -26 63 -30 7 -2 -30 -7 -43 -18 -43 -11 0 -16 13 -18 43 -4 58 -26 50 -30 -11 -3 -53 -4 -53 76 -61 44 -4 55 -2 71 15 l19 21 30 -22 c29 -21 32 -22 63 -6 22 11 36 13 43 6 5 -5 22 -10 36 -10 15 0 30 -8 38 -20 16 -27 32 -17 32 21 l0 30 29 -22 c23 -17 32 -19 50 -10 11 7 21 17 21 23 0 7 7 5 18 -4 9 -8 42 -18 73 -22 48 -5 59 -3 74 14 26 29 37 25 33 -12 -2 -19 2 -33 10 -36 9 -2 13 3 12 14 -1 11 -2 28 -1 38 1 19 2 18 24 -2 29 -27 45 -28 72 -2 l22 20 25 -20 c32 -25 54 -26 67 -2 8 14 13 15 28 4 44 -31 62 -28 89 13 16 25 16 27 -3 53 -25 34 -49 39 -74 16 -18 -17 -20 -16 -43 5 -26 24 -48 20 -76 -13 -15 -20 -30 -21 -30 -3 0 8 -11 19 -24 25 -19 8 -27 7 -45 -11 -21 -21 -23 -21 -32 -4 -10 17 -12 17 -23 2 -11 -15 -13 -15 -25 -1 -8 9 -26 16 -42 16 -19 0 -29 5 -29 15 0 8 -6 15 -14 15 -10 0 -13 -15 -10 -65z"></path><path id="poIN74P8Q" d="M2582 5878 c-32 -20 -62 -72 -62 -110 0 -34 30 -77 70 -103 60 -38 94 -32 158 28 27 26 32 38 32 75 0 104 -109 165 -198 110z"></path><path id="pAyQLyDCc" d="M2928 5884 c-39 -21 -71 -88 -63 -130 8 -46 46 -88 94 -104 35 -11 43 -11 65 4 38 24 45 20 48 -31 3 -41 6 -48 26 -51 l22 -3 0 165 c0 138 -2 166 -15 166 -7 0 -18 -8 -23 -17 -9 -16 -11 -16 -36 0 -31 21 -82 21 -118 1z"></path><path id="pQasghqH4" d="M3205 5520 c-4 -12 -5 -54 -4 -94 2 -48 -1 -79 -9 -89 -30 -35 69 -150 101 -117 9 9 5 17 -15 34 -41 32 -35 44 25 48 64 6 98 -11 95 -47 -1 -14 -8 -25 -15 -25 -7 0 -19 -10 -28 -23 -12 -19 -13 -29 -3 -55 7 -18 16 -32 20 -32 4 0 8 -31 8 -68 0 -91 13 -104 101 -100 56 3 65 6 76 28 7 14 13 62 13 113 0 80 -2 87 -20 87 -17 0 -20 -7 -20 -47 0 -72 -8 -95 -30 -83 -27 15 -33 88 -10 127 18 30 18 36 4 69 -9 23 -26 40 -47 50 -18 7 -45 25 -62 39 -28 23 -30 30 -35 112 -4 72 -8 88 -22 91 -24 5 -31 -33 -26 -129 3 -43 2 -79 -1 -79 -3 0 -16 3 -28 6 -21 6 -22 13 -25 102 -3 81 -6 97 -20 100 -10 2 -19 -5 -23 -18z"></path><path id="p3Q69986y" d="M3439 5501 c-34 -33 -39 -45 -39 -83 0 -36 6 -51 30 -76 16 -17 44 -39 61 -47 29 -15 35 -16 73 -1 81 31 116 116 76 180 -31 51 -57 66 -113 66 -44 0 -54 -4 -88 -39z"></path><path id="pM2A9RkXc" d="M3683 5420 c0 -36 2 -50 4 -32 2 17 2 47 0 65 -2 17 -4 3 -4 -33z"></path><path id="pMhQ0Y2N1" d="M2427 5264 c-4 -4 -7 -79 -7 -166 0 -131 2 -158 15 -158 7 0 18 8 23 17 9 16 11 16 36 0 34 -23 92 -21 125 3 16 10 36 40 46 66 18 47 18 48 -5 91 -16 30 -35 49 -66 63 l-43 21 -40 -20 c-22 -12 -42 -21 -44 -21 -3 0 -4 23 -3 52 1 40 -3 53 -14 56 -9 1 -19 0 -23 -4z"></path><path id="pJcnYj7gr" d="M2392 5090 c0 -53 1 -54 10 -22 8 23 8 39 0 55 -9 19 -11 13 -10 -33z"></path><path id="pH5IqlFL6" d="M2682 4997 c-12 -27 -20 -52 -17 -55 6 -6 47 88 43 99 -2 4 -13 -16 -26 -44z"></path><path id="pvtID8mnL" d="M2711 4056 c-17 -36 -31 -72 -31 -80 0 -22 -36 -57 -52 -51 -7 3 -57 -3 -110 -14 -70 -13 -124 -32 -193 -66 -131 -65 -136 -82 -15 -50 83 22 88 21 101 -27 17 -66 21 -68 120 -68 60 0 89 -4 89 -11 0 -22 35 -38 81 -39 l46 0 6 74 c3 45 13 89 26 114 21 42 68 82 95 82 10 0 16 9 16 23 0 20 -4 23 -30 19 -29 -4 -30 -3 -20 22 8 22 7 26 -10 26 -17 0 -18 6 -13 55 l6 55 -41 0 c-39 0 -40 -1 -71 -64z"></path><path id="pMJR6JXuv" d="M2060 527 c0 -8 10 -17 23 -21 l22 -6 -25 -21 c-39 -31 -70 -40 -117 -33 -36 5 -49 2 -78 -17 -39 -27 -43 -47 -20 -102 19 -46 19 -47 -2 -48 -14 0 -13 -2 5 -9 12 -5 101 -9 198 -8 139 1 177 4 181 15 3 8 18 20 34 29 32 16 39 44 11 44 -27 0 -69 49 -106 121 -32 64 -33 64 -79 67 -36 2 -47 0 -47 -11z"></path></g></g><g id="l3LDRtjHcaIRBVzhvMpfyeg" fill="rgb(76,69,66)" style="transform: none;"><g style="transform: none;"><path id="p4A6dTOaV" d="M2586 6258 c-14 -22 -16 -22 -26 -5 -16 25 -30 12 -30 -28 0 -19 -5 -37 -12 -41 -15 -10 -38 24 -38 58 0 15 -5 28 -11 28 -6 0 -9 -21 -7 -52 3 -50 5 -53 31 -56 17 -2 37 4 48 14 18 16 20 16 38 0 16 -15 30 -17 70 -11 46 6 51 9 51 32 0 22 2 24 15 13 8 -7 15 -18 15 -25 0 -8 20 -16 51 -20 41 -6 54 -4 70 11 20 18 20 18 17 -11 -2 -22 2 -30 15 -33 16 -3 18 3 15 65 -3 65 -19 94 -26 46 -4 -28 -22 -30 -22 -3 0 10 -9 24 -21 30 -26 14 -69 -11 -69 -40 0 -11 -4 -20 -10 -20 -5 0 -10 11 -10 25 0 32 -36 35 -45 4 -7 -20 -8 -20 -35 10 -34 37 -52 39 -74 9z"></path><path id="pMAxbOcLI" d="M2966 6254 c-31 -32 -33 -55 -7 -78 16 -15 30 -17 70 -11 46 6 51 9 51 32 0 22 2 24 15 13 8 -7 15 -19 15 -27 0 -11 7 -13 24 -9 14 3 28 2 31 -4 9 -15 36 -12 57 7 17 15 19 15 38 -2 27 -24 50 -6 25 19 -10 10 -14 24 -10 36 9 29 -2 42 -26 30 -15 -8 -23 -7 -35 5 -8 8 -20 15 -25 15 -12 0 -49 -37 -49 -50 0 -5 -4 -10 -10 -10 -5 0 -10 6 -10 14 0 7 -7 19 -15 26 -12 10 -17 7 -26 -14 -16 -34 -25 -33 -44 4 -19 37 -35 38 -69 4z"></path><path id="pEDrqQ2es" d="M3705 6260 c-17 -18 -20 -19 -36 -4 -22 20 -25 12 -24 -60 0 -63 19 -88 31 -42 6 27 18 33 29 16 9 -15 46 -12 65 5 15 14 18 14 30 0 16 -20 64 -19 85 1 10 11 15 29 13 52 -4 47 -28 56 -28 10 0 -18 -4 -39 -9 -47 -15 -24 -43 6 -39 42 2 18 -2 32 -9 34 -8 3 -13 -5 -13 -21 0 -14 -4 -26 -10 -26 -5 0 -10 7 -10 16 0 18 -27 43 -46 44 -6 0 -19 -9 -29 -20z"></path><path id="p1SkIcNws" d="M3485 6258 c-2 -7 -6 -24 -8 -38 -4 -24 -4 -24 -16 8 -14 35 -41 44 -41 12 0 -11 -4 -20 -10 -20 -5 0 -10 9 -10 20 0 33 -29 22 -45 -17 -19 -46 -15 -81 5 -40 16 32 26 34 35 7 3 -11 11 -20 16 -20 5 0 9 9 9 20 0 26 12 26 28 0 7 -12 28 -22 51 -26 28 -4 41 -12 46 -28 7 -18 8 -17 15 14 4 19 8 30 9 23 2 -17 31 -44 42 -38 4 3 8 32 8 64 l-1 59 -34 4 c-19 2 -37 2 -39 -1 -3 -2 -5 -25 -5 -50 0 -42 -1 -43 -15 -25 -8 10 -15 34 -15 52 0 31 -16 44 -25 20z"></path><path id="p098xTpkb" d="M3009 6084 c-8 -10 -21 -13 -41 -9 -27 6 -28 5 -28 -35 0 -34 -3 -41 -17 -38 -13 2 -19 14 -21 41 -2 22 -8 37 -16 37 -10 0 -13 -16 -10 -66 3 -75 8 -85 24 -55 6 12 15 19 19 16 5 -3 20 4 32 14 24 19 24 19 46 -1 19 -18 27 -20 48 -10 44 20 42 87 -4 112 -14 7 -22 6 -32 -6z"></path><path id="pniY8Mh0U" d="M3160 6077 c-22 -11 -25 -20 -28 -70 -2 -36 1 -57 8 -57 6 0 13 7 16 15 4 8 16 15 29 15 12 0 28 7 35 15 7 8 21 15 31 15 12 0 19 7 19 20 0 12 -7 20 -18 20 -10 0 -25 9 -35 20 -20 23 -24 24 -57 7z"></path><path id="pTeDjxibu" d="M2573 5543 c-12 -2 -38 -22 -57 -44 -29 -31 -36 -47 -36 -79 0 -56 34 -106 86 -126 38 -14 44 -14 72 0 40 21 79 73 84 111 l3 30 -102 3 c-57 1 -103 6 -103 11 0 4 10 17 23 29 30 29 87 29 112 2 18 -19 55 -28 55 -12 0 26 -78 85 -107 81 -4 -1 -18 -4 -30 -6z"></path><path id="pJcXpPsOh" d="M2453 5420 c0 -41 2 -58 4 -37 2 20 2 54 0 75 -2 20 -4 3 -4 -38z"></path><path id="pqg04I9dv" d="M1953 5174 c-18 -9 -41 -34 -54 -59 -21 -40 -22 -46 -9 -85 28 -83 112 -115 185 -70 33 20 71 92 60 111 -4 5 -51 9 -106 9 -54 0 -99 4 -99 9 0 5 8 19 19 32 25 31 80 31 122 0 39 -29 64 -14 33 20 -44 48 -96 60 -151 33z"></path><path id="p8x5Pju2n" d="M1853 5065 c0 -33 2 -45 4 -27 2 18 2 45 0 60 -2 15 -4 0 -4 -33z"></path><path id="pQvRLDu4I" d="M3931 4638 c-12 -12 -33 -30 -48 -40 -27 -17 -28 -18 -5 -18 60 0 220 24 250 37 62 29 31 43 -95 43 -72 0 -85 -3 -102 -22z"></path><path id="p1FFkira2f" d="M3693 4622 c29 -32 21 -41 -35 -38 -40 2 -54 7 -56 19 -5 23 -23 22 -29 -1 -4 -16 -12 -18 -57 -14 -29 2 -78 -3 -112 -11 -77 -20 -294 -124 -294 -142 0 -27 31 -45 79 -45 26 0 52 -5 58 -11 8 -8 38 1 108 32 l98 43 16 -24 c23 -38 156 -170 170 -170 7 0 -24 37 -69 83 -45 45 -86 89 -91 99 -7 14 4 21 69 49 42 17 112 44 155 59 80 28 102 40 75 40 -8 0 -25 11 -38 25 -13 14 -32 25 -43 25 -19 0 -19 -1 -4 -18z"></path><path id="p12uQrvKeZ" d="M1914 2933 c13 -35 72 -125 119 -183 26 -32 47 -61 47 -64 0 -11 -36 -6 -50 7 -8 6 -6 1 5 -13 36 -45 56 -49 126 -28 33 9 39 15 39 39 0 26 -2 28 -26 19 -44 -17 -62 -11 -103 33 -30 32 -39 48 -34 65 4 18 1 25 -15 29 -12 3 -40 29 -62 59 -42 55 -57 68 -46 37z"></path><path id="pymAtJhyp" d="M3630 2855 c0 -8 -7 -15 -15 -15 -8 0 -19 -9 -25 -20 -6 -11 -22 -23 -35 -26 -13 -3 -27 -14 -30 -24 -3 -10 -19 -20 -35 -24 -18 -3 -30 -12 -30 -21 0 -34 -82 -4 -123 44 -16 20 -27 45 -27 62 0 29 -1 30 -42 27 l-43 -3 -3 -55 c-3 -68 19 -109 77 -142 24 -13 41 -31 41 -41 0 -23 37 -36 124 -44 103 -8 212 12 243 46 21 22 24 32 19 71 -3 25 -6 75 -5 113 l0 67 -45 0 c-34 0 -46 -4 -46 -15z"></path><path id="pwO4CuUGC" d="M4232 2649 c-20 -35 -23 -35 -164 2 -72 19 -89 21 -102 10 -19 -16 -21 -85 -3 -98 10 -7 63 -25 146 -50 10 -2 5 -13 -19 -38 l-34 -35 19 -52 c10 -28 32 -108 50 -177 l31 -126 55 -3 54 -2 118 100 c64 56 117 108 117 116 0 8 -8 31 -19 52 -10 20 -26 61 -36 90 -9 30 -32 88 -50 130 -26 61 -40 81 -66 94 -51 27 -77 23 -97 -13z"></path><path id="pdduhwlkG" d="M1305 2523 c-82 -19 -95 -25 -95 -43 0 -28 -27 -50 -62 -50 -45 0 -30 -22 28 -42 46 -15 49 -18 46 -47 -3 -26 1 -31 25 -36 15 -3 54 -12 85 -19 39 -9 58 -10 61 -3 2 7 12 4 27 -6 14 -9 41 -17 62 -17 35 0 38 2 38 29 0 16 -7 42 -15 57 -19 37 -19 54 0 54 8 0 15 5 15 10 0 6 -4 10 -9 10 -5 0 -11 10 -13 23 -2 16 -12 24 -33 27 -65 12 -125 35 -125 47 0 13 -2 14 -35 6z"></path><path id="p1Cbo5NgM4" d="M2729 2350 c-12 -34 -27 -40 -107 -43 l-60 -1 19 -24 c24 -31 24 -57 -1 -92 -19 -27 -21 -27 -57 -15 -31 11 -41 10 -60 -2 -13 -9 -23 -11 -23 -7 0 5 9 15 20 22 12 7 18 17 15 22 -4 6 -11 8 -16 5 -5 -4 -17 1 -26 10 -16 16 -18 16 -36 -9 -12 -17 -28 -26 -47 -26 -51 0 -81 -18 -97 -59 l-15 -39 -82 26 c-44 14 -87 27 -95 29 -24 6 17 29 107 60 59 20 82 32 80 43 -2 8 -14 16 -28 17 l-25 2 25 -7 c30 -9 22 -15 -55 -36 -33 -10 -76 -28 -96 -41 -20 -13 -47 -25 -60 -27 -19 -2 -25 -10 -27 -37 -2 -18 1 -31 5 -28 5 3 45 -5 89 -19 43 -14 111 -31 149 -39 39 -8 84 -19 100 -25 l30 -11 -56 -52 c-148 -138 -147 -137 -182 -137 -30 0 -37 5 -51 35 -9 19 -24 35 -32 35 -11 0 -6 -13 17 -46 30 -44 33 -46 71 -41 42 6 92 43 196 150 37 37 65 57 80 57 14 0 36 13 52 30 26 27 28 28 42 12 9 -9 21 -28 28 -42 11 -21 11 -25 -5 -35 -44 -25 -202 -174 -217 -205 -15 -31 -15 -43 -4 -102 13 -69 59 -154 77 -142 6 4 4 14 -6 27 -29 40 -45 87 -52 147 l-6 60 74 71 c41 39 93 87 117 107 l44 36 25 -33 c14 -17 56 -47 94 -67 61 -30 68 -37 59 -53 -5 -11 -29 -30 -52 -43 -36 -19 -50 -37 -86 -105 -54 -105 -96 -259 -87 -321 6 -38 4 -44 -9 -39 -10 4 -16 1 -16 -8 0 -9 10 -15 26 -15 22 0 24 3 18 22 -30 96 64 382 144 436 14 9 40 31 58 49 l32 32 66 -32 c65 -32 65 -33 66 -73 1 -127 44 -236 132 -333 35 -38 73 -83 86 -100 l23 -30 -26 -17 c-73 -48 23 -47 104 1 60 35 61 37 61 79 0 51 -10 65 -25 35 -11 -20 -13 -19 -53 26 -34 39 -42 55 -42 87 0 60 -21 93 -135 213 -85 89 -105 116 -105 140 -1 50 -31 100 -114 190 -76 84 -79 86 -119 83 -37 -3 -43 0 -56 26 -12 26 -12 35 2 73 11 29 13 51 7 72 -7 25 -5 31 11 36 11 4 33 4 49 0 26 -6 32 -2 54 34 29 45 31 51 15 51 -5 0 -15 -13 -20 -30z m-110 -274 c8 -10 23 -13 44 -9 30 4 38 -2 114 -80 67 -71 84 -95 97 -140 22 -77 22 -80 -17 -64 -81 34 -128 73 -152 126 -14 28 -45 77 -70 107 -25 31 -45 60 -45 65 0 14 16 11 29 -5z m388 -433 c103 -112 113 -128 113 -178 0 -46 22 -88 60 -115 16 -12 30 -25 30 -30 0 -14 -70 -52 -85 -46 -8 3 -21 20 -29 38 -7 18 -39 58 -70 88 -42 41 -64 73 -87 128 -31 76 -52 212 -32 212 6 0 51 -44 100 -97z"></path><path id="pAZHAEueJ" d="M1168 923 c-16 -8 -28 -20 -28 -27 0 -8 -7 -16 -15 -20 -10 -3 -15 -20 -16 -48 0 -67 -45 -146 -101 -183 -39 -25 -47 -35 -47 -62 -1 -29 2 -32 31 -35 25 -2 34 -9 38 -27 4 -17 15 -27 37 -33 39 -10 143 -147 143 -188 0 -16 7 -30 16 -34 21 -8 389 -8 397 1 4 3 2 12 -3 18 -17 21 -51 166 -63 270 l-12 100 -38 3 c-25 2 -50 -4 -77 -19 -32 -18 -44 -20 -62 -11 -13 6 -44 20 -70 31 -35 15 -46 24 -42 35 4 10 1 16 -7 16 -7 0 -3 10 10 24 21 23 23 31 17 93 -3 37 -6 78 -6 91 0 19 -5 22 -38 21 -20 -1 -49 -8 -64 -16z m114 -288 c62 -51 73 -68 58 -94 -9 -18 -75 -75 -123 -106 -29 -19 -24 -20 -106 41 -2 2 6 15 18 30 11 15 21 31 21 36 0 5 11 37 24 71 13 34 27 71 31 82 6 17 8 18 14 3 3 -9 31 -37 63 -63z"></path></g></g><g id="liMttDaDfgLgGrck5PRYNn" fill="rgb(157,26,23)" style="transform: none;"><g style="transform: none;"><path id="p1DQVb2Ayb" d="M1085 1589 c-11 -4 -46 -5 -77 -2 -56 5 -59 4 -94 -31 -20 -20 -34 -43 -32 -53 6 -32 66 -63 122 -63 48 0 55 3 104 49 49 46 64 71 42 71 -5 0 -17 8 -27 19 -13 13 -24 16 -38 10z"></path><path id="pjNMp6CHM" d="M1673 1203 c-20 -18 -33 -41 -37 -63 -6 -32 -2 -40 38 -79 39 -38 49 -43 75 -38 30 6 42 -5 21 -18 -15 -9 -12 -25 5 -25 8 0 32 15 52 33 l36 34 -19 42 c-15 33 -23 40 -40 36 -38 -9 -48 48 -11 60 20 6 19 7 -11 15 -19 4 -39 13 -45 19 -17 17 -30 13 -64 -16z"></path><path id="pctDCKfrL" d="M1978 1084 c-27 -13 -48 -31 -48 -40 0 -8 -10 -18 -22 -23 -21 -8 -20 -9 15 -26 35 -16 41 -16 80 -2 23 9 58 15 77 14 41 -2 50 24 11 33 -24 5 -34 18 -45 53 -7 22 -11 21 -68 -9z"></path></g></g><g id="l444orJvLERx63hWiCWsp5D" fill="rgb(58,43,38)" style="transform: none;"><g style="transform: none;"><path id="pYqMgd5xy" d="M3085 4432 c-82 -45 -146 -92 -214 -156 -68 -66 -146 -176 -156 -222 l-7 -29 21 33 c12 19 29 32 41 32 24 0 26 -13 3 -35 -26 -26 -6 -69 33 -73 24 -2 33 2 41 20 6 13 41 57 78 98 37 41 88 101 113 133 49 62 94 93 181 123 86 30 83 59 -7 68 -32 3 -59 11 -65 20 -11 14 -18 12 -62 -12z"></path><path id="p18TZngelN" d="M1098 4223 c-17 -20 -32 -69 -29 -93 1 -9 -22 -61 -51 -117 -38 -74 -78 -130 -144 -205 -156 -176 -211 -281 -184 -350 19 -48 49 -88 66 -88 7 0 56 35 107 78 149 126 221 150 336 116 29 -8 59 -13 67 -10 19 7 53 83 54 118 0 18 10 33 30 48 23 17 30 29 30 56 0 19 4 34 9 34 4 0 39 -20 77 -45 63 -41 115 -57 127 -37 3 4 7 27 8 51 l4 45 -95 58 c-52 31 -100 58 -107 58 -30 0 -43 32 -43 103 1 56 3 68 11 54 6 -10 9 -38 7 -63 -2 -30 1 -44 9 -44 18 0 18 114 0 128 -6 6 -26 14 -42 18 -17 3 -43 16 -60 28 -52 38 -127 76 -150 76 -12 0 -29 -8 -37 -17z"></path><path id="pWlrNnNCq" d="M3848 4080 c-14 -4 -74 -13 -133 -20 -58 -7 -108 -17 -111 -22 -13 -21 12 -47 93 -95 96 -55 123 -67 123 -53 0 5 -43 32 -95 60 -52 28 -95 55 -95 60 0 5 17 12 38 15 20 4 70 13 111 21 117 23 146 20 174 -18 21 -29 25 -47 30 -147 l6 -115 -47 -40 c-26 -23 -67 -60 -91 -84 l-44 -43 -109 7 c-59 4 -108 11 -108 15 0 16 81 50 138 58 31 5 47 9 35 10 -33 2 -28 16 13 36 20 9 33 19 30 22 -3 4 -41 -10 -83 -30 -43 -20 -107 -41 -143 -47 -36 -5 -84 -15 -108 -22 -54 -16 -273 10 -389 46 -47 15 -119 27 -180 31 l-103 7 0 43 c0 23 3 56 6 73 7 33 -1 31 164 63 189 36 325 36 455 -1 38 -11 76 -20 85 -19 32 1 -79 37 -153 49 -88 15 -85 23 13 38 175 27 211 35 207 46 -2 7 -34 10 -98 7 -104 -3 -155 -11 -244 -36 -41 -12 -103 -18 -195 -19 -138 -2 -188 -12 -243 -49 -30 -20 -67 -84 -67 -116 0 -11 -5 -23 -10 -26 -6 -4 -8 -28 -6 -56 5 -46 4 -49 -18 -49 -37 0 -52 25 -32 55 19 29 21 96 4 113 -10 10 -15 0 -23 -50 l-10 -63 -83 -3 -82 -3 -18 31 c-22 39 -47 41 -39 1 6 -28 5 -28 -46 -35 -29 -3 -85 -6 -125 -6 -41 0 -128 -5 -193 -11 -109 -11 -142 -9 -127 7 4 3 36 11 72 17 36 6 66 14 66 18 0 12 -209 48 -243 42 -15 -3 -31 2 -42 13 -20 20 -91 22 -124 4 -29 -15 -13 -64 22 -68 46 -6 27 -52 -34 -81 -42 -20 -45 -49 -7 -70 24 -14 28 -14 47 3 26 23 31 22 216 -53 82 -34 155 -61 162 -61 23 0 22 -18 -2 -54 -14 -20 -25 -49 -25 -65 0 -16 -10 -37 -22 -49 -89 -84 -159 -140 -193 -156 -21 -10 -60 -35 -85 -56 -49 -41 -178 -133 -305 -218 -238 -159 -509 -292 -538 -263 -16 16 -69 14 -94 -4 -12 -8 -29 -29 -37 -47 -15 -30 -15 -33 6 -55 15 -16 33 -23 57 -23 38 0 121 -22 159 -42 18 -9 29 -8 57 5 49 23 53 22 77 -19 20 -33 23 -35 67 -33 36 3 49 8 58 26 7 13 10 30 6 38 -3 9 1 23 8 32 13 15 11 16 -12 10 -27 -7 -151 31 -158 48 -2 5 3 13 10 16 30 16 149 86 242 142 54 33 100 57 103 54 3 -2 -4 -22 -15 -44 -12 -21 -29 -72 -40 -113 -14 -56 -23 -76 -37 -79 -43 -8 -64 -61 -25 -61 27 0 81 -21 81 -31 0 -5 -13 -9 -30 -9 -16 0 -30 -4 -30 -9 0 -17 21 -24 43 -13 78 35 95 34 82 -8 -7 -22 5 -26 22 -9 9 9 23 9 55 1 24 -6 86 -18 138 -27 52 -9 140 -26 195 -37 55 -11 125 -23 155 -28 30 -5 90 -17 134 -26 70 -15 77 -19 60 -31 -17 -12 -17 -13 3 -13 11 0 27 7 34 16 10 12 23 14 50 10 21 -3 41 -2 44 4 3 5 -3 10 -14 10 -22 0 -56 29 -89 77 -12 17 -58 61 -102 97 -73 61 -118 111 -109 121 2 2 33 10 67 18 l63 15 29 -52 c28 -48 130 -160 130 -141 0 4 -22 34 -48 64 -44 51 -97 131 -90 135 2 1 28 12 58 24 73 29 98 28 110 -3 16 -41 92 -176 97 -172 2 3 -16 46 -41 96 -25 50 -46 96 -46 103 0 9 37 21 103 35 56 11 104 20 106 18 2 -2 -7 -20 -19 -39 -12 -20 -20 -42 -17 -49 2 -6 16 12 31 40 17 35 34 54 49 57 12 2 43 8 70 14 26 5 47 7 47 3 0 -3 -27 -33 -61 -67 -58 -59 -62 -65 -74 -135 -7 -41 -11 -76 -8 -79 8 -9 23 26 23 57 0 17 5 44 11 60 12 32 127 153 146 153 37 0 115 -143 129 -236 4 -31 13 -48 28 -56 44 -23 48 -67 11 -118 -14 -19 -25 -37 -25 -41 0 -3 13 -23 29 -43 16 -20 32 -51 35 -69 4 -24 35 -65 107 -143 114 -123 119 -130 159 -255 38 -116 42 -260 9 -349 -11 -30 -23 -68 -26 -83 -9 -45 -143 -115 -238 -125 -128 -12 -452 52 -478 95 -5 7 -12 11 -17 8 -18 -11 -182 87 -339 202 -73 54 -341 309 -341 325 0 15 141 233 164 254 35 31 50 63 34 69 -45 17 -374 130 -428 147 -36 11 -76 30 -89 41 l-23 22 4 -37 c4 -42 2 -44 -28 -24 -11 8 -37 17 -57 21 -30 6 -38 4 -44 -10 -4 -11 0 -23 11 -31 10 -6 35 -46 56 -87 104 -204 329 -474 550 -662 179 -151 475 -333 629 -386 87 -30 322 -61 432 -57 104 3 91 -2 229 95 98 69 135 174 127 357 -8 191 -82 374 -201 499 -65 67 -126 147 -126 163 0 8 -10 34 -22 57 -14 28 -26 79 -34 152 -7 61 -22 137 -33 170 -23 74 -63 168 -74 176 -4 3 36 13 90 23 54 9 108 20 120 23 18 4 23 -1 31 -31 14 -50 46 -91 98 -127 52 -36 128 -64 150 -55 14 5 14 7 0 22 -9 8 -16 23 -16 32 0 9 -18 27 -41 40 -46 27 -81 76 -77 111 4 37 28 39 28 3 0 -63 80 -123 168 -127 35 -2 42 1 42 17 0 13 9 20 30 24 16 4 32 14 35 23 3 9 21 23 40 30 20 7 33 17 29 22 -3 6 3 13 15 16 12 3 21 12 21 19 0 8 7 14 15 14 13 0 15 -9 9 -59 -4 -37 -2 -66 5 -79 8 -15 8 -28 1 -42 -33 -66 -36 -61 27 -54 32 4 63 13 69 20 20 24 52 17 56 -12 3 -24 10 -28 73 -45 39 -10 76 -18 83 -18 17 -1 15 19 -5 41 -15 17 -15 20 -1 34 14 15 23 14 93 0 42 -9 82 -16 89 -16 23 1 -29 23 -93 40 -36 10 -99 27 -139 40 -67 20 -73 24 -67 44 4 11 9 41 12 66 3 28 26 87 61 157 l57 113 41 0 c62 0 331 28 397 41 l57 12 0 68 c0 75 -1 76 -60 59 -44 -12 -361 -53 -366 -47 -4 3 151 341 162 356 7 9 164 -18 198 -34 20 -10 39 -15 42 -12 13 13 -93 50 -157 55 -38 2 -69 9 -69 14 0 5 7 23 16 40 10 20 14 42 10 64 l-7 33 73 -4 c51 -3 64 -2 43 4 -16 5 -53 9 -82 10 -28 0 -64 6 -78 11 l-27 10 3 102 3 102 -114 57 c-62 31 -130 60 -151 63 -20 3 -43 8 -51 10 -7 2 -25 1 -40 -4z m-1189 -481 c9 -36 24 -77 34 -90 9 -13 24 -35 34 -49 9 -14 30 -40 47 -57 36 -39 30 -49 -15 -29 -19 8 -72 24 -119 35 -126 29 -243 75 -351 135 -52 29 -105 57 -117 60 -39 13 -23 26 32 26 29 0 78 5 107 11 65 13 227 27 288 25 l43 -1 17 -66z m286 56 c90 -7 197 -26 210 -37 5 -4 30 -8 56 -8 26 0 98 -9 161 -19 62 -11 171 -25 243 -31 71 -6 132 -14 135 -16 7 -8 -31 -34 -55 -38 -11 -2 -72 -16 -136 -30 -64 -14 -126 -26 -137 -26 -12 0 -24 -4 -27 -10 -3 -5 3 -10 14 -10 28 0 156 28 218 47 29 9 55 14 59 11 6 -7 -178 -217 -201 -230 -13 -8 -100 12 -237 53 -68 20 -73 20 -100 4 -27 -15 -31 -15 -53 -1 -14 9 -25 25 -25 37 0 11 -8 22 -17 26 -48 17 -158 90 -187 125 -32 37 -56 101 -56 148 0 18 5 20 33 16 17 -3 64 -8 102 -11z m1227 -147 c-10 -24 -47 -103 -82 -175 l-63 -133 -131 0 -130 0 35 38 c40 42 110 126 187 221 60 75 69 82 97 75 11 -3 38 1 60 9 22 7 42 12 43 11 2 -1 -5 -22 -16 -46z m-234 30 c-2 -4 -70 -77 -152 -163 l-148 -156 -47 7 c-25 3 -50 10 -55 14 -6 6 234 278 266 300 11 8 139 6 136 -2z m-1640 -152 c31 -13 147 -58 257 -99 110 -42 216 -83 236 -91 35 -15 37 -14 42 4 6 23 27 27 27 5 0 -8 -5 -15 -12 -15 -27 0 12 -20 107 -55 55 -20 127 -48 160 -62 33 -15 85 -29 115 -32 53 -6 55 -7 58 -37 6 -63 -63 -106 -111 -70 -14 11 -25 11 -60 1 -23 -7 -98 -27 -167 -43 -69 -17 -132 -34 -142 -37 -11 -4 -30 6 -58 31 -30 27 -54 40 -88 45 -26 4 -76 14 -111 23 -81 21 -95 16 -45 -13 51 -30 134 -93 134 -102 0 -11 -56 -29 -150 -49 -47 -10 -100 -21 -117 -25 -25 -6 -33 -4 -33 6 -1 10 -4 8 -11 -3 -5 -10 -17 -18 -25 -18 -21 0 -127 -38 -133 -49 -9 -13 -53 -25 -90 -22 -18 1 -52 15 -75 30 -62 43 -114 66 -181 81 -75 17 -179 76 -168 94 10 17 135 131 193 176 92 70 214 184 287 266 41 46 82 84 89 84 8 0 40 -11 72 -24z m1655 -316 c7 -6 -62 -160 -79 -179 -3 -3 -21 11 -42 31 -49 47 -103 78 -159 92 l-45 12 28 33 27 33 131 -7 c72 -4 135 -10 139 -15z m-2277 -238 c16 -16 40 -32 54 -35 65 -16 224 -126 207 -143 -7 -7 -191 -49 -289 -66 -61 -10 -68 -14 -68 -35 0 -29 -16 -30 -30 -2 -9 16 -17 19 -42 14 l-31 -7 8 48 c8 55 35 133 60 170 12 19 24 24 58 24 23 0 49 5 57 10 10 7 -1 8 -35 4 l-50 -7 24 27 c31 33 40 33 77 -2z m389 -332 c28 -33 53 -60 57 -60 11 0 128 -111 128 -121 0 -5 -12 -4 -27 2 -16 6 -68 19 -118 30 -190 40 -313 68 -385 88 -41 12 -85 21 -97 21 -27 0 -31 16 -5 24 9 2 89 19 177 36 88 18 162 34 164 36 2 2 16 4 30 4 19 0 39 -16 76 -60z m-467 -286 c15 -3 54 -14 87 -24 33 -11 110 -33 170 -51 61 -17 111 -33 112 -34 2 0 -31 -53 -72 -115 -41 -63 -75 -120 -75 -127 0 -33 -33 -4 -107 95 -72 94 -173 252 -173 268 0 4 7 3 16 0 9 -3 28 -9 42 -12z"></path><path id="p7kT5L7nP" d="M1173 3215 c-23 -18 -146 -20 -206 -3 -43 11 -97 5 -97 -11 0 -13 35 -19 54 -9 11 6 31 3 62 -12 26 -11 56 -20 68 -20 12 0 54 -16 95 -35 56 -27 85 -35 127 -35 45 0 62 -5 91 -27 l35 -27 39 42 c22 22 39 46 39 51 0 6 -17 23 -37 38 -21 15 -42 34 -46 40 -10 15 -53 17 -62 3 -6 -10 -69 -5 -117 10 -18 6 -32 4 -45 -5z"></path><path id="p1E763GeUD" d="M719 3173 c-1 -5 0 -18 0 -29 2 -26 -152 -264 -206 -319 -22 -22 -66 -61 -97 -87 -83 -69 -137 -137 -184 -230 -72 -145 -79 -241 -22 -309 25 -30 31 -33 49 -21 20 11 21 10 21 -21 0 -45 24 -65 150 -120 197 -87 356 -135 389 -118 27 15 43 62 39 117 l-3 49 -63 3 c-46 2 -74 10 -100 26 -24 16 -59 26 -101 30 -36 3 -85 16 -109 27 l-43 21 -25 -23 c-13 -12 -24 -17 -24 -10 0 24 -48 62 -73 56 -16 -4 -29 1 -47 20 -42 44 -35 109 24 230 43 89 59 111 143 193 76 74 98 90 109 81 8 -6 14 -17 14 -23 0 -20 92 -146 106 -146 29 0 15 72 -30 156 l-43 80 29 35 c63 74 178 268 178 299 0 5 -6 10 -14 10 -7 0 -19 7 -26 15 -13 16 -39 20 -41 8z"></path><path id="pYWM1VG4p" d="M1017 943 c-2 -5 -7 -20 -11 -34 -4 -17 -15 -29 -31 -33 -45 -11 -104 -160 -91 -230 8 -44 117 -142 180 -161 l43 -13 27 41 c15 23 32 61 38 85 6 23 14 45 19 48 5 3 9 16 9 29 0 30 16 41 23 15 8 -31 21 -24 44 23 16 33 20 55 16 91 -6 51 -26 58 -31 10 -2 -16 -20 -47 -42 -70 -42 -45 -61 -82 -87 -164 -14 -42 -23 -55 -38 -55 -12 0 -19 6 -17 14 5 22 -19 41 -50 41 -30 0 -29 1 18 33 60 41 116 142 107 193 -3 21 0 35 9 40 7 5 20 23 29 39 11 22 22 30 42 30 16 -1 27 5 27 12 0 16 -44 17 -70 1 -15 -10 -26 -9 -55 5 -36 17 -100 23 -108 10z"></path><path id="p13lVSBdF8" d="M1906 822 c-4 -6 3 -21 14 -34 12 -13 36 -44 55 -70 31 -43 33 -51 28 -100 -7 -71 18 -105 79 -110 40 -3 43 -5 74 -67 43 -85 81 -123 125 -124 46 -1 87 28 98 70 5 19 21 43 34 53 49 39 40 106 -26 208 -23 34 -47 62 -54 62 -18 0 -27 -20 -14 -33 14 -14 14 -37 1 -37 -14 0 -40 55 -40 87 0 46 -11 72 -34 80 -18 7 -106 12 -196 11 -74 0 -87 0 -111 7 -16 4 -29 2 -33 -3z"></path></g></g><g id="l2if5brLRbbQzs8cEUiVWmt" fill="rgb(15,16,15)" style="transform: none;"><g style="transform: none;"><path id="pjeWOGH72" d="M1531 5804 c1 -80 -1 -98 -15 -106 -20 -11 -21 -37 -1 -44 9 -4 15 -19 15 -39 0 -66 46 -67 52 -1 2 30 8 41 26 47 21 8 22 6 22 -42 0 -47 2 -50 23 -47 19 3 22 9 21 51 0 26 1 47 3 47 1 0 18 -7 36 -16 30 -14 38 -15 62 -3 50 25 64 56 66 145 2 87 -3 106 -26 97 -12 -4 -15 -24 -15 -88 0 -78 -2 -85 -26 -104 -26 -21 -28 -21 -58 -3 -30 18 -31 20 -36 105 -3 48 -8 87 -12 87 -5 0 -15 0 -23 0 -12 0 -15 -18 -15 -105 l0 -105 -25 12 c-23 10 -24 16 -27 107 -3 92 -4 96 -26 99 -23 4 -23 3 -21 -94z"></path><path id="pqiKCzmML" d="M2286 5876 c-113 -68 -113 -226 0 -292 67 -39 140 -27 198 35 26 27 27 31 12 37 -11 4 -29 -2 -49 -17 -24 -18 -45 -24 -85 -24 -48 0 -57 4 -83 32 -39 44 -45 75 -25 128 19 49 66 85 110 85 15 0 44 -11 64 -25 54 -37 90 -32 60 7 -45 58 -137 73 -202 34z"></path><path id="pBYDkz9Sz" d="M1914 5538 c-18 -4 -46 -24 -63 -43 -59 -67 -33 -159 57 -199 38 -17 40 -17 79 2 34 18 40 18 49 6 5 -9 16 -13 24 -9 13 4 15 26 14 123 0 101 -3 117 -17 120 -9 2 -20 -4 -23 -13 -6 -14 -9 -14 -28 -2 -31 20 -57 25 -92 15z m91 -63 c50 -50 23 -130 -47 -142 -32 -5 -41 -1 -68 25 -38 38 -40 79 -5 116 32 35 86 36 120 1z"></path><path id="pSLAV3hUt" d="M1559 5503 c-99 -89 -89 -207 23 -276 40 -25 53 -28 88 -22 40 7 119 58 128 83 6 20 -43 14 -63 -8 -40 -44 -137 -33 -175 20 -14 19 -20 44 -20 79 0 44 4 55 35 86 30 29 43 35 78 35 26 0 51 -8 67 -20 25 -20 70 -27 70 -12 0 11 -39 46 -67 61 -12 6 -44 11 -72 11 -45 0 -56 -5 -92 -37z"></path><path id="pGQ7rNoIc" d="M2100 5422 c0 -65 3 -122 6 -125 4 -3 15 -2 25 4 14 7 25 6 41 -6 30 -20 42 -19 76 9 l29 25 36 -26 c32 -23 39 -24 71 -13 62 20 76 49 76 156 0 87 -1 94 -20 94 -18 0 -20 -7 -20 -83 0 -70 -3 -87 -20 -105 -24 -26 -47 -28 -78 -6 -20 14 -22 23 -22 105 0 88 -1 90 -22 87 -22 -3 -23 -8 -23 -85 0 -64 -4 -87 -17 -103 -21 -24 -46 -26 -76 -4 -20 14 -22 23 -22 105 0 82 -1 89 -20 89 -19 0 -20 -7 -20 -118z"></path><path id="p1GVyjtOr1" d="M2900 5420 l0 -122 25 6 c16 4 35 0 51 -10 23 -16 28 -16 60 -1 57 27 75 68 72 162 -3 74 -5 80 -25 83 -21 3 -22 0 -25 -90 -3 -89 -4 -93 -30 -108 -25 -13 -31 -13 -55 0 -27 15 -28 20 -33 105 -4 75 -8 90 -22 93 -16 3 -18 -8 -18 -118z"></path><path id="pvlUE6VW2" d="M3680 5415 c0 -69 3 -125 6 -125 3 0 14 5 25 11 16 8 26 7 44 -5 32 -21 36 -20 78 9 21 13 39 20 42 14 4 -5 19 -16 36 -24 25 -13 33 -14 63 -1 55 23 66 48 66 153 0 86 -2 93 -20 93 -17 0 -20 -8 -22 -92 -3 -89 -4 -93 -30 -108 -25 -13 -31 -13 -55 0 -27 15 -28 19 -31 108 -2 84 -5 92 -22 92 -18 0 -20 -7 -20 -89 0 -82 -2 -91 -22 -105 -30 -21 -54 -20 -78 4 -17 17 -20 33 -20 105 0 78 -2 85 -20 85 -19 0 -20 -7 -20 -125z"></path><path id="pyZAZ7GzZ" d="M2725 5261 c-3 -5 4 -26 16 -46 l22 -36 -21 -42 c-11 -23 -33 -73 -48 -111 -16 -39 -30 -74 -32 -78 -2 -4 7 -8 21 -8 20 0 28 10 50 68 15 37 27 76 27 85 0 28 32 17 40 -14 7 -24 32 -86 49 -119 9 -16 51 -27 51 -13 0 5 -13 35 -30 68 -16 33 -30 67 -30 76 0 8 -4 19 -8 25 -5 5 -19 36 -32 69 -27 71 -58 103 -75 76z"></path><path id="pZpx01MQe" d="M2262 5178 c-27 -13 -66 -73 -57 -88 11 -19 34 -10 51 19 21 35 44 43 76 27 16 -8 23 -20 23 -41 0 -25 -7 -34 -47 -55 -69 -37 -88 -58 -88 -96 0 -44 35 -83 81 -90 31 -5 41 -2 68 23 17 17 31 37 31 46 0 26 -28 27 -49 2 -21 -28 -62 -33 -81 -10 -21 26 -6 49 55 80 92 48 109 103 51 161 -36 36 -70 43 -114 22z"></path><path id="ptBOdwUMf" d="M1530 5041 l0 -140 -32 -3 c-21 -2 -33 -8 -33 -18 0 -12 17 -16 79 -18 44 -2 85 -1 92 2 24 9 3 36 -27 36 l-29 0 0 140 0 140 -25 0 -25 0 0 -139z"></path><path id="pYD8pGsov" d="M1656 5171 c-8 -12 -7 -214 0 -268 5 -34 10 -43 26 -43 18 0 20 6 16 50 -3 49 6 62 29 39 18 -18 69 -13 102 10 29 21 31 26 31 84 0 34 3 79 6 100 6 35 5 37 -20 37 l-26 0 0 -88 c0 -98 -7 -112 -55 -112 -52 0 -65 24 -65 118 0 75 -2 82 -19 82 -11 0 -22 -4 -25 -9z"></path><path id="p15cDn3wUA" d="M3051 5158 c-5 -13 -14 -41 -20 -63 -6 -22 -22 -80 -36 -130 -30 -108 -30 -107 -4 -103 25 4 42 50 74 202 9 42 19 21 45 -89 12 -50 25 -97 30 -104 14 -24 35 -5 48 45 8 27 18 59 23 72 5 13 9 35 9 50 0 15 4 33 9 41 7 11 11 10 20 -7 6 -11 11 -30 11 -42 0 -12 10 -55 22 -96 17 -59 25 -74 41 -74 22 0 22 6 -12 135 -34 132 -47 169 -64 179 -22 14 -37 -2 -48 -53 -5 -23 -13 -58 -17 -79 -5 -21 -13 -46 -19 -57 -11 -18 -12 -18 -18 10 -13 63 -38 151 -46 168 -13 24 -38 21 -48 -5z"></path><path id="p8s72mvoJ" d="M3364 5167 c-2 -7 -3 -78 -2 -157 l3 -145 25 0 c23 0 25 3 22 44 -4 44 -4 44 25 36 52 -14 86 -7 116 25 25 28 27 36 27 120 0 83 -1 90 -20 90 -18 0 -20 -7 -20 -72 0 -92 -14 -122 -59 -126 -57 -6 -71 17 -71 115 0 77 -2 83 -20 83 -11 0 -23 -6 -26 -13z"></path></g></g></svg>